<svg width="169" height="64" viewBox="0 0 169 64" fill="none" xmlns="http://www.w3.org/2000/svg">
<path d="M131 4.22222C131 1.89035 132.89 0 135.222 0H164.778C167.11 0 169 1.89035 169 4.22222V33.7778C169 36.1096 167.11 38 164.778 38H135.222C132.89 38 131 36.1096 131 33.7778V4.22222Z" fill="#C4C4C4"/>
<path fill-rule="evenodd" clip-rule="evenodd" d="M169 4.32207V4.22222C169 1.89035 167.11 0 164.778 0H135.222C132.89 0 131 1.89035 131 4.22222V33.7778C131 36.1096 132.89 38 135.222 38H151.385L169 4.32207Z" fill="url(#paint0_radial_1209_7882)"/>
<path fill-rule="evenodd" clip-rule="evenodd" d="M169 4.32227V33.778C169 36.1098 167.11 38.0002 164.778 38.0002H151.385L169 4.32227Z" fill="url(#paint1_radial_1209_7882)"/>
<path fill-rule="evenodd" clip-rule="evenodd" d="M151.566 37.9999L151.407 37.9999L169 4.22217L169 4.22217V4.52682L151.566 37.9999Z" fill="#186CB1"/>
<path d="M158.33 20.9216H144.626C144.177 20.9216 143.809 20.5534 143.809 20.1042V7.1509C143.809 6.7017 144.169 6.3335 144.626 6.3335H158.33C158.78 6.3335 159.148 6.7017 159.148 7.1509V20.1042C159.148 20.5534 158.78 20.9216 158.33 20.9216Z" fill="white"/>
<path d="M158.331 19.8392H142.373C141.924 19.8392 141.556 19.471 141.556 19.0218V8.21145C141.556 7.76224 141.924 7.39404 142.373 7.39404H158.331C158.78 7.39404 159.148 7.76224 159.148 8.21145V19.0218C159.148 19.471 158.78 19.8392 158.331 19.8392Z" fill="#00CDCE"/>
<path d="M159.148 9.21289H141.556V11.319H159.148V9.21289Z" fill="#008585"/>
<path d="M153.625 7.39391L154.178 6.3335H150.886L150.326 7.39391H153.625Z" fill="#E5E5E5"/>
<path d="M150.326 7.39404L143.765 19.8392H147.056L153.625 7.39404H150.326Z" fill="#11BCBC"/>
<path d="M158.331 6.3335H154.177L146.489 20.9216H158.331C158.78 20.9216 159.148 20.5534 159.148 20.1042V7.1509C159.148 6.7017 158.78 6.3335 158.331 6.3335Z" fill="white"/>
<path d="M159.14 15.126H145.429V16.8712H159.14V15.126Z" fill="white"/>
<path d="M153.257 15.3248C153.22 15.3248 153.176 15.3174 153.139 15.3027C152.992 15.2364 152.925 15.0671 152.984 14.9124C153.102 14.64 153.161 14.3601 153.161 14.0729C153.161 13.7857 153.102 13.4985 152.977 13.2261C152.911 13.0788 152.977 12.9021 153.124 12.8358C153.271 12.7695 153.448 12.8358 153.514 12.9831C153.669 13.3292 153.75 13.6974 153.75 14.0656C153.75 14.4338 153.676 14.7946 153.522 15.1407C153.478 15.2585 153.375 15.3248 153.257 15.3248Z" fill="#00CACB"/>
<path d="M154.376 15.8551C154.339 15.8551 154.295 15.8478 154.258 15.8331C154.111 15.7668 154.037 15.5974 154.104 15.4428C154.295 14.9936 154.398 14.5223 154.398 14.0436C154.398 13.5649 154.295 13.0936 154.104 12.6371C154.037 12.4898 154.104 12.3131 154.258 12.2468C154.406 12.1805 154.582 12.2468 154.649 12.4014C154.877 12.9316 154.995 13.4766 154.995 14.0436C154.995 14.6033 154.877 15.1482 154.656 15.671C154.597 15.7889 154.487 15.8551 154.376 15.8551Z" fill="#00CACB"/>
<path d="M155.503 16.4587C155.459 16.4587 155.414 16.4514 155.378 16.4293C155.23 16.3556 155.171 16.1789 155.245 16.039C155.562 15.3909 155.716 14.7208 155.716 14.036C155.716 13.3511 155.554 12.6663 155.238 12.0182C155.164 11.8709 155.223 11.6942 155.37 11.6206C155.518 11.5469 155.694 11.6058 155.768 11.7531C156.129 12.4822 156.306 13.248 156.306 14.0286C156.306 14.8018 156.129 15.5603 155.775 16.2893C155.716 16.3998 155.613 16.4587 155.503 16.4587Z" fill="#00CACB"/>
<path d="M156.607 17.1143C156.563 17.1143 156.519 17.107 156.475 17.0849C156.327 17.0112 156.268 16.8345 156.342 16.6872C156.776 15.833 156.997 14.942 156.997 14.0436C156.997 13.1378 156.776 12.2394 156.335 11.3778C156.261 11.2305 156.32 11.0538 156.46 10.9801C156.607 10.9065 156.784 10.9654 156.857 11.1053C157.336 12.0479 157.587 13.0347 157.587 14.0362C157.587 15.0303 157.343 16.0097 156.872 16.945C156.813 17.0554 156.71 17.1143 156.607 17.1143Z" fill="#00CACB"/>
<path d="M148.257 11.319H151.556L152.661 9.21289H149.369L148.257 11.319Z" fill="#118080"/>
<path d="M143.809 19.8389V20.104C143.809 20.5532 144.177 20.9214 144.626 20.9214H146.489L147.056 19.8389H143.809Z" fill="#E5E5E5"/>
<path d="M155.406 25.5251L153.489 29.1488C153.448 29.2321 153.323 29.2321 153.281 29.1488L151.364 25.5251C151.364 25.4834 151.322 25.4834 151.28 25.4834H150.364C150.28 25.4834 150.28 25.5667 150.28 25.6084L153.281 31.2314C153.323 31.3147 153.448 31.3147 153.489 31.2314L156.49 25.6084C156.532 25.5667 156.49 25.4834 156.407 25.4834H155.49C155.49 25.4834 155.448 25.4834 155.406 25.5251Z" fill="white"/>
<path d="M156.49 30.3566L158.407 26.7328C158.448 26.6495 158.573 26.6495 158.615 26.7328L160.532 30.3566C160.532 30.3982 160.574 30.3982 160.615 30.3982H161.532C161.616 30.3982 161.616 30.3149 161.616 30.2733L158.615 24.6919C158.573 24.6086 158.448 24.6086 158.407 24.6919L155.406 30.3149C155.364 30.3566 155.406 30.4399 155.489 30.4399H156.406C156.448 30.4399 156.49 30.3982 156.49 30.3566Z" fill="white"/>
<path d="M143.487 28.1491C143.904 27.9409 144.112 27.5244 144.112 26.9829C144.112 26.0665 143.404 25.4834 142.403 25.4834H139.569C139.528 25.4834 139.444 25.5251 139.444 25.6084V31.1898C139.444 31.2314 139.486 31.3147 139.569 31.3147H142.278C143.654 31.3147 144.362 30.7316 144.362 29.5653C144.404 28.3991 143.487 28.1491 143.487 28.1491ZM140.528 26.3164H142.237C142.862 26.3164 143.195 26.5664 143.195 27.0662C143.195 27.566 142.862 27.8159 142.237 27.8159H140.528C140.486 27.8159 140.403 27.7743 140.403 27.691V26.3997C140.445 26.3581 140.486 26.3164 140.528 26.3164ZM142.278 30.44H140.57C140.528 30.44 140.445 30.3984 140.445 30.3151V28.7739C140.445 28.7323 140.486 28.649 140.57 28.649H142.278C143.112 28.649 143.445 28.8989 143.445 29.5237C143.445 30.1901 143.07 30.44 142.278 30.44Z" fill="white"/>
<path d="M149.363 28.1491C149.78 27.9409 149.988 27.5244 149.988 26.9829C149.988 26.0665 149.279 25.4834 148.279 25.4834H145.445C145.404 25.4834 145.32 25.5251 145.32 25.6084V31.1898C145.32 31.2314 145.362 31.3147 145.445 31.3147H148.154C149.53 31.3147 150.238 30.7316 150.238 29.5653C150.238 28.3991 149.363 28.1491 149.363 28.1491ZM146.404 26.3164H148.113C148.738 26.3164 149.071 26.5664 149.071 27.0662C149.071 27.566 148.738 27.8159 148.113 27.8159H146.404C146.362 27.8159 146.279 27.7743 146.279 27.691V26.3997C146.279 26.3581 146.321 26.3164 146.404 26.3164ZM148.113 30.44H146.404C146.362 30.44 146.279 30.3984 146.279 30.3151V28.7739C146.279 28.7323 146.321 28.649 146.404 28.649H148.113C148.946 28.649 149.279 28.8989 149.279 29.5237C149.279 30.1901 148.946 30.44 148.113 30.44Z" fill="white"/>
<path d="M87 4.22222C87 1.89035 88.8904 0 91.2222 0H120.778C123.11 0 125 1.89035 125 4.22222V33.7778C125 36.1096 123.11 38 120.778 38H91.2222C88.8904 38 87 36.1096 87 33.7778V4.22222Z" fill="white"/>
<path fill-rule="evenodd" clip-rule="evenodd" d="M120.778 0.703704H91.2222C89.279 0.703704 87.7037 2.279 87.7037 4.22222V33.7778C87.7037 35.721 89.279 37.2963 91.2222 37.2963H120.778C122.721 37.2963 124.296 35.721 124.296 33.7778V4.22222C124.296 2.279 122.721 0.703704 120.778 0.703704ZM91.2222 0C88.8904 0 87 1.89035 87 4.22222V33.7778C87 36.1096 88.8904 38 91.2222 38H120.778C123.11 38 125 36.1096 125 33.7778V4.22222C125 1.89035 123.11 0 120.778 0H91.2222Z" fill="#DADADA"/>
<path d="M105.991 4.92578C98.2239 4.92578 91.9258 11.2239 91.9258 18.9911C91.9258 20.7327 92.2424 22.404 92.823 23.9522C92.8406 23.9962 93.4387 25.9313 92.6559 28.5966C92.5503 28.9573 92.4272 29.3179 92.4272 29.7137C92.4272 31.2619 93.685 32.5198 95.2332 32.5198C95.6818 32.5198 96.148 32.3966 96.5526 32.2471C97.7665 31.8161 99.8424 31.7105 100.916 32.1239C102.49 32.7397 104.205 33.0739 106 33.0739C113.767 33.0739 120.065 26.7758 120.065 19.0087C120.065 11.2415 113.767 4.92578 105.991 4.92578Z" fill="url(#paint2_radial_1209_7882)"/>
<path d="M99.9747 15.7978C99.6492 15.789 99.3502 15.8418 99.0775 15.921C98.752 16.0265 98.189 16.1409 97.7668 16.0265C97.327 15.9122 97.0895 15.9474 97.0895 15.9474C96.6673 15.9474 96.3154 16.2904 96.3154 16.7214V24.3654C96.3154 24.7876 96.6585 25.1395 97.0895 25.1395H97.3798C97.802 25.1395 98.1539 24.7964 98.1539 24.3654V22.6413C98.1539 22.6413 98.189 22.0256 99.0511 22.2191C99.3238 22.2807 99.6316 22.3423 99.9747 22.3423C101.54 22.3775 102.79 21.2867 102.807 19.0701C102.833 16.9413 101.54 15.8242 99.9747 15.7978ZM99.5525 21.3747C98.664 21.3747 97.9515 20.3543 97.9515 19.1052C97.9515 17.8562 98.664 16.8358 99.5525 16.8358C100.441 16.8358 101.153 17.8562 101.153 19.1052C101.153 20.3543 100.441 21.3747 99.5525 21.3747Z" fill="white"/>
<path d="M104.918 22.4214H104.707C104.258 22.4214 103.889 22.0519 103.889 21.6033V14.3376C103.889 13.889 104.258 13.5195 104.707 13.5195H104.918C105.366 13.5195 105.736 13.889 105.736 14.3376V21.6033C105.736 22.0519 105.375 22.4214 104.918 22.4214Z" fill="white"/>
<path d="M107.927 22.4218H107.698C107.249 22.4218 106.889 22.0612 106.889 21.6126V16.757C106.889 16.3084 107.249 15.9478 107.698 15.9478H107.927C108.375 15.9478 108.736 16.3084 108.736 16.757V21.6126C108.736 22.0612 108.375 22.4218 107.927 22.4218Z" fill="white"/>
<path d="M107.821 15.4639C108.302 15.4639 108.692 15.0661 108.692 14.5754C108.692 14.0848 108.302 13.687 107.821 13.687C107.34 13.687 106.95 14.0848 106.95 14.5754C106.95 15.0661 107.34 15.4639 107.821 15.4639Z" fill="#F277C6"/>
<path d="M114.937 16.1148C114.136 15.5255 112.975 15.8685 112.421 16.0181C112.113 16.106 111.796 16.0972 111.541 16.0269C111.119 15.9037 110.952 15.9213 110.741 15.9477C110.31 16.0005 109.958 16.2996 109.958 16.7306V21.6213C109.958 22.0523 110.31 22.4042 110.741 22.4042H111.014C111.445 22.4042 111.796 22.0523 111.796 21.6213V17.7509C111.796 17.5134 111.928 16.8361 112.826 16.8273C113.723 16.8185 113.828 17.7509 113.828 17.7509V21.6213C113.828 22.0523 114.18 22.4042 114.611 22.4042H114.849C115.28 22.4042 115.632 22.0523 115.632 21.6213V17.7158C115.64 17.7246 115.728 16.6866 114.937 16.1148Z" fill="white"/>
<path d="M76.7778 0H47.2222C44.8904 0 43 1.89035 43 4.22222V33.7778C43 36.1096 44.8904 38 47.2222 38H76.7778C79.1096 38 81 36.1096 81 33.7778V4.22222C81 1.89035 79.1096 0 76.7778 0Z" fill="#742385"/>
<path d="M71.5201 24.189C70.1614 24.2936 68.8027 24.3981 67.444 24.5287C66.6079 24.6071 65.7805 24.729 64.9095 24.8336C64.9966 24.2239 65.0837 23.6578 65.1795 23.0481C65.2927 23.1352 65.3537 23.1787 65.4147 23.2136C66.2508 23.8058 67.0521 23.7274 67.7314 22.9697C68.254 22.3862 68.5414 21.6633 68.7591 20.9229C69.1075 19.7471 69.3427 18.5626 69.0204 17.3346C68.733 16.272 67.7053 16.002 66.904 16.7772C66.7472 16.9339 66.5817 17.082 66.4424 17.2126C66.4076 17.0907 66.4076 16.9078 66.3205 16.8207C65.9372 16.4375 65.3014 16.6291 65.1969 17.1517C64.9008 18.6497 64.6221 20.1478 64.3085 21.6371C64.2737 21.82 64.1169 22.0029 63.9776 22.1423C63.8818 22.2294 63.7163 22.2468 63.5769 22.2903C63.5247 22.1423 63.4289 21.9942 63.4376 21.8549C63.4985 21.3236 63.5856 20.801 63.6902 20.2784C63.8731 19.3639 64.0734 18.4581 64.2563 17.5523C64.326 17.2214 64.1866 17.0123 63.8382 16.9252C63.3418 16.8033 63.2547 16.8381 62.9411 17.413C62.0789 16.9078 61.4605 16.9949 60.755 17.7265C60.1541 18.3449 59.7883 19.1026 59.5008 19.9039C59.1089 21.01 58.8999 22.1336 59.1699 23.2919C59.2918 23.8058 59.5705 24.189 60.1018 24.3458C60.6766 24.5113 61.1557 24.3545 61.5563 23.9365C61.7305 23.7536 61.8698 23.5271 62.0353 23.3007C62.1486 23.71 62.3924 24.041 62.8192 24.0148C63.1937 23.9887 63.5508 23.8145 63.9253 23.7013C63.8643 24.0148 63.7685 24.3371 63.7424 24.6681C63.7163 24.9642 63.5682 25.0513 63.2982 25.0948C61.7828 25.3213 60.2673 25.5739 58.7431 25.8177C58.2641 25.8961 57.785 25.9832 57.245 26.079C57.4628 25.2952 57.6718 24.581 57.8634 23.8668C58.4034 21.9245 58.9521 19.9736 59.4747 18.0313C59.6141 17.5262 59.3963 17.3259 58.8912 17.4478C58.2902 17.5959 57.9157 17.9704 57.7067 18.5626C57.2886 19.7384 56.8618 20.9142 56.3915 22.0726C56.2609 22.4036 55.9734 22.6823 55.7034 22.9349C55.5815 23.0481 55.268 23.109 55.146 23.0307C55.0154 22.9523 54.937 22.6736 54.9544 22.4907C54.9806 22.1336 55.0851 21.7852 55.1722 21.4368C55.3638 20.7226 55.5989 20.0171 55.7644 19.2942C55.8689 18.8239 55.4857 18.4494 54.937 18.4233C54.5799 18.4059 54.4841 18.5801 54.458 19.1288C54.4493 19.3988 54.3883 19.6688 54.3099 19.9213C54.188 20.3133 54.0051 20.6878 53.9006 21.0797C53.7002 21.82 53.4999 22.5603 53.3867 23.3181C53.2996 23.8755 53.4215 24.4242 53.9441 24.7552C54.4754 25.0861 54.998 24.9468 55.4683 24.5984C55.7296 24.4068 55.9734 24.1716 56.2696 23.9278C55.9909 24.7726 55.7383 25.5739 55.4596 26.3664C55.416 26.4797 55.268 26.5755 55.146 26.6364C54.4754 27.0022 53.7612 27.3071 53.1254 27.7338C51.697 28.7006 50.6954 29.9896 50.347 31.7141C50.1903 32.4719 50.3296 33.1599 50.9654 33.6564C51.6186 34.1702 52.3328 34.0919 53.0296 33.7522C53.7089 33.4212 54.188 32.8725 54.6409 32.289C55.5554 31.1045 56.0867 29.7284 56.5396 28.3174C56.6267 28.0474 56.7573 27.9168 57.036 27.8558C58.6037 27.5422 60.1628 27.2113 61.7305 26.8977C62.2444 26.7932 62.7669 26.7235 63.3156 26.6364C63.3244 26.8193 63.2982 26.9587 63.3418 27.0632C63.4289 27.2548 63.5334 27.5161 63.6902 27.5684C63.8469 27.6206 64.1256 27.5074 64.265 27.3768C64.4218 27.2287 64.5263 26.9848 64.5785 26.7584C64.6308 26.5145 64.7527 26.4361 64.9705 26.4013C66.3988 26.2184 67.8185 26.0355 69.2469 25.8439C70.0917 25.7306 70.9453 25.6348 71.7814 25.4781C72.2169 25.3997 72.3562 25.0165 72.182 24.6158C72.0688 24.3023 71.8336 24.1629 71.5201 24.189ZM65.6063 21.8462C65.8676 20.8707 66.1114 19.8865 66.425 18.9284C66.5382 18.5975 66.7908 18.2839 67.0521 18.0313C67.3482 17.7265 67.653 17.831 67.7575 18.2491C67.8098 18.4668 67.8272 18.6846 67.8446 18.8065C67.8011 19.8081 67.5311 20.6616 67.1392 21.4629C66.904 21.9333 66.5643 22.3078 65.9547 22.2555C65.7021 22.2294 65.5279 22.1249 65.6063 21.8462ZM62.7234 18.85C62.4011 19.9388 62.044 21.0187 61.6957 22.09C61.6521 22.2294 61.5476 22.3513 61.4518 22.4558C61.1905 22.7345 60.816 22.6997 60.6592 22.36C60.5373 22.09 60.485 21.7765 60.4328 21.5674C60.5721 20.4787 60.7899 19.5294 61.5563 18.8239C61.7479 18.641 62.0005 18.5104 62.2531 18.4146C62.5492 18.3013 62.8192 18.5365 62.7234 18.85ZM53.047 31.8361C52.8728 32.0364 52.6638 32.228 52.4286 32.3674C52.2893 32.4457 52.0193 32.498 51.9235 32.4196C51.8015 32.3238 51.7232 32.0625 51.758 31.9058C51.8538 31.5399 51.9844 31.1741 52.1761 30.8432C52.7857 29.7719 53.6741 28.9967 54.8935 28.4393C54.4144 29.7283 53.8744 30.8606 53.047 31.8361ZM70.7362 20.5223C70.7798 20.2958 70.893 20.1913 71.1456 20.1391C72.574 19.8429 73.6714 18.6846 73.9239 17.2736C74.0807 16.3765 73.5581 15.732 72.6523 15.6972C72.1559 15.6798 71.7204 15.8278 71.3546 16.1675C69.9175 17.4914 69.3601 19.1897 69.212 21.0623C69.2469 21.3758 69.2643 21.672 69.3078 21.9681C69.482 22.9871 70.2746 23.501 71.2675 23.2484C72.1123 23.0307 72.7743 22.5255 73.3665 21.8984C73.7585 21.4804 73.8107 21.2887 73.5756 20.7749C73.3839 20.3481 73.2098 20.3394 72.8701 20.6704C72.5478 20.9926 72.1994 21.2887 71.8249 21.55C71.5462 21.7416 71.1978 21.8723 70.8843 21.6284C70.562 21.3845 70.6404 21.01 70.684 20.6616C70.6927 20.6181 70.7275 20.5746 70.7362 20.5223ZM71.9469 17.291C72.0775 17.0907 72.3301 16.8991 72.5304 17.0733C72.6523 17.1778 72.6785 17.5175 72.6175 17.7004C72.3736 18.3623 71.8336 18.702 71.1804 18.8936C71.1369 18.8588 71.0933 18.8326 71.0498 18.7978C71.3459 18.2926 71.6246 17.7875 71.9469 17.291Z" fill="white"/>
<path d="M63.4726 3.9043C60.5723 3.9043 58.2207 6.25589 58.2207 9.15619C58.2207 10.541 58.7607 11.7952 59.6317 12.7358L59.5097 14.9568C59.501 15.1571 59.7275 15.2877 59.8929 15.1745L61.5478 14.0423C62.1487 14.2774 62.7932 14.4081 63.4726 14.4081C66.3729 14.4081 68.7245 12.0565 68.7245 9.15619C68.7245 6.25589 66.3729 3.9043 63.4726 3.9043ZM63.8558 11.2378C63.7252 11.4642 63.5336 11.6384 63.3071 11.7604C63.0807 11.8736 62.802 11.9346 62.4884 11.9346C61.992 11.9346 61.5913 11.7865 61.2952 11.4904C60.9991 11.1942 60.8423 10.8023 60.8336 10.3059C60.8336 10.3059 60.8249 10.2013 60.8946 10.123C60.9555 10.062 61.0339 10.0271 61.1471 10.0184C61.2778 10.0184 61.3823 10.0446 61.4433 10.1055C61.4955 10.1578 61.5129 10.2188 61.5042 10.2536C61.5304 10.4713 61.5826 10.6455 61.661 10.7675C61.7394 10.8894 61.8526 10.9852 62.0007 11.0636C62.1487 11.142 62.3229 11.1768 62.5145 11.1768C62.7845 11.1768 62.9936 11.1158 63.1416 10.9939C63.281 10.872 63.3507 10.7152 63.3507 10.5236C63.3507 10.4104 63.3245 10.3146 63.2723 10.2275C63.22 10.1491 63.1416 10.0794 63.0458 10.0271C62.9326 9.96618 62.6713 9.87909 62.2794 9.76586C61.9049 9.66135 61.6523 9.54812 61.4868 9.44361C61.3213 9.33038 61.1907 9.18232 61.1036 9.00813C61.0078 8.83393 60.9642 8.63361 60.9642 8.41587C60.9642 8.02394 61.0949 7.70168 61.3562 7.44911C61.6175 7.19653 61.9745 7.07459 62.41 7.07459C62.7062 7.07459 62.9761 7.13556 63.1939 7.24878C63.4203 7.36201 63.6032 7.5362 63.7252 7.75394C63.8471 7.97168 63.9168 8.22426 63.9255 8.52039C63.9255 8.5291 63.9342 8.63361 63.8558 8.72071C63.821 8.76426 63.7426 8.81651 63.612 8.81651C63.4813 8.82522 63.3768 8.79038 63.3071 8.72942C63.2374 8.65974 63.2287 8.58135 63.2287 8.57265C63.2026 8.31136 63.1242 8.11975 62.9936 7.99781C62.8629 7.87588 62.6626 7.81491 62.41 7.81491C62.1487 7.81491 61.9571 7.86717 61.8265 7.98039C61.7045 8.08491 61.6436 8.21555 61.6436 8.38103C61.6436 8.53781 61.6871 8.64232 61.7742 8.72942C61.8439 8.79038 62.0181 8.88619 62.471 9.00813C62.8542 9.11264 63.1155 9.19974 63.281 9.27812C63.5249 9.40006 63.7165 9.56554 63.8471 9.76586C63.9778 9.96618 64.0387 10.2101 64.0387 10.4888C64.0561 10.7588 63.9865 11.0113 63.8558 11.2378ZM66.9826 7.85846L64.9532 11.5513C64.8923 11.6646 64.7616 11.7429 64.631 11.7429C64.57 11.7429 64.509 11.7255 64.4568 11.6994C64.2826 11.6036 64.2129 11.3771 64.3087 11.2029L66.3381 7.51007C66.4339 7.33588 66.6603 7.2662 66.8345 7.36201C67.0087 7.45782 67.0784 7.68426 66.9826 7.85846Z" fill="#00D0B6"/>
<path fill-rule="evenodd" clip-rule="evenodd" d="M8.14286 0H2.71429C1.98143 0 1.30285 0.298565 0.787141 0.78715C0.271429 1.30285 0 1.98143 0 2.71429V8.14286H2.71429V2.71429H8.14286V0ZM6.78571 9.5V14.9286V17.6429H9.5H14.9286H17.6429V14.9286V9.5V6.78571H14.9286H9.5H6.78571V9.5ZM9.5 9.5H14.9286V14.9286H9.5V9.5ZM20.3571 23.0714V20.3571H23.0714H28.5H31.2143V23.0714V25.7857V28.5V31.2143H28.5H23.0714H20.3571V28.5V23.0714ZM23.0714 28.5H25.5143V25.7857H28.5V23.0714H23.0714V28.5ZM9.5 20.3571H6.78571V25.7857V28.5V31.2143H9.5H12.2143H17.6429V28.5H12.2143V25.7857H17.6429V20.3571H12.2143V25.7857H9.5V20.3571ZM31.2143 6.78571H20.3571V9.5H25.5143V12.2143H20.3571V17.6429H25.7857V12.2143H31.2143V9.5V6.78571ZM31.2143 14.9286V17.6429H28.5V14.9286H31.2143ZM38 2.71429V8.14286H35.2857V2.71429H29.8571V0H35.2857C36.0186 0 36.6971 0.271429 37.2129 0.78715C37.7014 1.30285 38 1.98143 38 2.71429ZM29.8571 38H35.2857C36.0186 38 36.6971 37.7014 37.2129 37.2129C37.7286 36.6971 38 36.0186 38 35.2857V29.8571H35.2857V35.2857H29.8571V38ZM0 35.2857V29.8571H2.71429V35.2857H8.14286V38H2.71429C1.98143 38 1.30285 37.7286 0.787141 37.2129C0.298573 36.6971 0 36.0186 0 35.2857Z" fill="black"/>
<path d="M101.732 50.6845C101.732 50.8705 101.721 51.0217 101.697 51.1148L101.663 51.2194C101.488 51.9753 101.221 52.5568 100.825 52.987C100.441 53.4057 99.9763 53.708 99.4414 53.8708C98.9064 54.0337 98.2901 54.1151 97.6156 54.1151C97.5342 54.1151 97.4412 54.1151 97.3249 54.1034C97.2086 54.0918 97.1039 54.0918 97.0109 54.0918C96.9179 54.0918 96.8132 54.0802 96.7318 54.0802C96.6388 54.0802 96.569 54.0685 96.5341 54.0685L95.9643 57.2898C95.9526 57.3596 95.9178 57.4177 95.8596 57.4642C95.8015 57.5108 95.7433 57.534 95.6735 57.534H94.4409C94.3827 57.534 94.3362 57.5108 94.3013 57.4759C94.2664 57.441 94.2432 57.3945 94.2432 57.3363V57.3014V57.2898L95.7317 48.8006C95.7549 48.6843 95.8131 48.6029 95.8829 48.5447C95.9526 48.4866 96.0573 48.4517 96.1852 48.4284C96.883 48.3238 97.697 48.2656 98.6273 48.2656C99.6158 48.2656 100.372 48.4517 100.918 48.8355C101.453 49.2192 101.732 49.7658 101.732 50.4868V50.6845ZM100.034 50.6961C100.034 50.324 99.9065 50.0565 99.6507 49.9053C99.3949 49.7541 98.9762 49.6844 98.3831 49.6844C98.2319 49.6844 98.0226 49.696 97.7668 49.7076C97.5109 49.7193 97.3481 49.7309 97.2667 49.7425L96.7434 52.673C97.1388 52.6963 97.5109 52.7079 97.8482 52.7079C98.4762 52.7079 98.9529 52.58 99.2902 52.3242C99.6274 52.0683 99.8484 51.7078 99.953 51.2194L99.9763 51.1148C100.023 50.9752 100.034 50.8357 100.034 50.6961Z" fill="black"/>
<path d="M104.57 51.8476C104.233 51.8476 103.919 51.8825 103.605 51.9406C103.291 51.9988 102.965 52.0802 102.628 52.1732C102.535 52.1965 102.477 52.2081 102.43 52.2081C102.36 52.2081 102.325 52.1732 102.325 52.0918C102.325 52.0337 102.337 51.9406 102.36 51.8011L102.465 51.1847C102.465 51.1266 102.477 51.0917 102.5 51.0452C102.523 51.0103 102.546 50.9754 102.593 50.9522C102.628 50.9289 102.698 50.894 102.791 50.8708C103.512 50.6382 104.244 50.5103 105 50.5103C105.698 50.5103 106.244 50.6614 106.617 50.9638C106.989 51.2661 107.175 51.7197 107.175 52.3128C107.175 52.5105 107.163 52.6849 107.128 52.871L106.384 57.0807C106.372 57.1737 106.349 57.2319 106.326 57.2668C106.303 57.3016 106.244 57.3249 106.175 57.3598C105.872 57.4412 105.64 57.4877 105.454 57.5342C105.268 57.5691 105.047 57.604 104.768 57.6273C104.488 57.6505 104.174 57.6738 103.802 57.6738C102.081 57.6738 101.221 57.1039 101.221 55.9527C101.221 55.7899 101.244 55.6038 101.279 55.4061C101.337 55.0456 101.442 54.7432 101.581 54.4874C101.721 54.2432 101.907 54.0339 102.151 53.8827C102.395 53.7315 102.698 53.6152 103.081 53.5338C103.465 53.464 103.919 53.4292 104.442 53.4292H105.396C105.489 52.9407 105.523 52.65 105.523 52.5686C105.523 52.3128 105.454 52.1267 105.303 52.0337C105.14 51.8941 104.895 51.8476 104.57 51.8476ZM104.872 56.3015L105.198 54.4758H104.279C103.791 54.4758 103.453 54.5455 103.256 54.6735C103.058 54.8014 102.93 55.0456 102.872 55.4061C102.86 55.5108 102.849 55.6154 102.849 55.7085C102.849 55.941 102.942 56.1155 103.116 56.2318C103.291 56.3481 103.581 56.4062 103.988 56.4062C104.349 56.4062 104.64 56.3713 104.872 56.3015Z" fill="black"/>
<path d="M109.966 59.9994C109.582 59.9994 109.163 59.9529 108.733 59.8482C108.303 59.7552 107.931 59.6273 107.64 59.4877C107.512 59.418 107.442 59.3366 107.442 59.2435V59.1621L107.547 58.5807C107.57 58.4411 107.628 58.3713 107.733 58.3713C107.78 58.3713 107.826 58.3713 107.849 58.383C108.163 58.4644 108.512 58.5341 108.908 58.5923C109.303 58.6504 109.687 58.6853 110.071 58.6853C110.536 58.6853 110.873 58.6039 111.071 58.4411C111.268 58.2783 111.396 57.9992 111.443 57.5806L111.454 57.4875C111.024 57.5689 110.652 57.6038 110.338 57.6038C109.571 57.6038 108.954 57.4178 108.489 57.034C108.024 56.6502 107.791 56.0688 107.791 55.278C107.791 54.9989 107.815 54.7547 107.849 54.5221L108.012 53.5802C108.14 52.8126 108.361 52.2079 108.64 51.766C108.931 51.3125 109.303 50.9869 109.78 50.7892C110.245 50.5915 110.826 50.4868 111.513 50.4868C111.896 50.4868 112.315 50.5217 112.769 50.5798C113.21 50.638 113.606 50.7194 113.931 50.8124C114.036 50.8357 114.106 50.8706 114.152 50.9055C114.199 50.9404 114.222 50.9869 114.222 51.0566C114.222 51.0683 114.222 51.0915 114.222 51.1032C114.222 51.1148 114.222 51.1264 114.211 51.1497L113.082 57.5108C112.966 58.1271 112.803 58.6156 112.582 58.9644C112.361 59.3249 112.048 59.5808 111.629 59.7552C111.199 59.918 110.64 59.9994 109.966 59.9994ZM112.42 51.9288C112.28 51.8939 112.106 51.8707 111.908 51.8474C111.71 51.8242 111.489 51.8125 111.257 51.8125C110.931 51.8125 110.652 51.8707 110.431 51.9986C110.21 52.1265 110.036 52.3126 109.908 52.5684C109.78 52.8243 109.675 53.1615 109.617 53.5685L109.454 54.5105C109.396 54.8594 109.373 55.1152 109.373 55.2896C109.373 55.6269 109.454 55.8711 109.617 56.0339C109.78 56.1967 110.071 56.2781 110.466 56.2781C110.78 56.2781 111.187 56.2432 111.664 56.1851L112.42 51.9288Z" fill="black"/>
<path d="M120.711 52.9173C120.711 53.115 120.688 53.3243 120.653 53.5569L120.467 54.5454C120.083 56.5921 118.92 57.6154 116.99 57.6154C116.466 57.6154 116.013 57.4992 115.641 57.2782C115.269 57.0573 114.99 56.7549 114.804 56.3828C114.617 56.0106 114.524 55.592 114.524 55.1385C114.524 54.9175 114.536 54.7198 114.571 54.5454L114.757 53.5569C114.943 52.5335 115.327 51.766 115.92 51.2543C116.513 50.7427 117.281 50.4868 118.246 50.4868C118.804 50.4868 119.269 50.5915 119.641 50.8124C120.013 51.0334 120.292 51.3241 120.455 51.6846C120.63 52.0567 120.711 52.4754 120.711 52.9173ZM119.071 53.022C119.071 52.6498 118.978 52.3707 118.804 52.1847C118.629 51.9986 118.35 51.9056 117.99 51.9056C117.583 51.9056 117.246 52.0335 116.955 52.301C116.676 52.5684 116.478 52.9871 116.373 53.5802L116.187 54.5686C116.152 54.7431 116.141 54.9291 116.141 55.1152C116.141 55.8595 116.501 56.2316 117.222 56.2316C118.095 56.2316 118.629 55.6734 118.827 54.5686L119.013 53.5802C119.06 53.3941 119.071 53.208 119.071 53.022Z" fill="black"/>
<path d="M128.037 48.6146C128.037 48.6262 128.037 48.6495 128.037 48.6611C128.037 48.6727 128.037 48.6844 128.025 48.7076L127.886 49.4984C127.874 49.5682 127.839 49.6147 127.781 49.6728C127.723 49.7194 127.653 49.7426 127.595 49.7426H125.072C124.711 49.7426 124.444 49.8124 124.281 49.9636C124.106 50.1147 123.99 50.3938 123.92 50.8009L123.688 52.1266H127.025C127.083 52.1266 127.142 52.1498 127.176 52.1963C127.211 52.2429 127.235 52.2894 127.235 52.3359V52.3708V52.3824L127.072 53.2662C127.06 53.336 127.025 53.3941 126.967 53.4407C126.909 53.4872 126.839 53.5104 126.781 53.5104H123.443L123.176 55.1036C123.153 55.2548 123.141 55.3943 123.141 55.5106C123.141 55.7548 123.199 55.9177 123.327 56.0223C123.455 56.1154 123.664 56.1735 123.967 56.1735H126.49C126.618 56.1735 126.688 56.2433 126.688 56.3712V56.4177V56.4293L126.56 57.2201C126.537 57.3713 126.444 57.4527 126.269 57.476C126.176 57.4876 126.06 57.5108 125.92 57.5225C125.781 57.5457 125.583 57.569 125.327 57.5806C125.072 57.5922 124.862 57.6155 124.688 57.6271C124.513 57.6388 124.258 57.6388 123.885 57.6388C123.141 57.6388 122.548 57.476 122.106 57.162C121.653 56.848 121.432 56.3596 121.432 55.6851C121.432 55.4758 121.443 55.2897 121.478 55.1036L122.234 50.8009C122.327 50.2659 122.478 49.824 122.676 49.4868C122.874 49.1495 123.106 48.8937 123.385 48.7192C123.664 48.5448 123.967 48.4285 124.304 48.3704C124.641 48.3122 125.048 48.2773 125.525 48.2773C126.176 48.2773 126.653 48.289 126.955 48.3239C127.258 48.3587 127.549 48.3936 127.839 48.4518C127.967 48.4634 128.037 48.5216 128.037 48.6146Z" fill="black"/>
<path d="M133.038 48.2656V48.2889L132.922 49.0215C132.91 49.0913 132.875 49.1378 132.829 49.1727C132.782 49.2076 132.736 49.2308 132.689 49.2308H132.131C131.921 49.2308 131.759 49.2541 131.654 49.289C131.549 49.3239 131.468 49.3936 131.41 49.5099C131.352 49.6146 131.305 49.7774 131.27 49.9751L131.166 50.5798H132.352C132.491 50.5798 132.561 50.6496 132.561 50.7891V50.824L132.433 51.5683C132.422 51.638 132.387 51.6962 132.328 51.7427C132.27 51.7892 132.212 51.8125 132.142 51.8125H130.956L129.933 57.6154C129.84 58.162 129.677 58.5806 129.456 58.883C129.235 59.1737 128.968 59.3714 128.654 59.4528C128.34 59.5458 127.933 59.5923 127.456 59.5923C127.281 59.5923 127.037 59.5575 126.735 59.4993C126.688 59.4877 126.642 59.4761 126.607 59.4412C126.572 59.4063 126.549 59.3714 126.549 59.3249V59.3016L126.665 58.569C126.688 58.4294 126.758 58.3597 126.886 58.3597H127.444C127.747 58.3597 127.944 58.3131 128.061 58.2085C128.177 58.1154 128.258 57.9178 128.305 57.6154L129.328 51.8125L128.247 51.638C128.119 51.6148 128.049 51.545 128.049 51.4403V51.4055L128.142 50.8356C128.154 50.7659 128.189 50.7077 128.235 50.6612C128.282 50.6147 128.351 50.5914 128.421 50.5914H129.514L129.631 49.9867C129.712 49.5564 129.828 49.2076 129.968 48.9401C130.107 48.6726 130.282 48.4749 130.491 48.347C130.689 48.2191 130.921 48.1261 131.177 48.0795C131.433 48.033 131.747 48.0098 132.108 48.0098C132.282 48.0098 132.515 48.0447 132.829 48.1028C132.875 48.1028 132.922 48.1261 132.956 48.1609C133.015 48.1842 133.038 48.2191 133.038 48.2656Z" fill="black"/>
<path d="M134.666 57.6272C134.259 57.6272 133.899 57.5807 133.585 57.476C133.271 57.3713 132.992 57.2201 132.759 56.9992C132.527 56.7899 132.352 56.5224 132.224 56.22C132.108 55.9177 132.038 55.5572 132.038 55.1618C132.038 54.8827 132.061 54.6385 132.096 54.4175L132.236 53.65C132.433 52.5336 132.829 51.7196 133.41 51.2312C133.992 50.7427 134.771 50.4985 135.748 50.4985C136.539 50.4985 137.143 50.7311 137.55 51.1963C137.957 51.6614 138.167 52.2662 138.167 53.022C138.167 53.2314 138.143 53.464 138.108 53.7314L138.004 54.3245C137.969 54.5338 137.864 54.6385 137.713 54.6385H133.701C133.666 54.9176 133.643 55.092 133.643 55.1502C133.643 55.5107 133.748 55.7898 133.957 55.9758C134.166 56.1619 134.527 56.2549 135.038 56.2549C135.666 56.2549 136.387 56.127 137.225 55.8712C137.248 55.8595 137.283 55.8595 137.341 55.8595C137.422 55.8595 137.457 55.9061 137.457 55.9875C137.457 56.0224 137.457 56.0456 137.446 56.0689L137.306 56.8596C137.294 56.9411 137.271 56.9992 137.225 57.0457C137.19 57.0806 137.108 57.1387 136.98 57.1853C136.759 57.2783 136.55 57.3481 136.329 57.4062C136.108 57.4644 135.852 57.5225 135.538 57.569C135.248 57.6039 134.957 57.6272 134.666 57.6272ZM136.585 52.9872C136.585 52.6267 136.492 52.3592 136.306 52.1731C136.12 51.9871 135.864 51.894 135.515 51.894C134.631 51.894 134.096 52.4173 133.91 53.464H136.527C136.573 53.2779 136.585 53.1151 136.585 52.9872Z" fill="black"/>
<path d="M141.039 57.6271C140.69 57.6271 140.376 57.5689 140.097 57.4643C139.817 57.3596 139.562 57.1968 139.341 56.9758C139.12 56.7549 138.957 56.4991 138.852 56.22C138.736 55.9292 138.689 55.6152 138.689 55.2664C138.689 55.0919 138.713 54.8942 138.748 54.6384L138.957 53.4871C139.096 52.7429 139.329 52.1498 139.643 51.7079C139.957 51.266 140.329 50.952 140.771 50.7659C141.213 50.5798 141.701 50.4868 142.236 50.4868C142.771 50.4868 143.306 50.6147 143.818 50.8822C143.969 50.9636 144.039 51.045 144.039 51.1264C144.039 51.138 144.039 51.1613 144.039 51.1613C144.039 51.1729 144.039 51.1846 144.027 51.1962L143.876 51.9405C143.864 52.08 143.795 52.1498 143.678 52.1498C143.643 52.1498 143.609 52.1498 143.585 52.1381C142.957 51.9521 142.492 51.8707 142.178 51.8707C141.736 51.8707 141.387 51.987 141.132 52.2312C140.876 52.4754 140.69 52.894 140.585 53.4871L140.376 54.6384C140.341 54.8942 140.318 55.1036 140.318 55.2431C140.318 55.592 140.411 55.8478 140.585 56.0106C140.759 56.1734 141.039 56.2548 141.399 56.2548C141.76 56.2548 142.271 56.1618 142.922 55.9641C142.946 55.9525 142.981 55.9525 143.039 55.9525C143.12 55.9525 143.155 55.9874 143.155 56.0688C143.155 56.1037 143.155 56.1269 143.143 56.1618L143.004 56.9991C142.992 57.0805 142.957 57.1387 142.911 57.1852C142.864 57.2317 142.783 57.2782 142.678 57.3131C142.469 57.4061 142.225 57.4875 141.946 57.5457C141.655 57.6038 141.353 57.6271 141.039 57.6271Z" fill="black"/>
<path d="M148.795 50.7889V50.8238L148.679 51.5565C148.668 51.6262 148.633 51.6727 148.575 51.7309C148.516 51.7774 148.447 51.8007 148.388 51.8007H147.284L146.598 55.6732C146.563 55.8709 146.539 56.022 146.539 56.1034C146.539 56.2081 146.574 56.2779 146.632 56.3128C146.691 56.3476 146.807 56.3593 146.958 56.3593H147.609C147.76 56.3593 147.83 56.4058 147.83 56.5104V56.5453L147.691 57.3245C147.667 57.4524 147.574 57.5222 147.423 57.5454C147.063 57.6036 146.784 57.6268 146.574 57.6268C146.016 57.6268 145.586 57.5222 145.307 57.3129C145.028 57.1035 144.888 56.7547 144.888 56.2779C144.888 56.1267 144.911 55.929 144.946 55.6732L145.632 51.8007L144.504 51.6262C144.376 51.6146 144.307 51.5448 144.307 51.4169V51.382L144.4 50.8238C144.411 50.754 144.446 50.6959 144.493 50.6494C144.539 50.6029 144.609 50.5796 144.679 50.5796H145.842L146.028 49.5679C146.051 49.4283 146.144 49.3469 146.307 49.3237L147.493 49.126H147.551C147.667 49.126 147.726 49.1725 147.726 49.2772V49.312L147.493 50.5796H148.609C148.679 50.5796 148.726 50.6029 148.761 50.6378C148.772 50.6726 148.795 50.7192 148.795 50.7889Z" fill="black"/>
<path d="M151.179 50.789V50.8239L150.051 57.278C150.039 57.3478 150.004 57.4059 149.946 57.4641C149.888 57.5222 149.818 57.5455 149.749 57.5455H148.621C148.562 57.5455 148.516 57.5222 148.481 57.4873C148.446 57.4408 148.423 57.3943 148.423 57.3362V57.2896L149.563 50.8355C149.574 50.7657 149.609 50.7076 149.667 50.6611C149.725 50.6146 149.783 50.5913 149.853 50.5913H150.981C151.109 50.5797 151.179 50.6494 151.179 50.789ZM151.656 48.2771V48.312L151.458 49.3935C151.446 49.4633 151.412 49.5214 151.353 49.5679C151.295 49.6145 151.237 49.6377 151.167 49.6377H149.981C149.923 49.6377 149.876 49.6145 149.83 49.5796C149.783 49.5447 149.76 49.4865 149.76 49.4284V49.3819L149.958 48.3004C149.97 48.2306 150.004 48.1841 150.063 48.1259C150.121 48.0794 150.19 48.0562 150.249 48.0562H151.446C151.586 48.0678 151.656 48.1376 151.656 48.2771Z" fill="black"/>
<path d="M158.087 50.7428C158.087 50.7893 158.075 50.8358 158.064 50.8591L155.517 56.4759C155.331 56.8946 155.075 57.1853 154.773 57.3714C154.47 57.5458 154.133 57.6388 153.772 57.6388C152.958 57.6388 152.517 57.2551 152.447 56.4876L151.877 50.8591V50.8358C151.877 50.7661 151.9 50.7079 151.947 50.6498C151.993 50.5916 152.051 50.5684 152.11 50.5684H153.296C153.424 50.5684 153.493 50.6498 153.505 50.8126L153.772 55.9759C153.784 56.1852 153.842 56.2782 153.959 56.2782C154.063 56.2782 154.156 56.1736 154.238 55.9759L156.331 50.8126C156.389 50.6498 156.494 50.5684 156.622 50.5684H157.901C158.029 50.58 158.087 50.6265 158.087 50.7428Z" fill="black"/>
<path d="M163.703 52.9173C163.703 53.115 163.68 53.3243 163.645 53.5569L163.459 54.5454C163.075 56.5921 161.912 57.6154 159.982 57.6154C159.459 57.6154 159.005 57.4992 158.633 57.2782C158.261 57.0573 157.982 56.7549 157.796 56.3828C157.61 56.0106 157.517 55.592 157.517 55.1385C157.517 54.9175 157.528 54.7198 157.563 54.5454L157.749 53.5569C157.935 52.5335 158.319 51.766 158.912 51.2543C159.505 50.7427 160.273 50.4868 161.238 50.4868C161.796 50.4868 162.261 50.5915 162.633 50.8124C163.006 51.0334 163.285 51.3241 163.447 51.6846C163.622 52.0567 163.703 52.4754 163.703 52.9173ZM162.075 53.022C162.075 52.6498 161.982 52.3707 161.808 52.1847C161.633 51.9986 161.354 51.9056 160.994 51.9056C160.587 51.9056 160.249 52.0335 159.959 52.301C159.68 52.5684 159.482 52.9871 159.377 53.5802L159.191 54.5686C159.156 54.7431 159.145 54.9291 159.145 55.1152C159.145 55.8595 159.505 56.2316 160.226 56.2316C161.098 56.2316 161.633 55.6734 161.831 54.5686L162.017 53.5802C162.052 53.3941 162.075 53.208 162.075 53.022Z" fill="black"/>
<path d="M83.743 47.2775C80.7543 45.6495 78.1029 44.7075 76.5679 44.7075C76.1492 44.7075 75.8003 44.7773 75.5678 44.9285C74.2653 45.7658 73.4513 50.8361 73.7769 56.2436C74.0327 60.5463 74.87 62.8256 75.6026 63.1745C76.9051 63.8025 81.4753 62.0465 86.0107 59.1974C89.825 56.8018 91.5345 54.9179 91.5345 54.1155C91.5345 52.6851 88.1039 49.6848 83.743 47.2775Z" fill="#FFCC00"/>
<path d="M84.0798 46.661C82.4982 45.7888 77.1954 43.056 75.1952 44.3352C73.1833 45.6028 72.8228 52.1732 73.067 56.2783C73.1833 58.2785 73.6369 63.0115 75.2882 63.8139C75.5557 63.9419 75.8929 64 76.2999 64C78.6257 64 82.9169 61.9765 86.3824 59.8019C88.15 58.6971 92.2434 55.9178 92.2434 54.1269C92.2434 52.0802 88.0104 48.824 84.0798 46.661ZM85.9986 59.1972C81.4632 62.0463 76.893 63.8023 75.5906 63.1743C74.8696 62.8255 74.0206 60.5462 73.7648 56.2434C73.4508 50.8359 74.2648 45.7656 75.5673 44.9283C75.7999 44.7771 76.1371 44.7073 76.5674 44.7073C78.1024 44.7073 80.7539 45.6377 83.7425 47.2774C88.1151 49.673 91.534 52.6849 91.534 54.1153C91.534 54.9177 89.8246 56.8016 85.9986 59.1972Z" fill="white"/>
<path d="M84.0798 46.661C82.4982 45.7888 77.1954 43.056 75.1952 44.3352C73.1833 45.6028 72.8228 52.1732 73.067 56.2783C73.1833 58.2785 73.6369 63.0115 75.2882 63.8139C75.5557 63.9419 75.8929 64 76.2999 64C78.6257 64 82.9169 61.9765 86.3824 59.8019C88.15 58.6971 92.2434 55.9178 92.2434 54.1269C92.2434 52.0802 88.0104 48.824 84.0798 46.661ZM85.9986 59.1972C81.4632 62.0463 76.893 63.8023 75.5906 63.1743C74.8696 62.8255 74.0206 60.5462 73.7648 56.2434C73.4508 50.8359 74.2648 45.7656 75.5673 44.9283C75.7999 44.7771 76.1371 44.7073 76.5674 44.7073C78.1024 44.7073 80.7539 45.6377 83.7425 47.2774C88.1151 49.673 91.534 52.6849 91.534 54.1153C91.534 54.9177 89.8246 56.8016 85.9986 59.1972Z" fill="url(#paint3_linear_1209_7882)"/>
<path d="M85.0098 50.3821C84.2888 49.9402 83.2887 49.7192 81.9746 49.7192C80.7303 49.7192 79.6488 49.7774 78.7301 49.9053C78.5557 49.9286 78.4161 49.9751 78.3231 50.0332C78.23 50.0914 78.1603 50.196 78.1254 50.324L77.8695 51.5683H81.428L81.6141 50.417L83.9283 53.2429L80.707 56.0106L80.9164 54.7197H77.2299L76.1484 60.0808V60.0924V60.1389C76.1484 60.2087 76.1717 60.2668 76.2182 60.3017C76.2647 60.3482 76.3229 60.3599 76.4043 60.3599H78.044C78.1254 60.3599 78.2068 60.3366 78.2882 60.2785C78.358 60.2203 78.4045 60.1622 78.4277 60.0691L79.1836 56.8595C79.2418 56.8595 79.3348 56.8595 79.4511 56.8711C79.5674 56.8828 79.6953 56.8828 79.8232 56.8828C79.9512 56.8828 80.0907 56.8944 80.2419 56.8944C80.3931 56.906 80.521 56.906 80.6256 56.906C81.5327 56.906 82.3351 56.7665 83.0561 56.6269C85.2656 56.185 86.0797 53.9522 86.0913 52.2544C86.0797 51.452 85.7192 50.8124 85.0098 50.3821Z" fill="black"/>
<path d="M11.3562 55.613C11.3782 55.448 11.3452 55.338 11.1362 55.338H10.2232C10.0252 55.338 9.93721 55.415 9.91521 55.613L9.87121 56.031C9.81621 56.581 9.38721 56.856 8.65021 56.856C7.97921 56.856 7.61621 56.625 7.61621 56.163C7.61621 56.119 7.62721 56.042 7.63821 55.954L8.06721 52.489C8.13321 51.939 8.54021 51.664 9.27721 51.664C9.95921 51.664 10.3112 51.895 10.3112 52.335C10.3112 52.379 10.3112 52.456 10.3002 52.544L10.2672 52.753C10.2452 52.929 10.3002 53.028 10.4982 53.028H11.4222C11.6092 53.028 11.6862 52.951 11.7082 52.753L11.7632 52.291C11.7742 52.181 11.7852 52.082 11.7852 52.005C11.7852 51.169 11.1472 50.432 9.36521 50.432C7.33021 50.432 6.71421 51.301 6.60421 52.225L6.12021 56.218C6.10921 56.328 6.09821 56.427 6.09821 56.504C6.09821 57.34 6.72521 58.088 8.51821 58.088C10.5532 58.088 11.1802 57.219 11.2792 56.295L11.3562 55.613ZM16.7059 50.487C16.8379 50.333 16.8049 50.212 16.6069 50.212H15.6169C15.4299 50.212 15.3089 50.333 15.2099 50.487L14.5499 51.565C14.4289 51.763 14.4949 51.84 14.6599 51.84H15.3969C15.5839 51.84 15.7049 51.73 15.7709 51.653L16.7059 50.487ZM12.2399 56.46C12.2289 56.548 12.2289 56.592 12.2289 56.647C12.2289 57.527 12.9989 58.088 14.4619 58.088C16.1229 58.088 16.8709 57.45 16.9919 56.46L17.2889 54.051C17.2999 53.963 17.2999 53.919 17.2999 53.853C17.2999 52.984 16.5189 52.434 15.0669 52.434C13.4059 52.434 12.6469 53.072 12.5259 54.051L12.2399 56.46ZM15.5619 56.339C15.5069 56.757 15.1769 56.944 14.5609 56.944C13.9889 56.944 13.6919 56.812 13.6919 56.438C13.6919 56.416 13.6919 56.339 13.7029 56.251L13.9669 54.172C14.0219 53.765 14.3519 53.578 14.9679 53.578C15.4959 53.578 15.8369 53.71 15.8369 54.084C15.8369 54.117 15.8369 54.161 15.8259 54.271L15.5619 56.339ZM21.2959 57.714C21.2959 57.912 21.3289 58 21.5269 58H22.3739C22.5609 58 22.6599 57.912 22.6819 57.714L23.5509 50.597C23.5729 50.41 23.5179 50.311 23.3199 50.311H22.4069C22.2089 50.311 22.1209 50.399 22.0989 50.597L21.8129 53.028C21.5269 52.786 20.9219 52.434 20.1299 52.434C18.9859 52.434 18.5019 53.061 18.3809 54.04L18.0729 56.482C18.0619 56.581 18.0509 56.68 18.0509 56.768C18.0509 57.582 18.5569 58.088 19.5139 58.088C20.4379 58.088 20.9549 57.714 21.2959 57.472V57.714ZM19.7889 54.26C19.8329 53.963 19.9649 53.688 20.4709 53.688C20.9989 53.688 21.4609 54.018 21.6699 54.194L21.4059 56.339C21.1419 56.504 20.6139 56.834 20.0749 56.834C19.6569 56.834 19.5249 56.647 19.5249 56.416C19.5249 56.361 19.5359 56.284 19.5469 56.196L19.7889 54.26ZM26.0263 52.797C26.0483 52.599 25.9933 52.522 25.7953 52.522H24.8823C24.6843 52.522 24.6073 52.61 24.5853 52.797L23.9803 57.714C23.9583 57.912 24.0133 58 24.2113 58H25.1243C25.3223 58 25.3993 57.912 25.4213 57.714L26.0263 52.797ZM26.2903 50.597C26.3123 50.399 26.2683 50.311 26.0703 50.311H25.1573C24.9593 50.311 24.8713 50.399 24.8493 50.597L24.7393 51.543C24.7173 51.73 24.7723 51.807 24.9703 51.807H25.8833C26.0813 51.807 26.1583 51.73 26.1803 51.543L26.2903 50.597ZM28.2043 58.088C29.0953 58.088 29.6013 57.736 29.9423 57.505L29.8323 58.429C29.7883 58.836 29.5023 59.023 28.8533 59.023H27.3023C27.1153 59.023 27.0053 59.111 26.9833 59.309L26.9063 59.947C26.8843 60.123 26.9833 60.211 27.1593 60.211H28.7103C30.4373 60.211 31.1413 59.573 31.2623 58.594L31.9773 52.797C31.9993 52.632 31.9333 52.522 31.7353 52.522H30.8883C30.6903 52.522 30.6463 52.599 30.6023 52.797L30.5473 53.072C30.2613 52.819 29.6893 52.434 28.8093 52.434C27.6653 52.434 27.1923 53.061 27.0713 54.04L26.7633 56.482C26.7523 56.57 26.7413 56.669 26.7413 56.757C26.7413 57.571 27.2583 58.088 28.2043 58.088ZM28.4793 54.26C28.5123 53.963 28.6443 53.688 29.1613 53.688C29.6893 53.688 30.1403 54.018 30.3603 54.194L30.0963 56.339C29.8323 56.504 29.3043 56.834 28.7653 56.834C28.3363 56.834 28.2153 56.647 28.2153 56.405C28.2153 56.361 28.2263 56.262 28.2373 56.163L28.4793 54.26ZM32.7038 56.46C32.6928 56.548 32.6928 56.592 32.6928 56.647C32.6928 57.527 33.4628 58.088 34.9258 58.088C36.5868 58.088 37.3348 57.45 37.4558 56.46L37.7528 54.051C37.7638 53.963 37.7638 53.919 37.7638 53.853C37.7638 52.984 36.9828 52.434 35.5308 52.434C33.8698 52.434 33.1108 53.072 32.9898 54.051L32.7038 56.46ZM36.0258 56.339C35.9708 56.757 35.6408 56.944 35.0248 56.944C34.4528 56.944 34.1558 56.812 34.1558 56.438C34.1558 56.416 34.1558 56.339 34.1668 56.251L34.4308 54.172C34.4858 53.765 34.8158 53.578 35.4318 53.578C35.9598 53.578 36.3008 53.71 36.3008 54.084C36.3008 54.117 36.3008 54.161 36.2898 54.271L36.0258 56.339ZM40.8175 56.218C40.8065 56.328 40.7955 56.427 40.7955 56.493C40.7955 57.241 41.3455 57.912 42.6985 58.055L44.5135 59.936C44.6235 60.057 44.7665 60.035 44.8985 59.914L45.4485 59.397C45.5695 59.276 45.5915 59.144 45.4595 59.012L44.4255 57.978C45.6135 57.714 46.0755 57.021 46.1635 56.295L46.6475 52.302C46.6585 52.203 46.6585 52.093 46.6585 52.027C46.6585 51.191 45.9435 50.432 44.1505 50.432C42.1155 50.432 41.4115 51.301 41.3015 52.225L40.8175 56.218ZM44.6895 56.031C44.6235 56.581 44.1725 56.856 43.4245 56.856C42.7095 56.856 42.3135 56.625 42.3135 56.163C42.3135 56.119 42.3245 56.042 42.3355 55.954L42.7645 52.489C42.8305 51.939 43.3475 51.664 44.0405 51.664C44.7555 51.664 45.1515 51.895 45.1515 52.357C45.1515 52.401 45.1405 52.478 45.1295 52.566L44.6895 56.031ZM50.3381 55.151H50.3601L51.1301 57.714C51.1741 57.868 51.2071 58 51.3831 58H52.3291C52.5161 58 52.6701 57.89 52.6151 57.714L51.7901 54.964C52.7251 54.678 53.0991 54.073 53.1761 53.413L53.2861 52.456C53.2971 52.368 53.2971 52.269 53.2971 52.203C53.2971 51.301 52.5821 50.52 50.7781 50.52H48.5451C48.3581 50.52 48.2701 50.608 48.2481 50.806L47.3901 57.714C47.3571 57.945 47.4781 58 47.6321 58H48.5891C48.7871 58 48.8641 57.912 48.8861 57.714L49.1941 55.151H50.3381ZM50.7451 51.752C51.4821 51.752 51.8121 52.016 51.8121 52.5C51.8121 52.544 51.8121 52.61 51.8011 52.698L51.7351 53.149C51.6581 53.699 51.2071 53.919 50.4481 53.919H49.3481L49.6231 51.752H50.7451ZM58.1585 58C58.3015 58 58.3345 57.945 58.4005 57.802L60.7545 52.764C60.8205 52.621 60.7325 52.544 60.5785 52.544H59.9625C59.8195 52.544 59.7535 52.632 59.6985 52.764L58.2245 55.932C58.1035 56.185 57.9715 56.647 57.9495 56.724C57.9495 56.669 57.9275 56.218 57.8615 55.921L57.2015 52.764C57.1795 52.632 57.1465 52.544 57.0035 52.544H56.3545C56.2005 52.544 56.1015 52.632 56.1345 52.764L57.2345 57.802C57.2675 57.945 57.2895 58 57.4325 58H58.1585ZM63.8257 50.421C63.9247 50.3 63.9027 50.212 63.7487 50.212H63.0447C62.9017 50.212 62.8247 50.3 62.7477 50.41L61.9447 51.587C61.8567 51.719 61.9117 51.785 62.0327 51.785H62.5607C62.7037 51.785 62.8027 51.719 62.8467 51.653L63.8257 50.421ZM62.7477 52.764C62.7697 52.61 62.7257 52.544 62.5717 52.544H61.9337C61.7907 52.544 61.7247 52.621 61.7027 52.764L61.0867 57.791C61.0647 57.945 61.1197 58 61.2627 58H61.9007C62.0547 58 62.1097 57.934 62.1317 57.791L62.7477 52.764ZM66.975 57.78C66.975 57.945 67.03 58 67.151 58H67.745C67.888 58 67.954 57.934 67.976 57.78L68.592 52.764C68.614 52.599 68.526 52.544 68.416 52.544H67.833C67.679 52.544 67.635 52.61 67.602 52.764L67.536 53.116C67.25 52.863 66.656 52.456 65.754 52.456C64.643 52.456 64.159 53.05 64.049 53.952L63.719 56.592C63.708 56.68 63.697 56.768 63.697 56.845C63.697 57.604 64.181 58.088 65.116 58.088C66.04 58.088 66.645 57.692 66.997 57.45L66.975 57.78ZM65.072 54.106C65.127 53.721 65.369 53.391 65.985 53.391C66.678 53.391 67.184 53.776 67.404 53.963L67.074 56.592C66.81 56.768 66.194 57.153 65.512 57.153C64.962 57.153 64.764 56.911 64.764 56.592C64.764 56.537 64.764 56.493 64.775 56.438L65.072 54.106Z" fill="black"/>
<defs>
<radialGradient id="paint0_radial_1209_7882" cx="0" cy="0" r="1" gradientUnits="userSpaceOnUse" gradientTransform="translate(163.845 12.4323) rotate(-174.702) scale(14.8597 20.8754)">
<stop stop-color="#186DB2"/>
<stop offset="1" stop-color="#004A81"/>
</radialGradient>
<radialGradient id="paint1_radial_1209_7882" cx="0" cy="0" r="1" gradientUnits="userSpaceOnUse" gradientTransform="translate(156.334 28.852) rotate(27.9795) scale(12.7495 24.8323)">
<stop stop-color="#186DB2"/>
<stop offset="1" stop-color="#004A81"/>
</radialGradient>
<radialGradient id="paint2_radial_1209_7882" cx="0" cy="0" r="1" gradientUnits="userSpaceOnUse" gradientTransform="translate(93.3471 31.1717) scale(28.1626)">
<stop stop-color="#2882FA"/>
<stop offset="0.3452" stop-color="#17ABE7"/>
<stop offset="0.5975" stop-color="#09CCD7"/>
<stop offset="0.8512" stop-color="#00E2CD"/>
</radialGradient>
<linearGradient id="paint3_linear_1209_7882" x1="82.6217" y1="44" x2="82.6217" y2="64" gradientUnits="userSpaceOnUse">
<stop stop-color="white"/>
<stop offset="1" stop-color="white" stop-opacity="0"/>
</linearGradient>
</defs>
</svg>
