<?xml version="1.0" encoding="UTF-8"?>
<svg id="Capa_2" data-name="Capa 2" xmlns="http://www.w3.org/2000/svg" viewBox="0 0 29.12 29.12">
  <defs>
    <style>
      .cls-1 {
        fill: #e42528;
      }
    </style>
  </defs>
  <g id="Capa_1-2" data-name="Capa 1">
    <path class="cls-1" d="m23.38,7.92v-3.59L11.69,0,0,4.33v14.75l5.74,2.13v3.59l11.69,4.33,11.69-4.33v-14.75l-5.74-2.13Zm-5.63,6l-7.96-2.95,7.65-2.83,7.96,2.95-7.65,2.83Zm1.24-8.8l-7.27,2.7s-7.31-2.71-7.31-2.71l7.28-2.69,7.3,2.7ZM2.27,17.49V6.75l6.18,2.29-2.71,1v8.73l-3.47-1.29Zm5.74-4.74l8.53,3.16v10.46l-8.53-3.16v-10.46Zm10.81,13.43v-10.23l8.02-2.97v10.23l-8.02,2.97Zm-7.62-9.57c0,.79-.43,1.42-.97,1.42-1.28-.06-1.28-2.78,0-2.84.53,0,.97.64.97,1.42h0Zm2.05,3.07c0,.79-.43,1.42-.97,1.42-1.28-.06-1.28-2.78,0-2.84.53,0,.97.64.97,1.42h0Zm2.1,2.9c0,.79-.43,1.42-.97,1.42-1.28-.06-1.28-2.78,0-2.84.53,0,.97.64.97,1.42h0Zm10.07-5.46c0,.79-.43,1.42-.97,1.42-1.28-.06-1.28-2.78,0-2.84.53,0,.97.64.97,1.42h0Zm-6.65-6.26c0,.53-.64.97-1.42.97-1.88-.05-1.88-1.89,0-1.93.79,0,1.42.43,1.42.97h0Zm-8.36-5.8c0-.53.64-.97,1.42-.97,1.88.05,1.88,1.89,0,1.93-.79,0-1.42-.43-1.42-.97h0Zm11.77,17.01c0,.79-.43,1.42-.97,1.42-1.28-.06-1.28-2.78,0-2.84.53,0,.97.64.97,1.42h0Z"/>
  </g>
</svg>