<?xml version="1.0" encoding="UTF-8"?>
<svg id="Capa_2" data-name="Capa 2" xmlns="http://www.w3.org/2000/svg" viewBox="0 0 100 30.48">
  <defs>
    <style>
      .cls-1, .cls-2 {
        stroke-width: 0px;
      }

      .cls-2 {
        fill: #25b4b9;
      }
    </style>
  </defs>
  <g id="Capa_1-2" data-name="Capa 1">
    <g>
      <path class="cls-2" d="m88.93,19.7s-14.53-9.7-29.55-6.18c-.9.21-1.8.45-2.7.76,0,0-21.76,16.34-31.24-8.01l-9.87,1.64-2.78.46-2.15,3.95v5.81c1.4-1.29,3.26-2.1,5.32-2.1,4,0,7.27,2.99,7.79,6.84l.02-.08c5.56,6.44,14.98,1.17,23.8.19,8.82-.98,15.18,2.14,15.18,2.14h0s-.44,1.1-.44,1.1c.27-.56.64-1.26,1.15-2.03.03-.04.05-.08.08-.12,0-.05-.02-.11-.02-.16,0-4.36,3.53-7.89,7.89-7.89,1.63,0,3.14.49,4.4,1.34,3.5-.24,7.81.34,13.13,2.31,0,0,0,0,0,0Zm-60.9,4.23l-3.56-3.6h1.54l3.85,3.6h-1.83Zm3.87,0l-3.56-3.6h1.54l3.85,3.6h-1.83Zm3.65,0l-3.56-3.6h1.54l3.85,3.6h-1.83Zm57.91,4.23c-.25-.34-.56-.75-.94-1.19-2.02-2.36-5.85-5.66-11.33-5.39v7.07h12.62c-.1-.14-.21-.31-.34-.49ZM14,6.03h5.49L14.28,0H0l5.2,6.03h8.8Z"/>
      <path class="cls-1" d="m15.56,7.91l-1.56-1.88h-3.05l1.82,2.34,2.78-.46Zm47.88,16.3s.06-.06.08-.09c0-.01,0-.02,0-.03-.03.04-.05.08-.08.12Zm25.48-4.52c-5.31-1.97-9.62-2.55-13.13-2.31,2.1,1.42,3.49,3.82,3.49,6.55,0,.93-.19,1.8-.48,2.63.16.14.32.27.48.42v1.19h1.9v-6.58c5.49-.27,9.31,3.03,11.33,5.39.38.44.69.85.94,1.19h6.54v-1.19s-4.55-3.69-11.08-7.28Zm-32.24-5.41c.9-.31,1.8-.55,2.7-.76-12.13,1.18-27.38,2.92-28.34-8.17l-5.6.93c9.49,24.35,31.24,8.01,31.24,8.01Zm-46.05,3.85v-5.81H3.16v10.69l5.27,3.22c-.22-.73-.38-1.49-.38-2.3,0-2.3,1-4.35,2.57-5.8Zm26.75,5.8l-3.85-3.6h-1.54l3.56,3.6h1.83Zm-9.04-3.6l3.56,3.6h1.83l-3.85-3.6h-1.54Zm1.52,3.6l-3.85-3.6h-1.54l3.56,3.6h1.83Zm17.69-.94c-8.82.98-18.23,6.25-23.8-.19l-.02.08c.05.35.11.69.11,1.05,0,1.08-.22,2.11-.61,3.04-.09.21-.21.39-.32.6-.11.2-.2.41-.32.6h39.16v-.6l.53-1.33.44-1.09h0s-6.36-3.13-15.18-2.15Zm33.63,5.66v1.19h13v-1.19h-13ZM15.94,17.38c-2.2,0-4.13,1.09-5.32,2.75-.77,1.07-1.23,2.38-1.23,3.8,0,1.3.39,2.5,1.04,3.52,1.16,1.82,3.19,3.03,5.51,3.03,2,0,3.76-.91,4.96-2.32.17-.19.34-.38.48-.6.13-.19.22-.4.32-.6.48-.91.78-1.94.78-3.04,0-3.62-2.93-6.55-6.55-6.55Zm0,9.48c-1.62,0-2.93-1.31-2.93-2.93s1.31-2.93,2.93-2.93,2.93,1.31,2.93,2.93-1.31,2.93-2.93,2.93Zm57.39-9.16c-.62-.19-1.26-.33-1.94-.33-2.99,0-5.48,2.01-6.27,4.74-.07.24-.14.49-.18.74-.06.35-.11.7-.11,1.07,0,3.62,2.93,6.55,6.55,6.55,3.03,0,5.55-2.06,6.3-4.86.15-.55.25-1.11.25-1.7,0-2.94-1.95-5.39-4.61-6.23Zm-1.94,9.16c-1.62,0-2.93-1.31-2.93-2.93,0-.91.44-1.7,1.1-2.23.51-.41,1.13-.7,1.83-.7,1.37,0,2.47.96,2.79,2.24.06.23.14.44.14.69,0,1.62-1.31,2.93-2.93,2.93Z"/>
    </g>
  </g>
</svg>