<?xml version="1.0" encoding="UTF-8"?>
<svg id="Capa_2" data-name="Capa 2" xmlns="http://www.w3.org/2000/svg" viewBox="0 0 100 54.72">
  <defs>
    <style>
      .cls-1 {
        fill: #909090;
        fill-rule: evenodd;
        stroke-width: 0px;
      }
    </style>
  </defs>
  <g id="Layer_1" data-name="Layer 1">
    <path class="cls-1" d="m2.77,48.39c3.51.6,2.91.05,2.82-2.7-.02-.68-.02-1.38-.02-2.1,0-7.99,6.48-14.47,14.47-14.47s14.47,6.48,14.47,14.47c0,1.09-.02,2.15-.13,3.18-.34,3.38.32,3.08,2.81,3.38l25.78.06c3.42-.18,2.31.19,2.06-3.37-.07-1.04-.08-2.13-.08-3.25,0-7.99,6.48-14.47,14.47-14.47,7.99,0,14.47,6.48,14.47,14.47,0,.81-.01,1.61-.06,2.37-.14,2.25.37,2.16,2.05,2.47l3.46-.11c1.87-.06-1.01-1.08-.51-2.83.67-2.38.45-4.1.48-6.5.02-1.53-.27-2.67-1.5-2.77-.09-.21,1.22-3.99-.39-7.5-1.03-2.24-6.11-7.27-8.21-8.72-4.29-2.95-13.95-10.45-22.66-15.95-1.99-1.25-3.09-1.61-4.97-2.32C58.5.58,54.19-.06,49.85.08c-10.47.33-25.09-.51-34.8.24-.94.07.63,1.1-.69,3.26-2.43,3.96-7.81,9.81-9.18,16-1.5,6.78-1.75,12.67-1.96,15.72-.02.23-.72.12-1.42.21-2.23.29-1.76.96-1.78,2.93-.02,3.53.23,9.52,2.74,9.95h0Zm64.66-28.23c.08.31-29.56-.8-36.03-.85-1.64-.01-2.46-.31-2.6-1.93-.3-3.4,1.35-8.7,3.1-12.42.31-.66.81-1.56,1.67-1.55,4.98.11,21.5-.4,26.15,1.16,5.64,1.95,9.25,7.17,13.5,11.14-2.19-.14-6.43,0-6.31,1.93.07,1.14.45,2.23.52,2.52h0Zm-47.39,12.3c6.15,0,11.13,4.98,11.13,11.13s-4.99,11.13-11.13,11.13c-6.15,0-11.13-4.98-11.13-11.13,0-6.15,4.98-11.13,11.13-11.13h0Zm59.4,0c6.15,0,11.13,4.98,11.13,11.13,0,6.15-4.99,11.13-11.13,11.13s-11.13-4.98-11.13-11.13c0-6.15,4.98-11.13,11.13-11.13h0ZM23.35,3.34c-5.61.02-11.37,7.86-12.95,12.36-.77,2.18-.5,2.64,1.65,2.84,1.06.1,4.53.13,5.2.09,3.96-.28,4.41.22,5.78-1.57,1.48-1.92,2.56-6.52,4.05-11.35.46-1.49,1.1-2.14-.22-2.33-.67-.1-2.47.03-3.5-.03h0Z"/>
  </g>
</svg>