<?xml version="1.0" encoding="UTF-8"?>
<svg id="Capa_2" data-name="Capa 2" xmlns="http://www.w3.org/2000/svg" viewBox="0 0 100 33.45">
  <defs>
    <style>
      .cls-1, .cls-2, .cls-3 {
        stroke-width: 0px;
      }

      .cls-2 {
        fill: red;
      }

      .cls-3 {
        fill: #fff;
      }
    </style>
  </defs>
  <g id="Capa_1-2" data-name="Capa 1">
    <g>
      <g>
        <path class="cls-3" d="m79.85,32.84c-1,0-1.84-.69-2.07-1.62-1.06-.12-1.88-1.03-1.88-2.12v-.22c-.45-.57-.59-1.34-.34-2.04.23-.64.34-1.22.34-1.8,0-1.81-.9-3.49-2.4-4.5-.9-.61-1.94-.92-3.02-.92-2.96,0-5.37,2.38-5.42,5.33,0,.06.01.12.01.16.02.55-.17,1.12-.54,1.54-.36.54-.67,1.14-.84,1.51l-.31.78v.16c0,1.18-.96,2.13-2.13,2.13H23.75c-.78,0-1.49-.42-1.87-1.1-.38-.68-.35-1.51.06-2.17.05-.08.37-.69.37-.69.35-.8.5-1.5.5-2.22,0-.19-.03-.36-.06-.54-.39-2.86-2.68-4.88-5.36-4.88-1.34,0-2.63.51-3.65,1.45-1.14,1.05-1.77,2.46-1.77,3.98,0,.47.09.97.27,1.57.26.85-.03,1.77-.73,2.31-.38.3-.84.45-1.31.45-.38,0-.77-.1-1.11-.31l-5.05-3.08c-.63-.39-1.02-1.08-1.02-1.82v-10.23c0-1.18.96-2.13,2.13-2.13h5.88l.79-1.44-.25-.32h-4.47c-.62,0-1.21-.27-1.62-.74L.52,3.53C-.03,2.89-.15,2,.19,1.24.54.49,1.3,0,2.13,0h13.67c.62,0,1.21.27,1.61.74,0,0,5.06,5.86,5.09,5.9l8.98-1.49c.12-.02.23-.03.35-.03.47,0,.93.16,1.31.45.47.36.77.91.82,1.5.27,3.12,1.96,6.71,12.73,6.71,3.63,0,7.52-.38,11.28-.74l.65-.06c2.2-.5,4.52-.76,6.89-.76,11.99,0,22.15,6.5,22.89,6.98.01,0,.02.01.03.02,6.2,3.4,10.59,6.94,10.77,7.09.5.4.79,1.01.79,1.66v1.14c0,1.18-.96,2.13-2.13,2.13h-3.5c-.23.92-1.07,1.61-2.07,1.61h-12.44Z"/>
        <path class="cls-3" d="m97.87,27.95s-4.35-3.53-10.61-6.97c0,0,0,0,0,0,0,0-13.91-9.29-28.29-5.91-11.61,1.13-26.21,2.79-27.13-7.82l-5.36.89-9.45,1.57-1.49-1.8h5.26l-4.99-5.78H2.13l4.98,5.78h5.51l1.74,2.24-2.06,3.78h-7.14v10.23l5.05,3.08c-.21-.7-.36-1.43-.36-2.2,0-2.2.96-4.17,2.46-5.55,1.34-1.24,3.12-2.01,5.09-2.01,3.83,0,6.96,2.86,7.45,6.55.04.33.1.66.1,1.01,0,1.03-.21,2.02-.59,2.91-.08.2-.2.38-.3.57-.1.19-.19.39-.31.57h37.49v-.57l.51-1.27c.25-.54.61-1.21,1.11-1.94.03-.03.05-.06.08-.09,0-.01,0-.02,0-.03,0-.05-.02-.1-.02-.15,0-4.17,3.38-7.56,7.55-7.56,1.56,0,3.01.47,4.21,1.29,2.02,1.36,3.34,3.66,3.34,6.27,0,.89-.18,1.72-.46,2.51.15.14.3.26.46.4v1.14h1.82v1.61h12.44v-1.14h-.36c-.09-.14-.2-.29-.33-.47h6.26v-1.14Z"/>
        <path class="cls-3" d="m17.4,33.45c-2.87,0-5.51-1.45-7.07-3.89-.87-1.36-1.33-2.93-1.33-4.52,0-1.75.55-3.44,1.58-4.88,1.58-2.21,4.13-3.52,6.83-3.52,4.64,0,8.41,3.77,8.41,8.41,0,1.34-.34,2.66-1,3.91-.17.34-.29.56-.42.76-.15.23-.33.45-.52.66-1.71,2-4.03,3.08-6.47,3.08Zm0-9.08c-.37,0-.67.3-.67.67s.3.67.67.67.67-.3.67-.67-.3-.67-.67-.67Z"/>
        <path class="cls-3" d="m17.4,18.77c-2.1,0-3.95,1.04-5.09,2.63-.74,1.03-1.18,2.28-1.18,3.64,0,1.24.37,2.4,1,3.37,1.11,1.74,3.05,2.9,5.28,2.9,1.91,0,3.6-.87,4.75-2.22.16-.19.33-.37.46-.57.12-.18.21-.38.31-.57.46-.87.75-1.86.75-2.91,0-3.47-2.81-6.27-6.27-6.27Zm0,9.08c-1.55,0-2.8-1.26-2.8-2.8s1.26-2.8,2.8-2.8,2.8,1.26,2.8,2.8-1.26,2.8-2.8,2.8Z"/>
        <path class="cls-3" d="m70.48,33.45c-4.63,0-8.41-3.77-8.41-8.41,0-.47.06-.92.13-1.37.06-.33.14-.65.23-.96,1.03-3.58,4.34-6.08,8.05-6.08.8,0,1.62.13,2.5.41,3.53,1.1,5.91,4.32,5.91,8,0,.69-.1,1.39-.31,2.18-.99,3.67-4.32,6.23-8.09,6.23Zm0-9.08c-.12,0-.25.06-.4.18-.18.15-.27.31-.27.49,0,.37.3.67.67.67s.67-.3.67-.67c-.13-.39-.32-.67-.67-.67Z"/>
        <path class="cls-3" d="m72.34,19.08c-.59-.19-1.21-.31-1.86-.31-2.86,0-5.24,1.92-6,4.54-.07.23-.13.47-.17.71-.06.34-.1.67-.1,1.03,0,3.47,2.81,6.27,6.27,6.27,2.9,0,5.32-1.98,6.03-4.65.14-.52.24-1.06.24-1.62,0-2.81-1.86-5.16-4.41-5.96Zm-1.86,8.77c-1.55,0-2.8-1.26-2.8-2.8,0-.88.42-1.62,1.05-2.14.48-.4,1.08-.67,1.75-.67,1.32,0,2.37.92,2.67,2.14.05.22.13.43.13.66,0,1.55-1.26,2.8-2.8,2.8Z"/>
      </g>
      <g>
        <path class="cls-2" d="m87.27,20.99s-13.91-9.29-28.29-5.91c-.86.2-1.72.43-2.58.73,0,0-20.83,15.65-29.91-7.67l-9.45,1.57-2.67.44-2.06,3.78v5.56c1.34-1.24,3.12-2.01,5.09-2.01,3.83,0,6.96,2.86,7.45,6.55l.02-.07c5.33,6.17,14.34,1.12,22.78.18,8.44-.94,14.53,2.05,14.53,2.05h0s-.42,1.06-.42,1.06c.25-.54.61-1.21,1.11-1.94.03-.04.05-.08.08-.12,0-.05-.02-.1-.02-.15,0-4.17,3.38-7.56,7.55-7.56,1.56,0,3.01.47,4.21,1.29,3.35-.23,7.48.33,12.57,2.21,0,0,0,0,0,0Zm-58.3,4.05l-3.41-3.45h1.47l3.69,3.45h-1.75Zm3.7,0l-3.41-3.45h1.47l3.69,3.45h-1.75Zm3.49,0l-3.41-3.45h1.47l3.69,3.45h-1.75Zm55.44,4.05c-.24-.33-.54-.72-.9-1.14-1.93-2.26-5.6-5.42-10.85-5.16v6.77h12.08c-.09-.14-.2-.29-.33-.47ZM15.54,7.91h5.26l-4.99-5.78H2.13l4.98,5.78h8.43Z"/>
        <path class="cls-1" d="m17.03,9.71l-1.49-1.8h-2.92l1.74,2.24,2.67-.44Zm45.83,15.6s.05-.06.08-.09c0-.01,0-.02,0-.03-.03.04-.05.08-.08.12Zm24.39-4.33c-5.09-1.89-9.21-2.44-12.57-2.21,2.02,1.36,3.34,3.66,3.34,6.27,0,.89-.18,1.72-.46,2.51.15.14.3.26.46.4v1.14h1.82v-6.3c5.25-.26,8.92,2.9,10.85,5.16.36.42.66.81.9,1.14h6.26v-1.14s-4.35-3.53-10.61-6.97Zm-30.87-5.18c.86-.3,1.72-.53,2.58-.73-11.61,1.13-26.21,2.79-27.13-7.82l-5.36.89c9.08,23.31,29.91,7.67,29.91,7.67Zm-44.09,3.69v-5.56h-7.14v10.23l5.05,3.08c-.21-.7-.36-1.43-.36-2.2,0-2.2.96-4.17,2.46-5.55Zm25.61,5.55l-3.69-3.45h-1.47l3.41,3.45h1.75Zm-8.65-3.45l3.41,3.45h1.75l-3.69-3.45h-1.47Zm1.46,3.45l-3.69-3.45h-1.47l3.41,3.45h1.75Zm16.94-.9c-8.44.94-17.45,5.98-22.78-.18l-.02.07c.04.33.1.66.1,1.01,0,1.03-.21,2.02-.59,2.91-.08.2-.2.38-.3.57-.1.19-.19.39-.31.57h37.49v-.57l.51-1.27.42-1.05h0s-6.08-3-14.53-2.06Zm32.2,5.42v1.14h12.44v-1.14h-12.44Zm-62.46-10.8c-2.1,0-3.95,1.04-5.09,2.63-.74,1.03-1.18,2.28-1.18,3.64,0,1.24.37,2.4,1,3.37,1.11,1.74,3.05,2.9,5.28,2.9,1.91,0,3.6-.87,4.75-2.22.16-.19.33-.37.46-.57.12-.18.21-.38.31-.57.46-.87.75-1.86.75-2.91,0-3.47-2.81-6.27-6.27-6.27Zm0,9.08c-1.55,0-2.8-1.26-2.8-2.8s1.26-2.8,2.8-2.8,2.8,1.26,2.8,2.8-1.26,2.8-2.8,2.8Zm54.94-8.77c-.59-.19-1.21-.31-1.86-.31-2.86,0-5.24,1.92-6,4.54-.07.23-.13.47-.17.71-.06.34-.1.67-.1,1.03,0,3.47,2.81,6.27,6.27,6.27,2.9,0,5.32-1.98,6.03-4.65.14-.52.24-1.06.24-1.62,0-2.81-1.86-5.16-4.41-5.96Zm-1.86,8.77c-1.55,0-2.8-1.26-2.8-2.8,0-.88.42-1.62,1.05-2.14.48-.4,1.08-.67,1.75-.67,1.32,0,2.37.92,2.67,2.14.05.22.13.43.13.66,0,1.55-1.26,2.8-2.8,2.8Z"/>
      </g>
    </g>
  </g>
</svg>