<?xml version="1.0" encoding="UTF-8"?>
<svg id="Capa_2" data-name="Capa 2" xmlns="http://www.w3.org/2000/svg" viewBox="0 0 29.2 29.19">
  <defs>
    <style>
      .cls-1 {
        fill: #a2a2a2;
      }
    </style>
  </defs>
  <g id="Capa_1-2" data-name="Capa 1">
    <g>
      <path class="cls-1" d="m12.78,0c.4.05.81.09,1.21.16,4.92.88,8.25,3.68,9.74,8.43,2.03,6.47-1.59,13.23-8.07,15.16-6.5,1.94-13.15-1.65-15.11-8.05-.27-.86-.34-1.78-.5-2.68-.02-.08-.03-.17-.05-.25,0-.42,0-.84,0-1.25.02-.08.03-.17.05-.25.16-.88.21-1.81.49-2.65C2.12,3.9,5.36,1.05,10.28.16,10.69.09,11.11.05,11.52,0c.42,0,.84,0,1.25,0ZM3.15,12.15c.02,4.98,4.07,9.01,9.01,8.97,4.99-.04,8.97-4.03,8.96-8.98,0-4.96-4.01-8.96-8.97-8.98-4.94-.02-9.01,4.06-9,8.99Z"/>
      <path class="cls-1" d="m19.36,23.18c1.56-1.04,2.78-2.26,3.77-3.74.08.07.15.13.22.19,1.66,1.66,3.32,3.31,4.98,4.97.94.94,1.12,2.15.51,3.28-.73,1.35-2.68,1.73-3.87.76-.18-.14-.35-.3-.51-.46-1.59-1.59-3.18-3.19-4.77-4.78-.08-.08-.19-.13-.32-.23Z"/>
      <path class="cls-1" d="m5.55,12.36c.07-.3.1-.62.21-.91.18-.46.64-.61,1.08-.37.73.4,1.09,1.07,1.38,1.82.25.66.47,1.34.81,1.97.59,1.1,1.51,1.9,2.52,2.58.51.34,1.04.66,1.56,1,.12.08.2.23.3.35-.14.07-.28.19-.43.2-.82.08-1.6-.13-2.36-.41-1.58-.58-2.92-1.49-3.88-2.9-.68-1-1.08-2.1-1.17-3.33Z"/>
    </g>
  </g>
</svg>