<?xml version="1.0" encoding="UTF-8"?>
<svg id="Capa_2" data-name="Capa 2" xmlns="http://www.w3.org/2000/svg" viewBox="0 0 52.24 26.69">
  <defs>
    <style>
      .cls-1 {
        fill: #e42528;
      }
    </style>
  </defs>
  <g id="Capa_1-2" data-name="Capa 1">
    <g>
      <path class="cls-1" d="m32.01,2.12h-.1C28.33-.2,23.92-.2,20.33,2.12h-.1V0h-5.05v10.12h5.05v-2.95h11.79c-3.22,2.52-5.61,4.8-7.34,7.17-2.62,3.58-4.02,7.9-4.02,12.34h9.6v-5.05c0-4.05,1.81-7.89,4.93-10.48l1.89-1.56V0h-5.05v2.12Z"/>
      <path class="cls-1" d="m49.01,10.95h-.06c-2.3-1.48-5.13-1.48-7.42,0h-.06v-1.36h-3.24v6.49h3.24v-1.89h7.55c-2.07,1.62-3.6,3.07-4.7,4.59-1.68,2.29-2.58,5.06-2.58,7.91h6.15v-3.24c0-2.6,1.16-5.06,3.16-6.71l1.21-1v-6.15h-3.24v1.36Z"/>
      <path class="cls-1" d="m10.79,10.95h-.06c-2.3-1.48-5.13-1.48-7.42,0h-.06v-1.36H0v6.49h3.24v-1.89h7.55c-2.07,1.62-3.6,3.07-4.7,4.59-1.68,2.29-2.58,5.06-2.58,7.91h6.15v-3.24c0-2.6,1.16-5.06,3.16-6.71l1.21-1v-6.15h-3.24v1.36Z"/>
    </g>
  </g>
</svg>