<?xml version="1.0" encoding="UTF-8"?>
<svg id="Capa_2" data-name="Capa 2" xmlns="http://www.w3.org/2000/svg" viewBox="0 0 844.35 795.73">
  <defs>
    <style>
      .cls-1 {
        fill: #ed1c24;
      }

      .cls-1, .cls-2 {
        stroke-width: 0px;
      }
    </style>
  </defs>
  <g id="Capa_1-2" data-name="Capa 1">
    <g>
      <path class="cls-2" d="m794.86,428.34c9.33-13.33,13.42-28.43,13.54-44.43.09-12.61-1.18-25.22-1.54-37.85-.2-7.26-.24-14.58.48-21.78.61-6.1,3.95-11.01,9.94-13.4,8.37-3.33,16.89-2.05,25.36-.31.43.09.72.85,1.71,2.08-2.05-.07-3.21-.09-4.37-.15-5.16-.28-10.35-1.07-15.47-.76-8.55.53-13.45,5.04-14.79,13.44-.76,4.76-.81,9.68-.67,14.51.39,13.73.89,27.47,1.64,41.19.74,13.6-2.13,26.41-7.78,38.64-4.51,9.75-10.48,18.62-20.61,23.05-4.81,2.11-5.16,4.72-5.11,9.16.43,38.87.7,77.73.76,116.6,0,7.67-1.32,9-8.96,8.73-13.58-.48-27.26-.9-40.68-2.84-34.14-4.95-68.19-10.53-102.21-16.28-16.59-2.81-32.97-6.85-49.54-9.81-20.55-3.67-38.98-30.29-31.64-53.84,4.34-13.91,9.17-27.67,13.93-41.44,5.51-15.92,11.18-31.78,16.81-47.65,1.41-3.99.21-6.55-3.91-7.74-10.24-2.96-20.48-5.94-30.56-8.86-2.42,3.66-4.4,6.99-6.71,10.08-8.98,12.03-15.17,25.3-17.58,40.13-1.51,9.26-2.25,18.66-3.7,27.93-.42,2.71-2.13,5.21-3.49,8.38,6.41,2.05,8.33,8.9,10.6,15.46,2.49,7.19,5.12,14.35,7.28,21.64,1.45,4.89,4,6.9,9.16,5.78,4.19-.9,6.68.93,7.49,5.36.99,5.4,2.12,10.81,3.68,16.06,5.03,16.95,9.71,33.92,10.68,51.73.49,8.88,3.45,17.05,8.74,24.39,1.75,2.43,3.08,5.39,3.76,8.3,1.52,6.46-.76,9.95-7.3,11-24.32,3.87-48.63,7.79-73.01,11.23-31.12,4.39-62.31,8.28-93.45,12.56-3.98.55-5.58-.74-6.39-4.48-1.11-5.14-1.86-10,.35-15.19,1.29-3.01,1.61-6.65,1.54-9.98-.14-7.12-.64-14.24-1.29-21.33-1.19-12.9-2.69-25.78-3.83-38.69-.29-3.31.85-6.8.31-10.03-.75-4.43,3.85-14.97,8.02-16.57.33-.13.85.25,1.31.4-1.12,4.2-2.2,8.27-3.44,12.95,2.25-.18,4.28-.28,6.31-.51,12.55-1.42,25.1-2.92,37.66-4.26,1.73-.18,3.54.38,5.31.6-.04.46-.07.91-.11,1.37-14.8,1.65-29.59,3.33-44.39,4.95-7.66.84-8.71,1.99-8.53,9.92.03,1.13.17,2.26.28,3.39,1.64,17.41,3.54,34.81,4.78,52.25.39,5.53-1.02,11.19-1.49,16.8-.31,3.77-.54,7.55-.59,11.32-.06,4.18,2.27,4.88,6.05,4.35,16.2-2.28,32.46-4.13,48.65-6.47,38.15-5.5,76.28-11.14,114.41-16.85,6.45-.97,8.03-3.92,5.92-10.2-.61-1.81-1.62-3.55-2.76-5.09-6.12-8.21-8.95-17.58-9.52-27.64-.94-16.49-5.35-32.22-9.94-47.93-.76-2.6-1.89-3.07-4.53-2.68-26.59,3.96-53.21,7.76-79.83,11.54-1.69.24-3.45-.1-5.18-.17-.02-.53-.04-1.06-.06-1.59,28.98-4.07,57.95-8.15,87.75-12.33-1.36-3.63-2.11-6.08-3.18-8.37-1.74-3.71-6.86-4.66-9.47-1.56-5.47,6.5-12.96,9.26-20.73,10.75-13.35,2.56-26.86,4.27-40.31,6.3-1.15.17-2.36-.02-3.54-.04-.08-.43-.15-.86-.23-1.3,1.49-.42,2.96-.98,4.48-1.23,13.27-2.12,26.59-3.97,39.81-6.37,6.06-1.1,11.71-3.66,16.56-7.46-.15-.42-.31-.83-.46-1.25-29.39,3.01-58.78,6.02-88.17,9.04-.09-.79-.17-1.59-.26-2.38,30.18-3.19,60.37-6.37,90.55-9.56.12-.53.23-1.06.35-1.59-6.18.13-7.54-4.3-9.09-8.58-1.33-3.65-2.7-7.29-4.07-10.92-1.63-4.33-3.28-8.65-5.39-14.2-1.09,2.86-1.66,4.47-2.3,6.05-2.14,5.22-4.7,5.67-8.5,1.49-.98-1.08-1.75-2.34-2.73-3.41-1.72-1.89-3.52-3.7-5.28-5.54-.45.27-.88.55-1.33.82.17,2.18.26,4.36.51,6.53.39,3.38,1.17,6.73,1.2,10.1.01,1.69-1.28,3.4-1.98,5.09-1.48-1.03-3.38-1.76-4.37-3.14-2.63-3.68-4.59-7.85-7.34-11.43-4.32-5.62-7.26-5.07-9.58,1.72-1.57,4.59-2.45,9.41-4.01,14.01-.67,1.96-2.28,3.6-3.47,5.38-1.12-1.77-2.61-3.4-3.28-5.32-1.33-3.81-1.98-7.86-3.34-11.66-1.8-5.04-4.15-5.63-7.52-1.41-4.54,5.67-8.32,11.93-12.57,17.83-1.04,1.45-2.64,2.5-3.98,3.73-1.05-1.68-2.53-3.24-3.05-5.08-1.22-4.27-1.97-8.67-3.03-13.53-2.15,3.89-3.15,8.13-5.81,9.97-4.45,3.08-5.32-3.48-9.15-5.32-.8,10.18-1.55,19.8-2.26,28.77-1.42.36-2.64.67-4.64,1.18-.15-9.92-.5-19.58-.35-29.24.07-4.46.61-9.26,5.37-9.66.5-4.05.4-7.5,1.43-10.57,1.7-5.05,4.09-9.87,6.26-14.75,1.15-2.58.88-4.17-1.27-6.67-13.66-15.83-16.1-22.73-5.14-34.9.06-.07-.03-.28-.13-.91-1.38,1.19-2.43,2.54-3.81,3.14-1.41.62-3.51,1.21-4.67.6-7-3.65-15.11-18.93-12.36-26.38,2.71-7.35,1.29-13.2-1.6-19.55-.72-1.59-.89-3.44-1.2-5.19-1.12-6.26-1-12.07,5.95-15.04-1.19-2.07-2.53-3.73-3.18-5.64-3.17-9.27,1.64-17.57,11.89-19.38,5.89-1.04,12.04-.58,17.94-.79-3.27-6.78-2.53-10.12,4.04-14.94,3.91-2.87,8.12-5.34,12.18-8.01,1.2-.79,2.36-1.64,4.32-3.01-8.8.88-16.33,1.84-23.89,2.34-7.95.53-14.62-2.07-19.35-8.88-1.56-2.25-3.54-4.21-5.34-6.3-10.35-12.04-21.05-23.8-30.95-36.2-9.72-12.18-21.42-22.99-27.79-38.08-1.52,3.69.85,9.59-5,10.35-5.77.75-8.18-4.28-11.2-8.03-2.75-3.41-.8-5.84,1.92-8.2-2.41-2.21-4.55-4.18-6.69-6.15-20.74-19.12-41.09-38.58-58.51-60.91-13.93-17.86-23.72-37.44-26.75-60.08-1.29-9.63-.93-19.12,3.7-27.97,8.27-15.82,28.36-18.01,37.85-4.17,2.8,4.09,4.37,8.59,2.07,13.26-2.4,4.88-7.17,6.88-12.21,6.33-5.18-.57-6.47,2.93-7.94,6.13-1.71,3.72,1.36,5.72,3.95,7.32,9.16,5.66,19.23,8.39,29.97,8.71.49.01.99-.5,2.4-1.27-3.45-.8-5.98-1.23-8.42-1.97-6.95-2.11-13.97-4.1-20.74-6.7-1.62-.62-3.51-3.59-3.24-5.15.26-1.52,2.91-3.2,4.82-3.78,3.22-.98,6.74-.95,10.04-1.71,4.09-.94,7.69-2.74,8.69-7.42,2.86-13.5-9.96-29.05-23.77-28.25-12.18.7-21.52,6.58-27.3,17.54-4.91,9.31-9.37,18.87-14.55,28.03-12.69,22.44-32.03,35.07-57.82,36.25-11.88.54-23.96-.47-35.79-2.04-23.97-3.16-44.92,2.72-63.07,18.7-10.09,8.88-18.03,19.47-24.71,31.05-12.84,22.27-20.83,46.32-26.16,71.35-.31,1.46-1.01,2.84-1.54,4.26-.48-.14-.96-.29-1.44-.43.19-1.51.26-3.04.6-4.51,1.42-6.15,2.71-12.35,4.45-18.42,7.99-27.97,18.86-54.58,38.49-76.65,20.26-22.77,45.37-32.5,75.87-27.45,7.65,1.27,15.45,1.95,23.2,2.14,30.25.73,53.31-11.43,67.59-38.72,4.36-8.32,8.52-16.74,12.84-25.09,3.88-7.5,9.83-12.68,17.63-15.96,19.13-8.04,37.7,3.9,38.3,24.73.2,7-2.91,11.31-9.82,13.07-3.28.84-6.73,1-10.04,1.76-1.4.32-2.63,1.41-3.94,2.14,1.07,1.09,1.96,2.65,3.25,3.17,3.59,1.43,7.32,2.58,11.07,3.57,5.01,1.32,10.26,1.92,15.07,3.74,2.12.8,3.41,3.82,5.08,5.84-1.61,1.08-3.09,2.62-4.86,3.17-5.41,1.66-11.01,2.7-16.4,4.41-7.44,2.36-9.06,5.11-6.41,12.34,8.58,23.36,23.36,41.22,46.67,51.31,1.59.69,3.88,2.3,3.88,3.5.01,1.63-1.5,3.84-3,4.79-2.76,1.74-3.03,3.28-1.24,5.84,5.47,7.84,10.8,15.77,16.23,23.64.28.4.92.55,1.6.94-11.3-35.68-22.47-70.95-33.71-106.42,4.38-.94,6.41.19,7.58,3.93,3.38,10.82,7.27,21.48,10.64,32.3,7.66,24.58,15.36,49.15,22.49,73.89,1.63,5.67,3.07,10.47,7.56,14.96,10.76,10.74,20.34,22.66,30.8,33.71,5.98,6.32,12.56,12.14,19.28,17.69,3.78,3.13,5.93,2.21,7.57-2.47,1.22-3.5,2.27-7.14,2.75-10.8,1.78-13.65,3.27-27.34,4.92-41.01.43-3.53.91-7.07,1.67-10.54.22-1.02,1.33-2.12,2.32-2.58.4-.18,1.88,1.1,2.3,1.98,1.11,2.33,1.89,4.82,2.85,7.22,4.58,11.58,8.63,23.41,13.94,34.64,4.39,9.26,9.56,10.45,18.71,5.64,6.3-3.31,12.24-7.29,18.37-10.93,2.64-1.57,5.22-3.33,8.05-4.47,3.32-1.35,5.22.26,4.47,3.75-.75,3.46-1.88,6.89-3.3,10.13-5.72,13.05-11.63,26.01-17.46,39.01.36.34.72.68,1.08,1.02,3.04-2.93,6.63-5.46,9.02-8.84,15.19-21.45,26.64-44.81,34.29-69.94,7.71-25.31,10.58-51.35,10.94-77.72.04-2.67.63-5.37,1.19-8,.44-2.05,1.81-4.04,1.76-6.03-.31-10.98-.71-21.96-1.49-32.91-1.16-16.48-2.74-32.92-3.96-49.4-.29-3.93-2.22-6-5.8-6.57-7.19-1.15-14.38-2.69-21.62-3.02-45-2.05-89.31,2.7-132.83,14.42-19.25,5.19-38.37,10.83-56.23,19.97-6.85,3.51-8.07,7.94-4.7,14.87,1.71,3.53,2.21,7.76,6.23,9.84.23.12.02,1.1.02,2.21-7.03-4.14-9.09-10.48-10.26-17.37-.82-4.84.39-8.79,5.13-10.88,8-3.52,15.93-7.25,24.14-10.21,43.01-15.52,87.42-24.22,133.1-25.4,17.74-.46,35.59.72,53.3,2.22,10.37.88,11.3,2.92,12.5,13.23.37,3.2.74,6.4,1.12,9.77,4.45-3.63,8.11-6.76,11.94-9.69,3.86-2.95,7.97-5.57,11.8-8.56,3.68-2.87,6.95-6.17,8.35-10.73-4.18,1.85-7.8,4.25-11.66,6.15-9.11,4.49-15.78,3.62-21.77-2.5-6.41-6.54-7.93-16.13-3.51-24.24,4.45-8.18,11.82-12.84,20.51-15.24,14.08-3.87,26.83,3.21,33.32,18.28,6.15,14.28,7.19,29.23,4.44,44.35-7.43,40.89-22.52,79.02-42.31,115.4-3.53,6.5-3.67,6.35,1.5,11.28,1.13,1.08,2.62,2.74,2.49,3.99-.33,3.16-.58,7.31-2.59,9-1.57,1.32-6.51.5-8.55-1.13-2.14-1.69-3.56-5.48-3.6-8.37-.09-7.1.91-14.21,1.24-21.32.29-6.24.26-12.51.36-18.76-.92.47-1.02.95-1.06,1.42-.08,1.13-.15,2.26-.18,3.39-1.39,43.38-11.92,84.22-33.97,121.85-6.11,10.42-11.58,21.35-23.42,28.1,1.48.35,2.06.46,2.62.62,13.01,3.88,26.08,7.55,38.99,11.74,6.8,2.2,12.42,6.57,15.77,13.02,8.27,15.93,16.48,31.9,24.22,48.09,1.44,3.02,2.9,4.55,5.9,5.39,9.2,2.56,18.44,5.03,27.5,8.05,5.79,1.93,6.72,3.8,5.03,9.59-2.53,8.7-5.5,17.28-8.48,25.85-7.39,21.27-15.14,42.41-22.28,63.76-7.11,21.28,9.63,47.68,30.99,51.38,41.98,7.27,83.78,15.59,125.83,22.41,20.57,3.34,41.51,4.61,62.33,6.2,8.45.65,8.92-.09,8.96-8.53.14-32.23.05-64.46-.1-96.69-.04-7.73-.63-15.44-.99-23.71-13.07,2.1-24.73-1.1-36.18-5.39-3.94-1.48-7.78-3.22-11.68-4.81-15.73-6.43-31.24-13.46-47.26-19.06-12.08-4.23-20.29-1-27.06,9.93-4.55,7.35-8.41,15.46-10.82,23.74-4.98,17.09-8.54,34.59-13.18,51.8-2.22,8.24-5.25,16.31-8.55,24.2-1.62,3.87-4.94,7.59-9.72,6.63-5.15-1.04-4.9-6.16-4.69-10.01.53-9.85,1.53-19.68,2.61-29.49,1.43-13.04,3.19-26.04,4.63-39.08.28-2.51-.26-5.12-.49-8.77-1.46,1.53-2.04,1.9-2.29,2.43-4.05,8.47-8.09,16.94-12.08,25.44-6.81,14.5-13.37,29.14-20.58,43.44-1.34,2.66-5.41,5.87-7.89,5.61-4.2-.44-4.1-5.47-3.88-8.84.59-9.03,1.06-18.17,2.85-27.01,5.52-27.31,11.56-54.52,17.66-81.71.42-1.88,2.75-4.2,4.63-4.73,4.95-1.38,10.13-2.31,15.27-2.66,35.84-2.46,71.61-.53,107.25,3.09,17.05,1.73,33.93,5.06,50.86,7.81,6.61,1.07,10.06,5.15,10.63,11.93.6,7.07,1.6,14.1,2.51,21.9,8.01-2.75,13.51-7.54,17.85-13.75h0Zm-290.02,67.68c1.1-2.95,1.85-5.45,2.95-7.78.62-1.31,1.8-2.37,2.72-3.53,1.08,1.06,2.65,1.93,3.16,3.22,3.07,7.81,5.86,15.73,8.84,23.57.83,2.18,1.99,4.22,2.99,6.33.4-.15.8-.31,1.2-.46-.68-1.97-1.38-3.93-2.05-5.9-2.7-7.94-5.33-15.91-8.13-23.82-.74-2.11-1.84-4.13-3.05-6.02-1.8-2.82-3.79-4.14-7.61-2.44-4.35,1.94-9.23,2.66-13.88,3.91-14.2,2.27-28.38,4.71-42.61,6.77-11.05,1.6-22.16,2.8-33.26,4.07-3.69.42-5.59,2.67-4.18,6.02,1.22,2.9,3.16,5.49,4.79,8.22.56.01,1.12.02,1.68.03,1.11-3.19,2.11-6.43,3.38-9.56.49-1.19,1.59-2.13,2.41-3.18.95.98,2.41,1.8,2.77,2.96,1.14,3.7,1.88,7.52,2.78,11.3.39,1.66.78,3.32,1.49,6.33,3.22-5.01,5.6-8.94,8.23-12.7,2.13-3.04,4.32-6.11,6.91-8.74,4.53-4.6,8.33-3.87,10.73,2.07,1.51,3.73,2.33,7.73,3.51,11.59.26.86.69,1.67,1.57,3.71,1.11-4.27,1.85-7.38,2.73-10.45.76-2.64,1.49-5.32,2.55-7.85,2.89-6.9,7.72-7.76,12.46-1.98,3.35,4.09,6.13,8.66,9.93,14.1-.06-2.86.06-4.77-.16-6.64-.38-3.21-1.61-6.46-1.28-9.57.24-2.32,2.36-4.45,3.64-6.67,4.02,4.09,8.04,8.19,12.84,13.08h0Zm265.96-79.41c-.41-2.04-3.36-4.46-5.6-5.07-7.79-2.14-15.7-4.1-23.69-5.18-44.71-6.07-89.61-9.05-134.75-6.53-4.83.27-9.67,1.09-14.37,2.22-1.64.4-3.79,2.28-4.14,3.84-5.92,26.23-11.81,52.48-17.19,78.82-1.84,9-2.48,18.28-3.18,27.47-.19,2.54,1.42,5.21,2.21,7.82,1.89-1.85,4.43-3.37,5.56-5.6,5.46-10.84,10.64-21.82,15.73-32.84,4.89-10.59,9.35-21.37,14.42-31.86,1.27-2.62,4.53-6.54,6.26-6.24,4.22.72,3.23,5.48,2.98,8.56-.98,11.77-2.45,23.5-3.71,35.25-1.23,11.43-2.66,22.84-3.47,34.29-.2,2.84,1.69,5.83,2.62,8.75,2.61-2.19,6.48-3.87,7.59-6.65,3.59-8.98,6.52-18.27,9.04-27.62,4.31-15.95,7.5-32.22,12.38-47.97,2.73-8.83,7.19-17.37,12.21-25.18,6.15-9.58,15.95-13.17,26.78-9.36,15.39,5.43,30.33,12.12,45.57,18,10.25,3.96,20.54,7.97,31.09,10.93,5.72,1.61,12.05,1.09,19.65,1.64-1.41-10.32-2.28-19-4-27.51h0Zm-329.83-100.85c-6.19,3.83-12.39,7.71-18.26,12-5.92,4.33-5.12,10.15,1.96,12.17,5.65,1.61,11.75,1.81,17.68,2.27,3.2.25,6.47-.18,9.69-.48,1.59-.15,3.14-.68,4.7-1.04-.12,1.19-.23,2.38-.35,3.57-5.89.29-11.77.58-17.66.87l-.16.91c2.25.48,4.5.96,6.76,1.44,2.21.48,4.46.86,6.63,1.49,6.08,1.74,13.25,2.17,21.32.84-2.96-2.63-5.31-4.72-7.83-6.95,2.4-2.01,4.87-.85,6.29,1.29,3.29,4.98,7.55,7.81,13.54,8.1.61.03,1.18.82,1.57,2.52-7.04-.63-14.08-1.24-20.62-1.83-.36,6.8-.65,12.43-.99,18.98,12.58,11.4,13.46,15.32,2.25,24.4,1.11-.11,2.24-.43,3.31-.3,6.57.73,8.82,2.57,9.53,7.64.68,4.91-1.81,9.52-7.07,11.42-3.71,1.34-4.7,3.46-3.21,6.48,1.3,1.86,2.74,3.63,3.85,5.59,1.59,2.8,2.58,5.98,4.44,8.56,8.03,11.17,16.21,22.25,24.58,33.16.97,1.27,3.57,1.89,5.31,1.73.95-.09,2.22-2.39,2.43-3.82,1.25-8.81,2.01-17.69,3.36-26.49,2.48-16.16,9-30.67,18.84-43.71.78-1.03,1.49-2.12,2.27-3.15,2.38-3.13,2.33-5.22-.32-9.03-5.4-7.78-9.19-16.68-13.57-25.15-3.34-6.47-6.78-12.9-9.81-19.52-3.7-8.07-9.87-13.2-18.17-15.63-10.71-3.14-21.55-5.81-32.3-8.81-2.95-.82-6.3-1.59-5.31-6.34-.44-.21-.87-.42-1.3-.63-4.46,2.47-9.03,4.77-13.36,7.45h0Zm89.38-252.31c6.14-2.41,6.68-2.11,7.63,4.42.09.61.32,1.19.49,1.79,7.19-1.79,7.4-1.82,8.36,5.56,2.5,19.27-1.25,37.41-10.62,54.35-3.21,5.8-7.73,10.3-14.49,12.2-1.12.31-2.38,2.44-2.45,3.79-.7,15.03-1.27,30.07-1.65,45.12-.07,2.8.12,6.18,1.62,8.27,1.21,1.69,4.55,1.86,6.95,2.7.31-2.55.74-5.1.87-7.66.03-.58-.93-1.24-1.48-1.82-1.86-1.96-5.04-3.75-5.28-5.89-.28-2.48,1.81-5.35,3.2-7.88,19.1-34.88,33.42-71.56,41.52-110.55,3.08-14.82,3.03-29.62-2.21-44.07-.77-2.12-1.69-4.21-2.81-6.17-10.74-18.93-32.81-20.29-46.04-2.88-6,7.9-5.02,18.71,2.38,24.97,4.44,3.76,9.49,5.07,14.87,2.34,4.3-2.18,8.3-4.97,12.56-7.24,1.5-.8,3.4-.87,5.12-1.27.11,1.95,1.08,4.63.17,5.74-3.87,4.71-8.03,9.26-12.61,13.28-4.12,3.62-8.96,6.39-13.39,9.66-1.46,1.07-2.63,2.54-3.93,3.83.3.45.59.89.89,1.34,3.44-1.3,6.91-2.55,10.33-3.9h0Zm-207.12,170.26c2.55,1.92,4.93.92,4.92-2.45,0-2.66-.32-5.72-1.64-7.91-5.59-9.27-11.61-18.29-17.49-27.39-1.14-1.77-2.36-3.48-3.56-5.21-2.22-3.2-1.68-5.71,1.78-7.6,1.07-.59,2.03-1.39,3.76-2.6-1.7-.96-2.67-1.63-3.73-2.1-23.53-10.25-38.63-28.32-47.45-51.88-3.62-9.67-1.32-13.44,8.6-16.71,3.18-1.05,6.41-1.91,11.11-3.29-2.51-.7-3.63-.94-4.69-1.33-7.87-2.84-16.05-5.07-23.5-8.75-6.61-3.27-7.02-7.04-3.15-13.48,1.25-2.08,1.32-3.27-.89-4.72-1.55-1.01-3.17-2.65-3.67-4.34-.57-1.93-.77-5.08.36-6.15,1.58-1.51,4.67-2.42,6.83-2.04,1.58.28,3.46,2.9,3.87,4.77.52,2.38-.3,5.05-.57,7.83,4.72.79,9.01.05,11.83-3.84,2.93-4.05,1.06-8.06-1.44-11.67-6.59-9.52-18.32-10.82-27.57-3.09-5.81,4.86-8.42,11.37-9.3,18.66-1.55,12.71,1.48,24.76,5.45,36.67,6.87,20.64,19.88,37.46,34.38,52.98,15.13,16.18,31.42,31.27,47.2,46.84.69.68,1.42,1.33,2.11,2.01,4.24,4.22,4.24,4.88-.78,9.41,2.56,2.66,4.62,5.38,7.24,7.36h0Zm141.36,26.52c-6.02,3.48-11.87,7.36-18.2,10.15-8.88,3.92-14.31,2.49-18.64-6.22-5.59-11.25-9.75-23.21-14.49-34.88-.89-2.19-1.57-4.47-2.34-6.71l-1.24.06c-.32,2.13-.7,4.24-.96,6.38-1.82,14.94-3.54,29.9-5.47,44.82-.41,3.18-1.37,6.34-2.46,9.37-2.42,6.73-6.32,8.35-11.76,3.81-7.8-6.49-15.09-13.66-22.17-20.95-6.95-7.17-13.35-14.86-20.72-21.86,1.01,1.45,1.91,2.99,3.04,4.33,17.06,20.12,34,40.36,51.43,60.15,2.43,2.75,7.51,4.85,11.14,4.54,12.02-1.03,24.09-2.63,35.82-5.37,5.45-1.27,9.42-5.93,11.72-11.99,4.13-10.87,9.37-21.32,14.03-32,1.26-2.9,2.11-5.98,3.14-8.98-.41-.38-.82-.75-1.24-1.13-3.54,2.16-7.04,4.4-10.63,6.48h0Zm-30.78,217.59c19.45-2.24,38.98-3.86,58.47-5.73,1.26-.12,2.53-.25,5-.5-14.37-12.73-24.29-27.28-28.42-43.93-6.82,3.52-13.77,7.42-20.98,10.78-11.56,5.39-20.81,12.78-25.72,25.09-2.9,7.28-6.76,14.18-10.19,21.24.32.3.65.59.97.89,5.56-6.4,13.44-6.98,20.85-7.83h0Zm-26.83-86.09c16.11-3.44,32.16-5.82,48.16.78,4.76,1.96,9.58.87,13.98-1.68,3.61-2.09,4.62-5.23,2.06-8.53-3.71-4.8-7.4-9.85-14.15-10.87-1.24-.19-2.51-.73-3.6-1.39-9.54-5.83-19.84-7.11-30.81-5.89-8.66.96-17.41,1.13-25.72,1.63-6.32,8.95-5.24,18.33-.51,28.3,3.13-.7,6.85-1.56,10.58-2.35Zm-8.02,34.98c2.3,2.9,4.19,3.64,7.31.37,10.37-10.88,23.42-15.12,38.27-14.2,6.46.4,12.91.93,19.37,1.23,4.19.2,8.19-3.22,8.68-7.38.51-4.39-2.65-5.39-6.01-6.06-3.2-.63-7.49.85-8.26-4.47-.06-.4-1.75-.48-2.62-.85-17.1-7.28-34.33-4.55-51.44-.27-4.16,1.04-9.42-.23-12.01,5.46-2.87,6.32-1.56,11.97,1.08,17.7.81,1.76,1.89,3.39,2.72,4.85,1.08,1.35,2.01,2.47,2.91,3.61h0Zm135.84-361.54c-6.61,0-11.99,6.95-19.5,3.55,1.32,23.57,2.63,46.86,3.97,70.66,6.01-.8,9.98-3.95,12.89-8.34,9.65-14.55,13.12-30.84,12.85-48.06-.06-3.68-.73-7.35-1.16-11.41-4.96,1.27-7.97-.87-9.03-6.4Zm-100.95,379.01c4.8-3.89,10.82-6.29,16.35-9.26,3.41-1.83,6.98-3.36,10.34-5.28,4.66-2.67,6.91-6.67,5.68-12.83-15.68-.37-31.76-4.75-47.42,3.87,3.64,3.4,2.11,5.89-.67,8.19-1.87,1.55-3.84,2.98-5.58,4.65-5.19,5.01-5.81,11.22-1.34,16.93,2.66,3.4,5.95,6.3,8.46,8.91,4.8-5.26,8.92-10.93,14.18-15.19h0Zm16.91-92.56c-11.52-3.25-23.11-6.43-34.87-8.6-5.67-1.05-11.88-.21-17.68.77-4.6.78-7.42,4.39-8.04,9.27-.86,6.78,1.56,9.94,8.32,9.81,8.73-.17,17.48-.57,26.18-1.39,10.15-.95,19.67.4,28.56,5.6,1.62.95,3.49,1.47,5.56,2.32,4.45-12.05,3.44-14.55-8.03-17.79Zm53.55,125.78c.07-.58.14-1.16.21-1.74-1.81-.5-3.68-1.59-5.42-1.42-23.83,2.29-47.66,4.58-71.45,7.3-5.61.64-11.84,1.65-13.67,10.16,30.92-2.86,60.71-8.06,90.33-14.29Zm7.25-143.22c8.02,16.07,16.04,32.14,24.05,48.2.51-.26,1.03-.52,1.54-.78-6.75-16.71-14.59-32.88-25.59-47.42Zm-187.64-134.19c.52-.16,1.03-.33,1.55-.49-7.12-22.23-14.24-44.45-21.36-66.68-.45.14-.9.29-1.35.43,7.05,22.25,14.1,44.5,21.16,66.74Zm173.6,267.42c-7.12-10.21-14.24-20.43-21.37-30.64-.38.28-.77.55-1.15.82,4.98,11.75,12.28,21.85,22.52,29.81h0ZM250.42,68.33c-.94-.6-4.42.55-4.67,1.46-1.03,3.73,1.71,5.62,5.22,7.6,1.11-3.62,3.01-6.79-.55-9.06h0Zm141.46,322.26c-.89-4.25-2.16-7.64-2.16-11.03.01-3.41,1.3-6.81,2.15-10.74-5.48,3.32-5.47,11.48,0,21.77h0Zm16.32,109.11c-.58-.06-1.17-.11-1.75-.17-1.98,6.28-1.53,12.82-.42,19.37.73-6.4,1.45-12.8,2.17-19.2Zm67.34-87.68c.84-3.26,1.97-5.81,2.05-8.4.09-2.85-1.77-4.58-4.14-4.68.64,4.02,1.26,7.87,2.09,13.08h0Z"/>
      <g>
        <path class="cls-1" d="m450.71,793.69c-16.51,0-33.22-1.11-50.04-3.39-185.13-25.1-319.47-183.42-319.47-365.19,0-16.51,1.11-33.22,3.39-50.04,11.47-84.59,50.75-158.57,107.37-213.99.4-.39.41-1.04.02-1.44-.4-.4-1.04-.41-1.44-.02-56.93,55.72-96.43,130.12-107.96,215.17-2.29,16.91-3.41,33.71-3.41,50.31,0,182.79,135.09,341.98,321.24,367.22,16.91,2.29,33.71,3.41,50.31,3.41,140.49,0,267.03-79.81,329.54-201.27-.73-.06-1.47-.11-2.2-.17-62.3,120.36-187.92,199.4-327.33,199.4Z"/>
        <path class="cls-1" d="m628.42,99.06c-.5-.27-1.12-.09-1.39.41-.27.49-.09,1.12.41,1.39h0c83.04,45.47,145.43,121.48,174.23,211.02.48-.68.99-1.33,1.51-1.96-29.15-89.45-91.67-165.35-174.76-210.85Z"/>
        <path class="cls-1" d="m450.67,760.76c-15.04,0-30.26-1.01-45.58-3.09-168.61-22.86-290.97-167.05-290.97-332.61,0-15.04,1.01-30.26,3.09-45.58,8.17-60.28,31.85-114.64,66.47-159.62.34-.45.26-1.09-.19-1.43s-1.09-.26-1.43.19c-34.83,45.25-58.66,99.95-66.88,160.6-2.09,15.41-3.11,30.72-3.11,45.85,0,166.57,123.1,311.63,292.74,334.63,15.41,2.09,30.72,3.11,45.85,3.11,123.64,0,235.42-67.84,294.24-172.18-.73-.09-1.46-.19-2.19-.28-58.57,103.3-169.44,170.42-292.05,170.42Z"/>
        <path class="cls-1" d="m612.14,127.69c-.5-.27-1.12-.09-1.39.41-.27.5-.09,1.12.41,1.39h0c87.54,47.75,149.97,132.73,169.07,230.99.55-.84,1.07-1.71,1.56-2.63-19.72-97.91-82.24-182.47-169.65-230.16Z"/>
        <path class="cls-1" d="m450.64,737.86c-14.02,0-28.19-.94-42.47-2.88-157.12-21.3-271.14-155.68-271.14-309.94,0-14.01.94-28.19,2.88-42.47,6.03-44.48,21.12-85.51,43.16-121.46.29-.48.14-1.11-.34-1.4-.48-.29-1.11-.14-1.4.34-22.18,36.19-37.38,77.49-43.44,122.26-1.95,14.37-2.9,28.64-2.89,42.74,0,155.28,114.76,290.53,272.91,311.97,14.37,1.95,28.64,2.89,42.74,2.89,112.03,0,213.62-59.74,269.58-152.4-.74-.09-1.48-.17-2.22-.26-55.7,91.61-156.38,150.62-267.36,150.62Z"/>
        <path class="cls-1" d="m599.16,146.72c-.5-.27-1.12-.08-1.38.42-.27.5-.08,1.12.42,1.38h0c86.06,46.13,146.48,130.72,161.57,227.93.65-.27,1.3-.54,1.94-.82-15.33-97.63-76.07-182.55-162.55-228.9Z"/>
      </g>
    </g>
  </g>
</svg>