<?xml version="1.0" encoding="UTF-8"?>
<svg id="Capa_2" data-name="Capa 2" xmlns="http://www.w3.org/2000/svg" viewBox="0 0 29.21 29.21">
  <defs>
    <style>
      .cls-1 {
        fill: #e42528;
      }
    </style>
  </defs>
  <g id="Capa_1-2" data-name="Capa 1">
    <g>
      <path class="cls-1" d="m14.6,2.35c6.76,0,12.26,5.5,12.26,12.26s-5.5,12.26-12.26,12.26S2.35,21.36,2.35,14.6,7.85,2.35,14.6,2.35m0-2.35C6.54,0,0,6.54,0,14.6s6.54,14.6,14.6,14.6,14.6-6.54,14.6-14.6S22.67,0,14.6,0Z"/>
      <path class="cls-1" d="m7.19,12.43h0,0m11.57-4.81c-1.85,0-3.44,1.19-4.16,2.7h0c-.72-1.51-2.31-2.7-4.16-2.7-2.53,0-4.57,2.1-4.57,4.53v.18s0,0,0,0c0,0-.26,2.88,2.95,6.03,1.46,1.46,3.09,2.85,5.78,5.04,2.69-2.18,4.32-3.57,5.78-5.04,3.21-3.15,2.95-6.03,2.95-6.03h0v-.18c0-2.43-2.04-4.53-4.57-4.53Z"/>
    </g>
  </g>
</svg>