<?xml version="1.0" encoding="UTF-8"?>
<svg id="Capa_2" data-name="Capa 2" xmlns="http://www.w3.org/2000/svg" viewBox="0 0 43.19 29.12">
  <defs>
    <style>
      .cls-1 {
        fill: #e42528;
      }
    </style>
  </defs>
  <g id="Capa_1-2" data-name="Capa 1">
    <g>
      <path class="cls-1" d="m32.52,27.5c-.12-.33-.19-.7-.19-1.07v-.04s0-10.1,0-10.1c-.57,0-1.13,0-1.7,0-.35,0-.7,0-1.06,0h0c-.08,0-.16,0-.25-.01,0-.59.1-1.23-.42-1.5-.12-.06-.27-.11-.47-.13.22-.26.43-.51.62-.76.7-.9.99-1.94,1.06-3.03.01-.16.02-.31.02-.47.02-1.08.02-2.15,0-3.23-.01-.76-.02-1.53-.11-2.28-.12-.94-.65-1.7-1.36-2.3-.1-.09-.21-.17-.32-.24-.03-.02-.07-.04-.1-.06-.08-.05-.15-.1-.23-.14-.04-.02-.09-.04-.13-.06-.07-.03-.14-.07-.21-.1-.05-.02-.1-.04-.15-.05-.07-.03-.14-.05-.21-.07-.05-.02-.11-.03-.16-.04-.07-.02-.14-.04-.21-.05-.06-.01-.11-.02-.17-.03-.07-.01-.14-.03-.21-.04-.06,0-.12-.01-.18-.02-.07,0-.14-.02-.21-.02-.06,0-.12,0-.19,0-.08,0-.16,0-.24,0-.72,0-1.45,0-2.17,0-.81,0-1.63,0-2.44,0-.22,0-.45-.12-.6-.29-.09-.1-.14-.22-.15-.34,0-.12-.01-.23-.04-.32-.08-.3-.27-.51-.57-.67h-.76l-.03.04c-1.06.16-1.95.64-2.62,1.49-.83,1.06-1.1,2.25-.76,3.54.35,1.34,1.19,2.23,2.41,2.72.17.07.35.13.54.19.14.04.19.11.19.26,0,.89,0,1.77,0,2.66,0,.68.19,1.33.45,1.94.29.67.69,1.27,1.23,1.79-.58.06-.93.38-.87.98.02.22,0,.44,0,.67-1.2,0-2.35,0-3.51,0-.19,0-.39.04-.57.08-.98.21-1.79.68-2.4,1.48-.48.62-.82,1.32-.83,2.1-.04,2.32,0,4.63-.02,6.95,0,.06,0,.12.02.18,0,0,0,.02,0,.02.01.05.02.1.04.14,0,.01.01.02.02.03,0,.02.02.04.03.05.01.02.02.05.04.07,0,0,.01.01.01.02.03.04.06.08.1.12,0,0,.02.01.03.02.03.03.07.06.11.09.02.01.04.02.06.03.03.02.06.04.1.05.02,0,.05.01.07.02.03.01.07.02.1.03.03,0,.05,0,.08,0,.03,0,.07.01.1.01.53,0,1.07,0,1.6,0,4.09,0,8.18-.01,12.27-.01,1.89,0,3.78,0,5.67,0-.05-.1-.1-.19-.14-.3ZM19.48,6.51c-.53-.03-1-.23-1.42-.54-.47-.35-.8-.81-.91-1.4-.14-.75.02-1.45.51-2.04.27-.33.59-.6,1.01-.74.18-.06.25-.03.33.13.31.62.81,1.04,1.47,1.25.17.05.34.09.52.09,1.57,0,3.15,0,4.72.01.58,0,1.15.05,1.65.39.67.45,1.09,1.05,1.11,1.88,0,.03.01.06.03.13-.35-.17-.66-.37-1-.49-.33-.12-.68-.14-1.02-.23-.64-.17-1.13.21-1.66.42-1.12.44-2.25.81-3.44,1-.63.1-1.25.18-1.89.15Zm.88,3.93c.02-.75,0-1.5,0-2.29.43-.06.85-.1,1.27-.17,1.2-.2,2.35-.54,3.48-.98.35-.14.68-.33,1.04-.42.2-.05.45,0,.65.07.89.3,1.5.92,1.63,1.84.11.8.03,1.63.02,2.44,0,.74-.26,1.4-.71,1.98-.27.35-.61.64-.92.96-.29.3-.64.57-.85.91-.24.4-.63.58-.96.84-.11.09-.24.15-.34.25-.18.16-.33.16-.52,0-.22-.18-.45-.34-.69-.48-.27-.15-.39-.41-.58-.62-.36-.41-.74-.81-1.15-1.16-.5-.43-.84-.94-1.09-1.54-.21-.52-.29-1.07-.28-1.64Zm2.61,8.68c.44-.3.89-.59,1.34-.87.05-.03.17-.02.22.01.49.31.96.63,1.48.98-.08.44-.16.92-.26,1.38-.14.59-.31,1.17-.66,1.67-.13.18-.3.35-.49.47-.21.15-.54-.02-.76-.33-.44-.64-.65-1.37-.81-2.11-.07-.33-.12-.66-.16-.99,0-.07.04-.18.1-.21Zm-1.78-1.19v-1.6c.75-.04,1.31.36,1.91.77-.58.41-1.15.79-1.91.83Zm4.55-.81c.58-.49,1.2-.79,1.94-.83v1.63c-.76.02-1.33-.38-1.94-.8Zm-9.46,9.04h-2.42c0-.07-.01-.14-.01-.21,0-1,0-2.01,0-3.01,0-.95,0-1.9,0-2.85,0-.42.19-.8.43-1.14.45-.63,1.08-.97,1.85-1.03.04,0,.09,0,.14,0v8.24Zm1.65,0v-8.23h1.62c0,.28,0,.55,0,.82,0,.47.33.8.8.8.28,0,.56,0,.86,0,.1.48.19.96.3,1.43.2.86.48,1.7,1.03,2.42.5.65,1.11,1.1,1.98,1.03.69-.05,1.23-.35,1.67-.89.72-.89,1.03-1.94,1.24-3.04.06-.32.12-.63.19-.96.27,0,.53,0,.79,0,.56,0,.91-.35.92-.91,0-.23,0-.47,0-.71h1.62v8.23h-13.01Z"/>
      <g>
        <path class="cls-1" d="m12.53,10.28H2.48c-.09,0-.17,0-.25.01-.17.02-.33.05-.48.1-.08.02-.15.05-.23.08-.89.38-1.51,1.26-1.51,2.28v13.89h0c0,.97.56,1.81,1.38,2.22.12.06.24.11.36.15.15.05.32.08.48.1.08,0,.17.01.25.01h10.05c.23,0,.46-.03.67-.1-.03,0-.06,0-.09,0-.57,0-1.11-.22-1.51-.63-.06-.06-.11-.14-.17-.21-.2-.25-.33-.54-.4-.85h0s-8.56,0-8.56,0c-.38,0-.69-.31-.69-.69v-13.89c0-.38.31-.69.69-.69h8.96s1.1,0,1.1,0c.38,0,.69.31.69.69v3.29c.52-.37,1.12-.64,1.79-.8v-2.48c0-1.37-1.11-2.48-2.48-2.48Z"/>
        <path class="cls-1" d="m38.37,13.32c-1.79-.05-4.03.54-4.65,1.89-.08.18-.14.38-.16.59,0,.07-.02.13-.02.2v10.41c0,.55.22,1.01.6,1.39h0c.24.24.53.44.86.61.43.22.92.38,1.44.5.64.14,1.31.2,1.93.19,2.11.05,4.85-.76,4.82-2.68v-10.41c.03-1.91-2.72-2.74-4.82-2.68Zm-.78,5.33c1.37.1,2.86-.06,3.82-.48v1.27c-.29.67-2.03.96-3.59.87-.21-.01-.41-.03-.61-.06-.21-.03-.42-.06-.61-.11h0c-.64-.15-1.12-.38-1.27-.71v-1.27c.25.11.53.2.84.27.24.06.49.1.75.14.22.03.45.06.67.07Zm-.97,3.32c.2.03.4.06.61.09.2.02.4.04.61.05,1.3.06,2.67-.1,3.57-.5v1.27c-.29.66-2.01.95-3.55.87-.21-.01-.41-.03-.61-.05-.21-.03-.42-.06-.61-.1-.66-.15-1.16-.38-1.3-.71v-1.27c.36.16.8.28,1.29.36h0Zm.02,5.15c-.66-.15-1.16-.38-1.3-.71v-1.36c.37.16.82.28,1.31.37.2.03.4.06.61.08.2.02.4.04.61.05,1.29.06,2.65-.11,3.54-.5v1.36c-.29.66-2.02.96-3.57.87-.21-.01-.41-.03-.6-.05-.21-.03-.41-.06-.6-.1Zm-.33-10.49c-.49-.15-.85-.35-.97-.63.02-.04.04-.07.06-.1.75-1.07,5.51-1.04,6.02.1-.39.91-3.47,1.12-5.11.63Z"/>
        <path class="cls-1" d="m11.01,20.53c.03-.16.04-.33.04-.5,0-.12,0-.24-.02-.36-.22-1.38-2.11-3.18-3.04-3.86l-.49-.37-.49.37c-1,.73-3.17,2.81-3.06,4.22-.03,1.67,1.39,2.69,2.82,2.13-.49.79-1.07,1.43-1.07,1.43h3.66s-.6-.62-1.1-1.41c.24.08.49.14.75.14,1.03,0,1.81-.73,1.99-1.78Zm-2.94-.35l-.57-.57-.57.57c-.21.21-.66.52-.95.52-.35,0-.42-.36-.42-.67,0-.14.08-.69,1.13-1.77.29-.3.58-.56.81-.76.93.8,1.93,1.93,1.93,2.54-.02,1.05-.81.66-1.37.15Z"/>
      </g>
    </g>
  </g>
</svg>