<?xml version="1.0" encoding="UTF-8"?>
<svg id="Capa_2" data-name="Capa 2" xmlns="http://www.w3.org/2000/svg" viewBox="0 0 931.42 743.09">
  <defs>
    <style>
      .cls-1 {
        fill: #ed1c24;
      }

      .cls-1, .cls-2 {
        stroke-width: 0px;
      }
    </style>
  </defs>
  <g id="Capa_1-2" data-name="Capa 1">
    <g>
      <path class="cls-2" d="m823.03,281h-61.66v1l.99.16s1.15-7.23,1.15-16.84c0-7.69-.73-16.92-3.4-25.29-2.67-8.35-7.33-15.91-15.24-19.96-10.84-5.56-21.57-7.36-30.43-7.36-5.8,0-10.79.77-14.53,1.77-1.87.5-3.42,1.06-4.62,1.62-1.2.58-2.03,1.09-2.57,1.82-.37.54-.63,1.18-.87,1.94-.84,2.65-1.49,6.86-2.74,10.89-1.23,4.03-3.08,7.75-5.93,9.38-2.74,1.61-6.59,2.3-10.05,2.29-2.34,0-4.51-.31-6.01-.78-.75-.23-1.33-.52-1.66-.76l-.29-.28-.03-.05h-.02s.02,0,.02,0h0s-.02,0-.02,0h.02-.02.02s0,0,0,0h-.02.02s.01-.03.01-.03c.34-.68,1.13-1.94,2.09-3.45,1.45-2.27,3.31-5.14,4.83-7.87.76-1.37,1.43-2.7,1.92-3.94.49-1.24.81-2.35.82-3.39,0-1.49-.3-6.51-.3-13.1,0-6.75.31-15.11,1.57-22.71,1.24-7.6,3.49-14.42,7.07-18.06,6.56-6.76,15.68-9.41,21.97-9.4,2.12,0,3.91.3,5.11.79.6.24,1.04.53,1.32.8.28.28.38.51.42.76.24,1.9.65,5.34.65,9.25,0,3.09-.26,6.48-1.07,9.6-.8,3.13-2.14,5.97-4.23,8.07-3.55,3.55-8.08,5.84-11.96,8.22-1.94,1.19-3.71,2.42-5.1,3.9-1.39,1.48-2.39,3.26-2.65,5.43-.09.77-.13,1.53-.13,2.28.01,4.04,1.06,7.86,1.05,12.05,0,3.35-.63,6.94-2.96,11.2-2.94,5.33-5.69,7.3-8.52,8.17-2.84.88-5.98.56-9.5.86-.41.04-.9.06-1.43.06-3.76,0-10-.93-15.25-1.86-2.63-.47-5.01-.94-6.74-1.29-1.73-.35-2.79-.58-2.79-.58l-.21.98.89-.46c-.06-.1-7.56-14.48-25.76-22.65-8.73-3.92-14.17-9.89-17.67-16.55-3.5-6.66-5.03-14.01-5.79-20.58-.62-5.27-3.76-12.49-8.76-18.53-5-6.02-11.94-10.87-20.2-10.88-5.41,0-11.3,2.11-17.37,7.18-12.31,10.28-17.66,26.23-20.53,40.42-1.44,7.1-2.25,13.77-2.97,19.09-.36,2.66-.7,4.98-1.07,6.82-.37,1.84-.8,3.22-1.23,3.9-.44.72-.9,1.14-1.38,1.4-.48.26-1.03.38-1.7.38-1.39,0-3.26-.56-5.41-1.18-2.16-.61-4.62-1.26-7.33-1.26-2.95,0-6.19.79-9.49,3.14-5.97,4.24-14.06,12.04-20.71,18.8-6.64,6.76-11.81,12.47-11.82,12.48l.74.67.92.4c.02-.06,2.79-6.4,2.8-13.09,0-3.49-.77-7.15-3.26-9.97-2.49-2.82-6.63-4.62-12.89-4.61-.68,0-1.39.02-2.12.06-13.37.78-27.77,3.96-40.09,7.79-12.32,3.84-22.52,8.31-27.63,11.81-1.48,1.03-2.58,2.72-3.49,4.85-1.59,3.74-2.6,8.92-3.29,14.7-1.03,8.67-1.29,18.66-1.37,26.82-.04,4.08-.04,7.7-.06,10.46-.01,1.38-.03,2.54-.07,3.43-.03.88-.09,1.52-.14,1.69-.08.36-.44,1.36-1.01,2.71-2.02,4.77-6.75,14.37-12.79,24.34-6.04,9.97-13.44,20.34-20.72,26.68-8.55,7.46-29.5,28.65-50.22,51.68-10.36,11.51-20.65,23.48-29.28,34.42-8.64,10.94-15.62,20.83-19.38,28.27-1.57,3.11-2.75,5.31-3.61,6.69-.43.69-.78,1.17-1.02,1.44l-.24.22h0s.21.41.21.41v-.45l-.21.04.21.41v-.45.64l.41-.49-.41-.15v.64l.41-.49-.29.35.36-.27-.07-.07-.29.35.36-.27-.11.08.13-.07v-.02s-.13.08-.13.08l.13-.07s-.17-.55-.21-1.28c-.06-.74-.07-1.74-.07-2.92,0-1.53.03-3.39.03-5.48,0-6.11-.23-14.25-2.09-22.62-1.86-8.36-5.35-16.98-11.91-23.94-12.5-13.27-35.43-27.45-56.4-38.92-20.96-11.46-39.95-20.19-44.4-22.34-.67-.32-1.42-.42-2.3-.42-2.08,0-4.92.62-8.46,1.73-12.35,3.89-33.01,13.94-52.24,26.58-9.61,6.32-18.86,13.29-26.52,20.47-7.65,7.18-13.73,14.57-16.96,21.81C2.26,468.99,0,485.8,0,493.34c0,1.2.06,2.16.15,2.91.1.76.19,1.25.41,1.7.14.25.22.3.3.37l.4.27c.56.33,1.6.83,3.13,1.54,11.41,5.29,49.71,21.42,85.19,36.24,35.48,14.82,68.11,28.33,68.11,28.33l.38-.92-.96.27c.03.11,2.87,9.97,13.34,21.1,10.47,11.14,28.57,23.51,58.98,28.62,17.4,2.93,33.38,3.97,47.31,3.97,34.62,0,56.66-6.44,56.72-6.46l-.28-.96-.13.99s48.56,6.54,100.98,13.08c26.21,3.27,53.39,6.54,75.94,9,22.57,2.45,40.48,4.09,48.31,4.09,1.83,0,3.08-.07,3.94-.31.92-.28,1.86-.88,2.98-1.75,4.14-3.26,10.53-10.54,17.93-19.98,11.08-14.14,24.3-33.04,34.76-49.91,5.23-8.44,9.78-16.36,13.03-22.94,1.62-3.29,2.93-6.25,3.83-8.78.9-2.54,1.42-4.63,1.42-6.32,0-.59-.06-1.13-.22-1.63-1.93-6.07-5.57-11.18-8.65-17.21-3.09-6.03-5.68-12.95-5.68-22.75,0-1.49.06-3.05.19-4.67.58-7.41,1.08-12.75,1.08-16.78,0-2.18-.14-3.98-.52-5.53-.55-2.32-1.74-4.08-3.59-5.34-1.85-1.26-4.29-2.1-7.57-2.99-1.57-.42-4.15-.68-7.65-.87-3.49-.18-7.88-.27-12.93-.27-17.49,0-43,1.02-66.78,2.68-23.79,1.66-45.81,3.92-56.48,6.47-13.75,3.28-22.94,9.63-28.67,15.17-5.74,5.54-8.03,10.26-8.07,10.34l.9.44-.5-.87s-4.2,2.41-8.61,5.65c-2.2,1.62-4.46,3.45-6.3,5.31-1.83,1.88-3.27,3.76-3.75,5.71-.16.64-.42,1.09-.81,1.47-.67.67-1.84,1.14-3.43,1.45-2.36.49-5.52.64-8.86,1.26-3.33.62-6.87,1.73-9.99,4.2-2.31,1.83-5.78,5.17-9.74,9.19-11.86,12.04-27.99,30.08-28,30.08l.75.67-.69-.72s-.39.38-1.1,1.04c-2.46,2.34-8.73,8.21-15.17,13.69-3.22,2.74-6.49,5.38-9.33,7.42-2.82,2.04-5.3,3.48-6.63,3.8-1.6.4-4.88.7-9.2.7-13.81,0-38.45-2.89-57.94-12.65-11.52-5.76-18.56-10.82-22.68-15.36-4.11-4.55-5.33-8.49-5.34-12.33,0-.91.07-1.81.2-2.72.11-.89.78-2.77,1.91-5.23,3.95-8.67,13.46-25.03,24.62-42.39,11.16-17.37,23.99-35.79,34.6-48.68,5.84-7.09,9.89-12.59,12.5-16.92,2.6-4.33,3.81-7.49,3.83-10.05,0-1.4-.4-2.63-1.15-3.59-1.13-1.45-2.87-2.29-4.93-2.91-2.07-.62-4.5-1.02-7.16-1.44-6.72-1.07-11.98-2.59-15.55-3.85-1.79-.63-3.15-1.19-4.06-1.59-.46-.2-.8-.36-1.03-.47l-.25-.12-.08-.04-.46.89,1-.07s-.05-.65-.09-1.82c-.05-1.17-.09-2.85-.09-4.88,0-6.19.44-15.63,2.61-23.68,1.08-4.02,2.6-7.69,4.64-10.42,2.05-2.73,4.57-4.52,7.81-5,8.79-1.3,24.05-1.65,37.63-1.65,7.55,0,14.6.11,19.75.21,5.15.11,8.41.21,8.42.21.37.01.72-.18.9-.51,0,0,3.31-5.83,6.63-12.38,1.66-3.27,3.32-6.73,4.57-9.74.63-1.51,1.15-2.9,1.53-4.13.37-1.23.61-2.26.61-3.16,0-.57-.08-1.14-.52-1.66-.23-.26-.52-.39-.77-.47-.26-.07-.5-.09-.75-.09-1.05.01-2.39.38-4.13.97-6.04,2.08-16.61,7.19-26.1,11.89-4.74,2.35-9.21,4.59-12.67,6.29-1.73.85-3.21,1.57-4.35,2.09-1.12.52-1.96.86-2.17.9-.76.2-2.83.42-5.34.6-3.79.28-8.73.51-12.71.66-3.98.16-7.01.24-7.01.24l.03,1,1,.07s.03-.42.03-1.13c0-3.46-.65-14.45-8.3-25.51-7.65-11.07-22.32-22.09-49.94-25.6-6.42-.82-12.45-1.2-18.13-1.2-24.03,0-41.54,6.83-53.86,16.01-12.32,9.18-19.43,20.65-22.8,29.92-6.89,18.97-7.15,37.84-7.15,40.69,0,.24,0,.36,0,.37,0,.4.25.76.62.91,0,0,1.4.57,3.89,1.61,8.68,3.65,30.51,13.06,50.98,23.84,10.23,5.39,20.13,11.12,27.85,16.62,3.86,2.75,7.18,5.44,9.71,7.98,2.54,2.54,4.28,4.94,5.04,7.01,3.85,10.47,6.31,18,7.8,22.91.75,2.46,1.26,4.26,1.58,5.44.16.59.27,1.03.35,1.32.07.29.1.42.1.42.07.31.29.57.58.69.29.12.63.1.9-.06.03-.02,10.94-6.52,21.89-15.77,5.48-4.63,10.96-9.94,15.11-15.51,4.14-5.57,6.99-11.42,7-17.18,0-.39-.01-.79-.04-1.18-.23-3.25-.6-5.49-1.17-7.04-.29-.77-.63-1.39-1.1-1.86-.46-.47-1.12-.76-1.76-.75-.78,0-1.44.33-2.08.76-1.11.77-2.21,1.96-3.41,3.37-1.8,2.11-3.79,4.7-5.9,6.89-2.11,2.2-4.35,3.96-6.47,4.51-.92.24-2.01.37-3.22.37-5.65.01-13.87-2.83-20.57-8.7-6.71-5.87-11.94-14.69-11.95-26.78,0-12.45,3.23-23.74,8.06-31.85,2.41-4.06,5.22-7.31,8.19-9.53,2.98-2.22,6.09-3.41,9.17-3.41,1.07,0,2.14.14,3.22.44,7.03,1.95,11.23,5.51,13.71,8.57,1.24,1.53,2.04,2.94,2.52,3.95.24.51.41.92.51,1.19l.11.31.02.07h0c.09.34.35.6.68.7.33.1.68.02.94-.2.04-.04,2.6-2.25,5.19-5.92,2.58-3.67,5.2-8.8,5.21-14.69.01-5.97-2.78-12.61-10.74-18.85-8.55-6.73-18.29-10.25-27.75-10.25-8.3,0-16.37,2.72-23.14,8.34-6.78,5.61-12.24,14.1-15.43,25.55-3.32,11.93-4.42,23.73-4.42,34.17,0,20.87,4.41,36.3,4.42,36.35l.96-.27-.99.12s.2,1.72.51,4.58c.92,8.56,2.76,27.3,2.76,40,0,3.42-.14,6.41-.45,8.59-.15,1.09-.36,1.98-.58,2.59-.22.62-.49.91-.53.91-.24.14-.49.21-.81.21-.98.03-2.72-.84-4.78-2.5-3.1-2.48-7-6.55-11.44-11.02-4.44-4.47-9.44-9.33-14.84-13.44-3.87-2.94-10.05-6.58-17.28-10.43-10.84-5.77-24.01-11.99-35.06-16.76-5.52-2.39-10.52-4.42-14.43-5.86-1.96-.72-3.64-1.29-5-1.69-1.37-.39-2.36-.63-3.15-.63-.16,0-.32.01-.5.05-1.17.25-2.65.88-4.3,1.76-2.46,1.32-5.25,3.21-7.48,5.29-1.11,1.04-2.09,2.13-2.8,3.25-.71,1.12-1.19,2.28-1.2,3.49,0,.47.08.95.25,1.41.19.46.45.69.75.97.6.51,1.48,1.06,2.67,1.72,4.43,2.46,13.15,6.35,23.9,11.1,16.1,7.12,36.71,16.15,53.78,24.96,8.53,4.4,16.19,8.75,21.93,12.76,2.87,2,5.26,3.92,7.04,5.69,1.78,1.77,2.93,3.4,3.37,4.74,2.75,8.23,3.93,14.28,3.93,18.47,0,2.58-.45,4.43-1.17,5.68-.73,1.24-1.69,1.94-3,2.32-.5.14-1.03.21-1.57.21-2.25.01-4.84-1.18-7-2.8-2.16-1.59-3.88-3.62-4.43-4.87l-.03-.19c-.02-.36.26-1.22.6-2.31.33-1.1.68-2.48.68-4.12.01-3.23-1.41-7.31-6.42-12.12-5.02-4.83-13.64-10.51-28.31-17.22-22.63-10.34-41.54-19.44-55.43-25.96-6.95-3.26-12.64-5.88-16.94-7.69-2.15-.9-3.94-1.61-5.38-2.09-1.45-.48-2.51-.76-3.38-.77-.2,0-.4.02-.61.07-1.12.29-2.61,1.11-4.41,2.3-2.68,1.79-5.9,4.44-8.5,7.38-2.58,2.95-4.62,6.17-4.65,9.38,0,.53.06,1.06.19,1.57.14.51.41.87.76,1.25.67.72,1.69,1.5,3.06,2.42,5.15,3.42,15.34,8.64,27.94,14.84,18.89,9.29,43.13,20.72,63.37,31.16,10.12,5.22,19.24,10.19,26.17,14.51,3.46,2.16,6.38,4.15,8.59,5.92,2.21,1.76,3.7,3.32,4.31,4.44,3.51,6.39,5.99,11.6,7.58,15.72,1.6,4.12,2.29,7.16,2.28,9.14,0,.89-.14,1.55-.34,1.99-.17.37-.44.64-.89.87-.45.22-1.08.36-1.85.36-2.87.02-7.49-1.96-11.32-6.4-1.4-1.61-2.01-3.32-2.54-5.33-.79-3-1.33-6.64-4.14-10.63-2.81-4-7.81-8.28-17.37-12.94-12.3-6-37.62-20.05-61.57-32.6-11.98-6.27-23.62-12.17-33.16-16.52-4.77-2.17-9.01-3.95-12.52-5.2-3.52-1.24-6.26-1.97-8.24-1.98-.37,0-.72.03-1.06.09-2.87.57-5.58,2.5-8.1,5.12-3.77,3.94-7.14,9.5-9.6,14.86-1.23,2.68-2.23,5.31-2.92,7.67-.69,2.36-1.09,4.45-1.1,6.11,0,.79.09,1.48.33,2.11.23.52.53.75.91,1.08.74.59,1.89,1.27,3.45,2.1,5.84,3.09,17.48,8.13,31.76,14.03,21.41,8.84,48.73,19.6,71.01,28.43,11.14,4.42,21.02,8.35,28.26,11.32,3.62,1.49,6.59,2.73,8.71,3.67,1.06.47,1.92.87,2.53,1.17.31.15.55.28.73.38l.2.12.05.03h0s0,0,0,0h0s0,0,0,0h0c.87.8,3.38,3.38,7.15,6.88,11.34,10.51,34.38,29.58,62.64,36.83,10.93,2.8,23.67,3.78,36.27,3.78,30.88,0,60.93-5.92,60.97-5.93l-.19-.98-.13.99s37.73,5.05,80.32,10.11c42.61,5.05,90.02,10.11,109.6,10.11,2.85,0,5.12-.11,6.75-.35.82-.12,1.48-.27,2.03-.51.28-.12.53-.26.77-.48.23-.21.45-.55.5-.95.1-.86.13-1.97.13-3.38,0-2.64-.11-6.27-.11-10.76,0-16.71,1.5-45.23,15.62-76.52,9.99-22.13,20.21-38.81,27.93-49.94,3.86-5.57,7.09-9.75,9.35-12.53,1.13-1.39,2.02-2.44,2.63-3.13.3-.35.53-.61.69-.78l.23-.25c.27-.29.34-.73.18-1.09s-.54-.6-.94-.59c-.02,0-32.4.85-67.13,4.47-17.37,1.81-35.32,4.32-50.12,7.78-7.41,1.73-14.03,3.69-19.41,5.94-5.39,2.26-9.55,4.77-12.05,7.76-5.95,7.14-9.82,12.36-12.21,16.17-1.2,1.91-2.03,3.46-2.57,4.75-.54,1.29-.81,2.32-.81,3.21-.02.88.32,1.72.96,2.2.63.48,1.35.6,2.04.6l.5-.02c.89-.1,1.54-.59,2.3-1.21,1.3-1.12,2.83-2.88,4.67-4.94,2.75-3.09,6.13-6.83,10.02-9.85,3.88-3.02,8.24-5.3,12.9-5.58,10.38-.64,54.98-3.45,81.91-3.45,6.12,0,11.33.15,14.97.49,1.82.17,3.25.4,4.16.65.45.12.77.27.9.35l.06.04h0s0,0,0,0h0s0,0,0,0h0s.33-.28.33-.28l-.43.03.09.26.33-.28-.43.03v.12c0,.5-.18,1.43-.54,2.55-1.26,3.98-4.52,10.55-7.56,16.1-1.52,2.77-2.98,5.3-4.11,7.14-.56.92-1.04,1.67-1.39,2.18-.17.25-.32.45-.41.56l-.08.09.5.52-.22-.67c-.28.11-.26.16-.28.16l.5.52-.22-.67.25.75-.07-.79s.02-.02-.18.04l.25.75-.07-.79s-.27.01-.62.02c-5.53.12-41.64.07-78.09.71-18.23.32-36.55.81-51.21,1.58-7.33.38-13.75.84-18.79,1.37-2.52.27-4.7.56-6.49.87-1.79.32-3.18.65-4.18,1.06-6.46,2.61-12.27,6.46-16.51,10.22-2.12,1.88-3.85,3.74-5.07,5.45-1.21,1.71-1.97,3.23-1.99,4.69-.03.92.43,1.89,1.28,2.39.57.35,1.21.45,1.87.45,1.78-.01,4.01-.75,6.68-1.8,3.99-1.58,8.87-3.92,13.69-5.85,4.81-1.94,9.57-3.45,13.12-3.44h135.96v-1l-.95-.31-5.24,16.34.95.31.02-1s-58.65-1.37-104.52-1.37c-11.47,0-22.14.09-30.9.3-8.77.22-15.6.55-19.49,1.08-11.77,1.61-23.42,9.67-32.22,17.71-4.4,4.03-8.07,8.06-10.66,11.32-1.3,1.63-2.32,3.07-3.03,4.23-.36.58-.64,1.1-.84,1.55-.2.47-.34.84-.36,1.33,0,.91.36,1.75.92,2.45.84,1.05,2.11,1.85,3.62,2.42,1.51.57,3.27.9,5.13.9,1.61,0,3.29-.25,4.92-.82.98-.35,1.83-1,2.65-1.81,1.43-1.43,2.81-3.4,4.44-5.59,2.44-3.28,5.4-7.02,9.57-9.98,4.17-2.96,9.54-5.18,16.94-5.38,4.61-.12,13.39-.17,24.48-.17,22.14,0,53.47.2,79.26.39,12.9.1,24.41.2,32.7.27,4.14.04,7.48.07,9.79.09,2.3.02,3.56.03,3.57.03v-1s-.99-.06-.99-.06c0,.01-.71,12.09-.71,25.84,0,8.32.26,17.25,1.1,24.52.42,3.64.99,6.87,1.76,9.43.39,1.28.82,2.4,1.34,3.33.52.93,1.12,1.69,1.89,2.2,2.69,1.76,6.45,2.32,10.46,2.32,4.9,0,10.19-.88,14.29-1.86,2.05-.49,3.8-1,5.06-1.46.63-.23,1.15-.44,1.54-.64.2-.11.37-.2.55-.34l.28-.29c.09-.13.22-.34.22-.67,0-.29-.14-.6-.32-.76h0s0-.01,0-.01c-.15-.16-.91-1.11-1.88-2.74-2.93-4.91-8.1-16.25-8.1-34.53,0-8.76,1.19-19.12,4.39-31.12,6.11-22.94,19.24-45.68,30.84-62.66,5.8-8.49,11.22-15.54,15.18-20.47,1.98-2.46,3.6-4.39,4.72-5.71.56-.66,1-1.16,1.29-1.5.3-.34.45-.51.45-.51l.05-.06s.78-1.01,1.55-2.43c.77-1.43,1.58-3.27,1.59-5.16,0-.85-.18-1.73-.66-2.51-.48-.79-1.24-1.45-2.25-1.89-.45-.2-.96-.3-1.62-.4-1.94-.29-5.15-.39-9.24-.39-16.43,0-47.05,1.75-60.6,1.75-1.78,0-3.25-.03-4.35-.1-.55-.03-1-.08-1.33-.12l-.4-.07-.11-.03h-.03s-.24.51-.24.51l.42-.41-.17-.12-.24.53.42-.41-.14.13.16-.1-.03-.03-.14.13.16-.1s-.13-.28-.21-.67c-.26-1.19-.42-3.57-.42-6.74,0-12.04,2.13-35.8,6.62-58.58,2.25-11.4,5.08-22.55,8.53-31.88,3.43-9.33,7.51-16.82,12.04-20.84,4.51-4.03,11.31-6.88,19.37-8.69,8.06-1.81,17.37-2.6,26.87-2.6,13.53,0,27.45,1.59,38.73,4.01,5.64,1.21,10.63,2.62,14.57,4.14,3.94,1.5,6.83,3.15,8.21,4.63.58.61,1.27,1.79,1.93,3.45,2.35,5.81,4.5,17.23,6.02,31.46,1.53,14.24,2.45,31.34,2.45,48.71,0,16.85-.87,33.96-2.9,48.94-2.03,14.98-5.24,27.85-9.81,36.14-2.93,5.33-5.69,9.1-8.22,11.51-2.53,2.41-4.77,3.4-6.68,3.4-2.17,0-4.22-1.26-6.18-3.9-2.92-3.94-5.34-10.82-6.97-19.62-1.64-8.81-2.52-19.54-2.52-31.26,0-2.03.03-4.09.08-6.17.61-24.13,3.77-53.54,8.77-77,2.49-11.73,5.45-21.98,8.75-29.3,1.64-3.66,3.38-6.58,5.12-8.58,1.76-2,3.47-3.02,5.11-3.14h.13c.51,0,1,.21,1.6.82,1.03,1.05,2.09,3.31,2.94,6.44,2.6,9.43,3.73,26.7,3.73,45.62,0,19.57-1.18,40.95-3.07,57.55-.94,8.29-2.06,15.4-3.29,20.44-.61,2.52-1.25,4.53-1.87,5.87-.31.67-.62,1.18-.88,1.48-.26.31-.45.38-.47.38h-.09s-.3-.09-.3-.09c-.25-.15-.65-.59-1.03-1.33-.68-1.3-1.33-3.46-1.88-6.22-1.65-8.29-2.46-22.02-2.45-36.53,0-12.99.64-26.64,1.86-37.67.61-5.51,1.37-10.37,2.25-14.14.87-3.77,1.94-6.48,2.88-7.5,4.51-5.09,17.47-19.67,29.43-34.53,5.98-7.43,11.71-14.93,16.01-21.38,2.15-3.22,3.95-6.18,5.26-8.75,1.3-2.58,2.12-4.74,2.27-6.53.06-.74.08-1.43.08-2.08,0-2.65-.44-4.66-1.21-6.26-1.15-2.4-2.97-3.76-4.66-5.05-1.7-1.3-3.3-2.54-4.5-4.74-.85-1.55-1.74-4.21-2.74-7.34-1.5-4.7-3.27-10.48-5.87-15.58-2.6-5.09-6.04-9.57-11.03-11.46-3.22-1.2-8.58-1.98-15.06-2.51-6.47-.52-14.01-.75-21.42-.75-7.72,0-15.3.25-21.38.7-3.04.23-5.71.5-7.84.82-2.14.33-3.72.67-4.75,1.15-3.25,1.55-7.26,4.53-10.52,7.66-1.63,1.57-3.07,3.17-4.13,4.68-1.05,1.52-1.77,2.9-1.79,4.3,0,.25.03.5.09.75.11.43.38.71.63.89.49.35,1.03.51,1.73.67,2.57.58,7.34.8,13.33,1.05,8.96.36,20.52.74,30.41,2.15,4.94.71,9.47,1.67,13.02,3,3.55,1.32,6.06,3.02,7.11,4.96,2.44,4.39,3.3,10.95,3.29,17.59,0,6.23-.73,12.53-1.46,17.27-.37,2.37-.73,4.35-1.01,5.73-.14.69-.25,1.23-.33,1.6-.08.37-.12.56-.12.56l.97.22,1-.06s-.3-5.32-.91-10.65c-.3-2.67-.68-5.34-1.14-7.39-.23-1.03-.48-1.9-.8-2.59-.16-.35-.33-.65-.58-.93-.24-.27-.64-.56-1.18-.57-.32,0-.61.11-.83.26-.22.15-.39.33-.53.52-.27.37-1.02.92-2.16,1.39-3.44,1.47-10.1,2.53-17.45,2.52-4.91,0-10.13-.46-14.98-1.52-6.17-1.36-9.23-4.56-12.65-7.68-1.7-1.55-3.49-3.08-5.77-4.21-2.27-1.14-5.02-1.85-8.56-1.85-2.09,0-4.46.25-7.18.79-8.03,1.61-15.71,2.45-22.06,2.45-4.99,0-9.17-.53-11.98-1.56-1.41-.51-2.45-1.14-3.11-1.82-.65-.69-.95-1.38-.96-2.25,0-3.43,1.43-7.26,2.9-10.19.73-1.47,1.47-2.71,2.02-3.58.27-.44.5-.78.66-1.01s.24-.35.24-.35c.3-.42.23-1.01-.16-1.34s-.98-.32-1.35.04c-.02.02-6.51,6.39-13.43,14.94-3.46,4.27-7.02,9.09-9.94,13.94-2.92,4.85-5.19,9.73-6.04,14.2-1.61,8.52-3.22,14.49-4.42,18.33-.6,1.92-1.1,3.3-1.44,4.2-.17.45-.31.78-.4.99l-.1.23-.03.07.91.42.84-.54s-4.81-7.55-12.11-15.1c-3.65-3.78-7.93-7.57-12.58-10.43-4.65-2.86-9.69-4.82-14.86-4.82-2.32,0-4.67.4-6.98,1.29-5.69,2.2-13.56,8.16-22.53,16.31-13.44,12.21-29.23,29.3-42.81,45.7-13.59,16.41-24.94,32.08-29.53,41.61-5.97,12.4-22.28,40.41-37.37,67.69-7.55,13.65-14.79,27.13-20.31,38.43-2.76,5.65-5.08,10.76-6.79,15.08-1.71,4.33-2.82,7.85-3.14,10.45-.11.95-.17,1.79-.17,2.55,0,1.6.23,2.82.83,3.76.3.47.7.85,1.18,1.09.48.24,1,.35,1.52.34.99,0,1.99-.33,3.07-.84,3.75-1.78,8.61-5.97,13.55-9.99,2.46-2.01,4.92-3.97,7.19-5.55,2.27-1.58,4.37-2.77,6.01-3.24,3.59-1.03,5.88-3.32,7.12-6.12,1.26-2.81,1.58-6.1,1.59-9.45,0-4.46-.59-9.07-.59-12.67,0-.35.16-1.13.54-2.12,1.39-3.8,5.41-10.9,10.68-19.29,7.91-12.6,18.65-28.21,27.8-40.74,4.57-6.26,8.75-11.76,11.97-15.71,1.61-1.98,2.98-3.57,4.02-4.67.52-.55.96-.97,1.29-1.25l.39-.29.08-.05v-.03s0,.03,0,.03h0s-.01-.03-.01-.03v.03s-.11-.36-.11-.36l.08.37h.05s-.12-.37-.12-.37l.08.37-.04-.2v.2s.04,0,.04,0l-.04-.2v.2s0-.15,0-.15l-.07.14h.07s0-.14,0-.14l-.07.14s.16.12.34.4c.33.53.72,1.53,1.08,2.83,1.27,4.56,2.3,12.66,3.55,19.69.63,3.52,1.31,6.78,2.13,9.27.41,1.25.86,2.3,1.4,3.14.27.42.57.78.92,1.08.35.3.78.53,1.26.61.58.1,1.16.14,1.75.14,2.83,0,5.67-1.06,8.09-2.75,2.42-1.7,4.44-4.06,5.58-6.78.5-1.22.82-3.21,1.07-5.85.24-2.62.37-5.84.37-9.3,0-6.18-.43-13.1-1.46-18.69-.52-2.8-1.19-5.26-2.07-7.18-.44-.96-.94-1.78-1.54-2.44-.59-.66-1.3-1.16-2.14-1.37-1.73-.43-3.98-.52-6.5-.52-2.7,0-5.7.12-8.54.12-3.18,0-6.17-.16-8.24-.74-1.03-.29-1.81-.67-2.27-1.11-.46-.44-.67-.87-.68-1.57,0-.28.04-.6.14-.97,1.1-4.21,3.95-9.69,7.39-14.03,1.72-2.17,3.59-4.06,5.43-5.38,1.84-1.32,3.63-2.05,5.17-2.05.78,0,2.94.24,5.93.69,10.54,1.58,32.07,5.61,51.08,9.79,9.5,2.09,18.39,4.22,24.94,6.1,3.28.94,5.97,1.82,7.85,2.58.94.38,1.67.73,2.13,1.03.23.14.4.27.48.35l.06.07.22-.15-.26.07.03.08.22-.15-.26.07c.04.14.07.36.07.65.01,1.4-.71,4.1-1.99,7.24-1.92,4.72-5.05,10.56-8.62,15.49-3.55,4.94-7.61,8.95-11.01,10.1-1.11.39-2.75.59-4.72.59-7.16,0-18.61-2.56-28.18-5.14-4.79-1.29-9.12-2.58-12.26-3.55-1.57-.48-2.83-.89-3.71-1.17-.87-.28-1.35-.44-1.35-.44l-.32.95.95.3c.01-.06,1.55-4.86,1.56-10.42,0-2.98-.44-6.18-1.87-9-1.42-2.82-3.91-5.21-7.74-6.35-3.7-1.11-7.28-1.45-10.51-1.45-5.29,0-9.74.91-12.22.9-.83,0-1.41-.12-1.61-.25l-.17-.16c-.03-.06-.07-.17-.07-.39l.02-.32c.05-.45.48-1.64,1.21-3.15,2.55-5.34,8.64-15.25,14.8-23.79,3.08-4.27,6.19-8.22,8.88-11.09,1.34-1.43,2.58-2.6,3.62-3.39,1.04-.8,1.91-1.18,2.3-1.19h.36c1.21-.01,3.89.24,7.49.68,10.81,1.31,30.14,4.27,46.71,6.9,8.25,1.31,15.83,2.53,21.34,3.43,5.51.9,8.95,1.47,8.96,1.47.45.07.89-.16,1.08-.58.19-.42.07-.9-.29-1.19l-56.88-45.78c-.37-.3-.89-.29-1.26,0l-12.95,10.64c-.24.19-.37.49-.36.8s.16.59.4.78l52.72,39.31c.17.13.38.2.6.2,0,0,1.53,0,3.83.07,3.45.1,8.64.36,12.91.99,2.13.31,4.04.73,5.32,1.23.64.24,1.12.52,1.38.74.26.24.26.33.26.36l-.08.23c-.78,1.44-1.41,3.55-2.08,6.02-.99,3.7-2.02,8.18-3.35,11.95-.66,1.88-1.4,3.58-2.21,4.89-.81,1.32-1.69,2.21-2.54,2.6-1.49.7-2.9,2.09-4.29,3.93-4.13,5.53-7.99,15.25-8.01,23.25,0,2.35.34,4.57,1.16,6.49l.16.25s1.98,2.32,4.64,5.11c2.67,2.79,6.02,6.04,8.91,7.98.28.19.63.33,1.02.33.41,0,.79-.16,1.06-.38.53-.42.83-.97,1.12-1.66.53-1.28.96-3.11,1.39-5.46,1.49-8.18,2.81-22.61,5.33-37.72,2.52-15.1,6.26-30.85,12.45-41.46,3.55-6.11,5.05-10.79,5.06-14.51.02-3.41-1.34-5.99-3.4-7.75-3.1-2.64-7.58-3.6-11.77-4.16-2.09-.28-4.12-.44-5.85-.61-1.73-.17-3.18-.36-4.02-.63-.66-.21-1.61-.75-2.69-1.57-3.83-2.88-9.4-8.97-15.21-14.72-2.91-2.88-5.9-5.69-8.81-7.99-2.91-2.3-5.74-4.12-8.43-5-.6-.2-.94-.45-1.14-.7-.2-.26-.3-.56-.31-1.03,0-.78.38-1.98,1.2-3.39,1.43-2.48,4.08-5.61,7.49-8.94,10.21-10,27.2-21.86,38.42-25.98,6.07-2.24,10.71-6.46,13.83-11.31,3.12-4.85,4.73-10.34,4.73-15.23,0-3.5-.83-6.73-2.63-9.17-1.79-2.44-4.61-4.02-8.22-4.15-.21,0-.41-.01-.61-.01-4.2,0-7.99,1.65-11.36,4.06-5.05,3.62-9.24,8.98-12.69,13.5-1.72,2.26-3.26,4.32-4.59,5.84-.66.76-1.27,1.37-1.81,1.81-.53.44-.98.67-1.26.72-.54.13-1.91.24-3.77.34-6.54.35-19.46.64-32.06,2.7-6.3,1.03-12.53,2.51-17.88,4.69-5.34,2.18-9.83,5.07-12.57,9.01-5.53,8.02-14.61,11.68-22.42,13.75-3.9,1.04-7.46,1.68-10.11,2.31-1.33.32-2.42.62-3.27,1.02-.43.2-.81.43-1.13.75-.32.32-.58.81-.58,1.34l.05.43h0c.17.62.54.93.94,1.24.76.56,1.87,1.07,3.36,1.64,5.17,1.97,14.84,4.36,25.43,6.28,10.59,1.92,22.06,3.36,30.8,3.36,5.01,0,9.09-.45,11.77-1.67,6.53-3.04,13.1-8.87,20.12-14.91,7.01-6.05,14.43-12.31,22.45-16.23,6.33-3.11,12.83-8.57,17.8-14.35,2.48-2.89,4.58-5.87,6.07-8.69,1.49-2.83,2.39-5.5,2.4-7.87,0-1.54-.41-2.99-1.35-4.13-.95-1.14-2.37-1.91-4.19-2.28-.73-.15-1.44-.22-2.13-.22-3.38,0-6.18,1.72-8.58,4.12-3.61,3.61-6.53,8.86-9.68,13.29-1.57,2.21-3.19,4.22-4.91,5.7-1.73,1.49-3.53,2.44-5.53,2.69-6.24.76-17.51,1.23-28.04,1.96-5.27.37-10.36.8-14.59,1.38-2.11.29-4.01.61-5.61.99-1.61.38-2.91.8-3.9,1.33-.4.22-.67.28-.76.27l-.06-.02s-.21-.28-.3-.78c-.1-.5-.15-1.19-.15-2.01,0-2.68.48-6.6.48-10.31,0-2.19-.16-4.31-.75-6.14-.57-1.82-1.65-3.42-3.45-4.17-.95-.39-2.16-.51-3.68-.52-3.87,0-9.79.94-16.64,2.43-10.26,2.24-22.56,5.76-32.66,9.39-5.05,1.82-9.56,3.66-13,5.39-1.72.87-3.19,1.71-4.33,2.53-1.15.83-1.99,1.6-2.48,2.51-1.1,2.14-2.07,5.96-3.02,10.64-2.8,14-4.98,35.32-4.98,35.34-.05.46.23.89.67,1.05s.92-.02,1.17-.41c0,0,.21-.33.61-.92,1.39-2.09,5.07-7.43,9.83-12.97,4.75-5.54,10.6-11.27,16.19-14.11,6.51-3.33,19.31-7.89,30.42-11.58,5.56-1.85,10.71-3.48,14.47-4.66s6.12-1.88,6.12-1.89c.45-.14.75-.57.71-1.04,0,0-.03-.38-.06-1.09-.03-.71-.06-1.75-.06-3.04-.02-7.32,1.04-22.77,8.57-33.13,3.56-4.96,10.57-8.05,18.32-9.8,7.74-1.77,16.15-2.23,22.41-2.23,4.63,0,8.11.26,9.18.41l.38.03c.85,0,1.58-.42,2.11-.98.94-.98,1.53-2.4,2.04-4.03,1.48-4.85,1.84-11.64,1.85-11.68.02-.31-.11-.6-.34-.8-.23-.2-.54-.29-.84-.24,0,0-.39.07-1.09.18-2.09.32-6.89.97-11.6.97-2.91,0-5.79-.25-7.91-.93-1.06-.34-1.91-.78-2.49-1.29-.58-.52-.91-1.07-1.03-1.79-.07-.46-.1-.89-.1-1.28,0-1.45.42-2.43,1.1-3.22,1.01-1.18,2.79-1.92,4.8-2.34,2-.42,4.18-.53,5.93-.64l.5-.02c2.22,0,5.19.88,7.53,1.79,1.18.45,2.2.91,2.94,1.25.37.17.66.31.86.41.2.1.3.15.3.15.47.25,1.06.08,1.32-.38,0,0,.07-.13.22-.38,1.12-1.86,6.33-10.34,13.29-18.31,3.48-3.98,7.4-7.84,11.43-10.66,4.03-2.84,8.15-4.62,12-4.61,1.69,0,3.33.33,4.95,1.07,4.88,2.23,8.75,6.7,11.39,12.23,2.64,5.52,4.04,12.07,4.03,18.3,0,5.1-.94,9.98-2.83,13.9-1.9,3.92-4.71,6.86-8.52,8.29-4.62,1.72-9.01,2.52-12.94,2.52-5.18,0-9.53-1.39-12.54-3.84-3.01-2.46-4.75-5.94-4.76-10.44,0-.74.05-1.5.15-2.29.91-7.3,3.13-15.45,6.51-21.69,1.69-3.12,3.67-5.75,5.88-7.58,2.21-1.82,4.61-2.84,7.27-2.84,1.23,0,2.19.4,3.07,1.16,1.54,1.31,2.73,3.89,3.52,7.1,1.2,4.81,1.58,10.95,1.82,16.21.12,2.63.21,5.05.36,7,.07.98.16,1.83.29,2.56.13.73.26,1.31.54,1.83.22.4.52.64.85.85.62.39,1.41.67,2.41.95,3.48.95,9.55,1.66,16.52,2.15,6.95.49,14.76.76,21.56.76,4.42,0,8.41-.11,11.49-.35,1.54-.12,2.85-.27,3.89-.45.52-.09.97-.2,1.36-.32.39-.13.73-.26,1.05-.49,1.34-1.01,2.43-2.37,3.19-3.8.76-1.44,1.22-2.94,1.23-4.32,0-.75-.14-1.47-.51-2.12-.36-.64-.99-1.16-1.76-1.38-.28-.08-.55-.12-.92-.16-1.06-.11-2.79-.14-5.01-.15-11.81,0-37.25,1.18-37.26,1.18l.05,1,.98.18s.79-4.32.79-9.71c0-2.94-.23-6.21-.97-9.32-.74-3.11-1.98-6.07-4.08-8.34l-.73.68v1s4.26-.05,10.96-.11c6.7-.05,15.85-.11,25.65-.11,13.37,0,27.95.1,39.17.44,5.61.17,10.39.4,13.73.71,1.67.15,2.98.32,3.83.5.42.09.72.18.84.24l.05.02.23-.36-.33.26.11.1.23-.36-.33.26.62-.49h-.78c0,.22.1.41.16.49l.62-.49h-.78s.8,0,.8,0l-.78-.2-.02.2h.8l-.78-.2.97.25-.96-.26c-.46,1.68-1.3,4.58-2.39,7.38-1.08,2.79-2.48,5.49-3.78,6.64l.23.25-.17-.3-.06.04.23.25-.17-.3-.13.05c-.32.1-1.06.21-2.05.28-.99.07-2.26.1-3.74.1-7.68,0-21.12-.82-34.17-1.65-13.06-.83-25.73-1.65-32.05-1.65-1.29,0-2.32.03-3.08.12-.38.04-.69.09-.99.19-.15.05-.31.11-.5.26-.18.13-.46.46-.45.9l.08.41.93-.37-.93.35c.11.28.28.44.41.54.27.2.5.29.77.38,1.02.34,2.74.6,5.16.88,8.4.96,24.75,1.87,39.02,2.88,7.13.51,13.74,1.04,18.54,1.62,2.4.29,4.35.59,5.65.89.65.15,1.14.3,1.39.42l.14.07.03.02.26-.33-.35.22.09.11.26-.33-.35.22.62-.38h-.72s.11.38.11.38l.62-.38h-.72s.72,0,.72,0l-.61-.38-.11.38h.72l-.61-.38h0c-.39.63-1.46,1.63-2.93,2.64-4.43,3.09-12.55,6.64-18.49,7.06-4.15.31-6.69.46-8.18.54-.75.04-1.23.06-1.53.07h-.31s-.08,0-.08,0c-.28,0-.54.12-.73.32-.19.2-.28.48-.26.75l.44-.03-.44.02v.02s.44-.03.44-.03l-.44.02v.02c0,.31-.11,3.95-6.2,10.33-.54.57-.92,1.22-.93,1.98,0,.52.2,1.02.5,1.39.56.71,1.37,1.15,2.38,1.56,1.76.69,4.2,1.19,7.07,1.59,8.58,1.18,20.94,1.37,27.97,1.37,3.27,0,5.38-.04,5.38-.04.55-.01.99-.47.98-1.02-.01-.55-.47-.99-1.02-.98,0,0-2.09.04-5.35.04-5.67,0-14.88-.12-22.63-.79-3.87-.33-7.38-.81-9.85-1.45-1.23-.32-2.2-.69-2.78-1.04-.29-.17-.47-.34-.56-.45l-.08-.17s.03-.24.37-.6c6.34-6.63,6.76-10.81,6.75-11.71v-.16s-1,.07-1,.07v1c.05,0,1.91,0,10.24-.62,4.36-.33,9.44-2.06,13.77-4.14,2.16-1.04,4.13-2.17,5.72-3.27,1.59-1.11,2.79-2.16,3.48-3.22h0c.11-.18.2-.42.2-.69,0-.28-.1-.53-.22-.71-.24-.35-.5-.49-.77-.63-.52-.26-1.16-.44-1.99-.64-3.09-.7-8.82-1.3-15.78-1.87-10.43-.86-23.55-1.63-34.15-2.38-5.29-.38-9.96-.75-13.31-1.13-1.68-.19-3.03-.38-3.94-.57-.45-.09-.8-.19-.99-.26l-.1-.04h-.03s-.33.54-.33.54l.58-.22c-.14-.31-.26-.33-.25-.34l-.33.56.58-.22h0s-.82.31-.82.31h.88s-.06-.32-.06-.32l-.82.32h.88s-.84,0-.84,0l.52.67c.09-.06.32-.31.32-.67h-.84l.52.67-.34-.44.25.5.09-.06-.34-.44.25.5-.07-.13.05.14h.02s-.07-.14-.07-.14l.05.14s.48-.11,1.07-.15c.6-.04,1.41-.06,2.37-.06,6.18,0,18.87.82,31.92,1.65,13.06.83,26.49,1.65,34.3,1.65,1.84,0,3.36-.05,4.53-.15.58-.05,1.08-.12,1.5-.22.42-.11.77-.19,1.16-.52,1.78-1.63,3.15-4.48,4.31-7.39,1.14-2.91,1.99-5.87,2.46-7.58v-.02s.04-.29.04-.29c0-.42-.23-.74-.41-.9-.36-.32-.68-.41-1.08-.55-.74-.22-1.75-.39-3.08-.55-9.22-1.08-33.51-1.33-54.78-1.33-19.62,0-36.62.22-36.62.22-.39,0-.75.24-.91.6s-.08.78.18,1.07c1.77,1.91,2.91,4.55,3.6,7.45.69,2.89.92,6.03.92,8.86,0,2.6-.19,4.94-.38,6.64-.1.85-.19,1.53-.26,2s-.12.71-.12.71c-.05.3.03.61.23.84.2.23.5.35.8.34,0,0,1.59-.07,4.16-.18,7.7-.33,24.23-1,33.01-1,1.46,0,2.71.02,3.65.06.47.02.86.05,1.16.08.29.03.51.07.54.08.31.1.46.23.61.47.14.24.24.62.24,1.11,0,.92-.35,2.18-.99,3.38-.64,1.2-1.57,2.36-2.63,3.15,0,0-.17.1-.45.18-.99.31-3.16.6-5.97.77-2.82.17-6.33.26-10.17.26-8.23,0-17.98-.39-25.81-1.1-3.92-.36-7.36-.8-9.87-1.3-1.25-.25-2.27-.52-2.97-.78-.35-.13-.62-.26-.78-.36l-.16-.12-.02-.02-.14.11.16-.09-.02-.03-.14.11.16-.09c-.14-.22-.36-1.13-.48-2.35-.47-4.33-.38-12.8-1.46-20.2-.55-3.71-1.38-7.17-2.8-9.82-.72-1.32-1.59-2.45-2.69-3.26-1.1-.81-2.44-1.28-3.92-1.28-3.2,0-6.08,1.25-8.55,3.3-3.71,3.08-6.6,7.91-8.78,13.37-2.17,5.46-3.62,11.56-4.32,17.19-.11.87-.16,1.71-.16,2.53-.01,5.03,2.04,9.19,5.5,11.99,3.46,2.81,8.27,4.29,13.8,4.29,4.2,0,8.82-.85,13.64-2.65,4.38-1.63,7.57-5.03,9.62-9.29,2.06-4.27,3.03-9.42,3.03-14.77,0-6.52-1.45-13.33-4.23-19.16-2.78-5.82-6.92-10.69-12.36-13.19-1.88-.86-3.82-1.25-5.78-1.25-4.77,0-9.52,2.28-13.99,5.58-6.7,4.95-12.84,12.28-17.34,18.38-4.49,6.1-7.33,10.97-7.34,10.99l.86.5.46-.89s-1.84-.95-4.29-1.9c-2.46-.95-5.54-1.92-8.25-1.92-.21,0-.42,0-.62.02-2.31.15-5.57.28-8.39,1.28-1.41.51-2.73,1.24-3.72,2.38-.99,1.13-1.59,2.67-1.59,4.53,0,.5.04,1.03.13,1.59.18,1.21.81,2.23,1.68,2.99,1.31,1.14,3.12,1.78,5.14,2.18,2.03.4,4.3.54,6.57.54,6.51,0,13.01-1.17,13.04-1.18l-.18-.98-1-.06s-.01.23-.05.66c-.11,1.48-.45,5.22-1.19,8.52-.37,1.65-.85,3.19-1.39,4.23-.27.52-.56.91-.8,1.12-.25.22-.41.27-.57.27h-.09c-1.26-.19-4.75-.44-9.46-.44-6.36,0-14.89.47-22.86,2.28-7.96,1.83-15.41,4.96-19.49,10.58-7.97,11.06-8.93,26.8-8.95,34.3,0,2.65.13,4.26.13,4.29l1-.08-.29-.96s-9.49,2.86-20.64,6.56c-11.16,3.71-23.95,8.25-30.7,11.7-6.87,3.53-13.65,10.69-18.79,16.98-5.13,6.29-8.59,11.71-8.6,11.73l.84.54.99.1s.24-2.36.67-6.03c.64-5.5,1.69-13.94,2.96-21.71.63-3.88,1.32-7.6,2.03-10.69.7-3.08,1.46-5.56,2.13-6.83.26-.55,1.33-1.54,3.01-2.56,2.93-1.82,7.66-3.92,13.26-6.02,8.4-3.15,18.79-6.31,28.28-8.67,9.48-2.37,18.1-3.93,22.8-3.93,1.39,0,2.43.15,2.9.36,1.11.47,1.83,1.44,2.33,2.94.48,1.49.65,3.45.65,5.53,0,3.55-.48,7.43-.48,10.31,0,1.19.07,2.21.37,3.08.15.43.37.85.74,1.19.36.34.9.54,1.41.53.59,0,1.14-.2,1.72-.52.71-.39,1.89-.79,3.4-1.14,5.31-1.25,14.58-2,23.85-2.58,9.28-.59,18.58-1.03,24.18-1.71,3.34-.41,6.07-2.39,8.45-4.96,3.57-3.87,6.49-9.18,9.64-13.46,1.57-2.14,3.18-4.01,4.89-5.32,1.72-1.31,3.48-2.05,5.49-2.05.55,0,1.13.06,1.73.18,1.51.31,2.46.88,3.05,1.6.59.72.89,1.65.89,2.85,0,1.85-.76,4.29-2.17,6.94-4.2,7.98-13.98,17.79-22.98,22.18-8.33,4.09-15.85,10.46-22.88,16.51-7.01,6.06-13.54,11.79-19.65,14.61-2.12,1-6.07,1.5-10.93,1.49-10.39,0-25.07-2.11-37.18-4.64-6.06-1.26-11.48-2.62-15.41-3.86-1.96-.62-3.55-1.21-4.62-1.72-.54-.25-.94-.49-1.18-.67l-.22-.19h-.01s-.26.17-.26.17l.31-.07-.04-.11-.26.19.31-.07h0s-.12.02-.12.02h.13v-.03s-.13.03-.13.03h.13-.2l.18.08.02-.08h-.2l.18.08h-.03s.03,0,.03,0h0s-.03-.02-.03-.02l.03.02s.47-.39,1.29-.65c1.43-.5,3.82-.97,6.69-1.59,8.59-1.87,21.7-5.07,29.2-15.89,2.73-3.97,7.76-6.97,13.94-9.16,9.25-3.29,20.96-4.77,30.86-5.51,4.95-.37,9.45-.57,12.98-.73,1.77-.08,3.29-.15,4.51-.23,1.23-.08,2.13-.17,2.78-.31,1-.24,1.85-.87,2.75-1.71,1.56-1.48,3.27-3.72,5.21-6.28,2.91-3.83,6.33-8.35,10.24-11.88,3.92-3.53,8.27-6.02,13.07-6.02.18,0,.36,0,.54.01,3.09.13,5.21,1.36,6.69,3.34,1.47,1.98,2.24,4.79,2.24,7.98,0,4.45-1.5,9.62-4.42,14.15-2.92,4.54-7.23,8.45-12.84,10.52-8.91,3.3-20.88,11-30.71,18.98-4.91,3.99-9.28,8.06-12.45,11.7-1.59,1.82-2.87,3.54-3.78,5.12-.9,1.58-1.46,3.02-1.47,4.39,0,.81.22,1.61.73,2.25.5.65,1.23,1.1,2.1,1.38,2.63.85,5.77,2.94,9.02,5.65,4.88,4.07,10.05,9.51,14.63,14.15,2.29,2.32,4.44,4.44,6.37,6.11,1.93,1.66,3.59,2.88,5.13,3.38,1.54.48,3.72.65,6.26.89,3.79.35,8.28.84,11.69,2.32,1.71.74,3.13,1.71,4.11,2.98.98,1.28,1.58,2.87,1.58,5.05,0,3.17-1.33,7.57-4.79,13.5-8.07,13.89-11.92,35.49-14.45,53.67-1.26,9.08-2.18,17.31-3.09,23.22-.45,2.95-.91,5.34-1.39,6.91-.23.78-.48,1.37-.68,1.67l-.19.24.07.1-.04-.11h-.03s.07.11.07.11l-.04-.11.12.32v-.34l-.12.02.12.32v-.34.29l.1-.28h-.1s0,.28,0,.28l.1-.28-.03.09.04-.08h-.01s-.03.08-.03.08l.04-.08h-.02c-2.63-1.77-5.96-4.97-8.58-7.71-1.31-1.37-2.46-2.63-3.27-3.54s-1.29-1.48-1.29-1.48l-.76.65.92-.39c-.68-1.59-1-3.54-1-5.7,0-4.9,1.65-10.81,3.92-15.7,1.13-2.45,2.41-4.65,3.69-6.34,1.27-1.7,2.56-2.88,3.53-3.32,1.86-.88,3.17-2.72,4.29-4.97,1.66-3.38,2.84-7.81,3.9-11.89.52-2.03,1.01-3.98,1.49-5.63.48-1.65.96-3.02,1.42-3.84.2-.36.32-.77.32-1.18,0-.51-.19-1-.48-1.37-.54-.7-1.32-1.13-2.25-1.52-1.64-.66-3.84-1.11-6.29-1.46-7.3-1.03-16.66-1.03-16.69-1.03v1l.6-.8-51.69-38.54,11.34-9.31,56.25,45.27.63-.78.16-.99s-13.79-2.29-30.31-4.9c-11.06-1.75-23.33-3.65-33.5-5.11-5.09-.73-9.65-1.35-13.28-1.79-3.64-.44-6.3-.7-7.73-.7h-.49c-1.29.13-2.49.89-3.89,2.01-2.43,1.98-5.33,5.26-8.41,9.18-4.6,5.87-9.53,13.15-13.39,19.44-1.93,3.14-3.58,6.04-4.8,8.39-.61,1.18-1.11,2.22-1.47,3.1-.37.89-.61,1.59-.7,2.22-.03.2-.04.4-.04.59,0,.47.09.93.31,1.34.33.62.93,1.02,1.53,1.21.61.2,1.27.25,2.01.25,2.87-.01,7.13-.9,12.22-.9,3.09,0,6.47.33,9.94,1.37,3.34,1.01,5.3,2.94,6.54,5.34,1.23,2.4,1.66,5.31,1.65,8.09,0,2.59-.37,5.06-.73,6.87-.18.91-.37,1.65-.5,2.16-.07.26-.13.45-.16.59l-.06.19c-.17.52.12,1.08.64,1.25.01,0,7.79,2.6,17.44,5.2,9.65,2.6,21.12,5.2,28.7,5.21,2.1,0,3.91-.2,5.37-.7,2.79-.98,5.53-3.22,8.16-6.09,3.94-4.31,7.6-10.1,10.32-15.47,1.36-2.69,2.47-5.27,3.25-7.52.78-2.26,1.24-4.16,1.25-5.63,0-.42-.04-.8-.14-1.18-.13-.46-.39-.74-.67-.99-.54-.48-1.28-.88-2.25-1.32-3.62-1.63-10.63-3.62-19.32-5.77-13.02-3.21-29.75-6.68-43.86-9.36-7.05-1.34-13.45-2.48-18.41-3.29-2.48-.4-4.6-.72-6.26-.94-1.67-.22-2.86-.34-3.6-.34-2.16,0-4.29.96-6.34,2.42-3.07,2.21-5.98,5.63-8.39,9.35-2.4,3.72-4.28,7.73-5.19,11.17-.14.51-.21,1-.21,1.48-.01,1.21.5,2.29,1.32,3.04,1.23,1.12,2.99,1.65,5.03,1.98,2.05.32,4.4.4,6.84.4,2.89,0,5.89-.12,8.54-.12,2.46,0,4.62.11,6.02.46.35.09.73.32,1.14.77.72.78,1.43,2.22,2.02,4.08,1.79,5.6,2.54,14.91,2.53,22.89,0,3.4-.13,6.57-.37,9.11-.22,2.53-.59,4.5-.92,5.26-.96,2.31-2.74,4.41-4.88,5.91-2.14,1.5-4.62,2.4-6.94,2.39-.48,0-.96-.04-1.42-.12-.07-.01-.22-.07-.43-.28-.4-.39-.91-1.31-1.36-2.56-1.62-4.42-2.81-12.81-3.99-20.04-.6-3.62-1.19-6.97-1.88-9.46-.35-1.25-.71-2.29-1.16-3.1-.23-.4-.47-.76-.8-1.05-.32-.29-.78-.53-1.3-.52l-.37.04c-.41.1-.65.27-.94.47-.55.4-1.18,1.01-1.96,1.84-2.91,3.1-7.77,9.28-13.49,16.99-8.57,11.57-19,26.54-27.31,39.43-4.15,6.45-7.77,12.37-10.37,17.09-1.3,2.36-2.34,4.43-3.06,6.13-.72,1.72-1.16,3.01-1.17,4.1,0,3.8.59,8.37.59,12.67,0,3.22-.34,6.26-1.41,8.63-1.09,2.37-2.79,4.11-5.86,5.02-2.31.68-4.87,2.26-7.61,4.24-4.09,2.97-8.54,6.84-12.5,9.96-1.98,1.56-3.84,2.93-5.43,3.88-1.59.96-2.95,1.47-3.72,1.46-.27,0-.46-.05-.61-.12-.21-.11-.41-.3-.6-.79-.19-.48-.32-1.24-.32-2.29,0-.66.05-1.43.15-2.31.26-2.26,1.32-5.7,3.01-9.95,5.9-14.88,19.38-39.71,32.68-63.5,13.31-23.8,26.44-46.57,31.73-57.56,2.95-6.12,8.97-15.15,16.65-25.3,11.53-15.24,26.84-33.07,41.27-47.85,7.22-7.39,14.22-14.01,20.41-19.16,6.18-5.15,11.59-8.83,15.46-10.3,2.08-.8,4.17-1.15,6.27-1.15,4.65,0,9.36,1.78,13.81,4.52,6.67,4.11,12.71,10.34,17.06,15.55,2.17,2.6,3.92,4.95,5.13,6.64.6.85,1.07,1.53,1.38,2,.31.47.47.72.47.72.2.31.55.48.91.46s.69-.25.84-.58c.04-.08,3.29-7.1,6.55-24.28.77-4.09,2.94-8.81,5.79-13.54,4.27-7.1,10.05-14.24,14.75-19.58,2.35-2.67,4.43-4.9,5.92-6.46.75-.78,1.35-1.39,1.76-1.81s.63-.63.63-.63l-.7-.71-.81-.59s-1.55,2.15-3.09,5.22c-1.53,3.08-3.1,7.11-3.11,11.09,0,1.39.56,2.66,1.52,3.64,1.44,1.48,3.66,2.42,6.46,3.06,2.8.63,6.21.93,10.07.93,6.52,0,14.31-.86,22.45-2.49,2.62-.53,4.86-.75,6.79-.75,3.27,0,5.67.65,7.67,1.64,3.01,1.49,5.19,3.86,7.89,6.25,2.7,2.38,5.95,4.71,10.99,5.81,5.02,1.1,10.38,1.57,15.41,1.57,5.03,0,9.73-.47,13.44-1.26,1.86-.4,3.48-.87,4.79-1.43,1.31-.56,2.32-1.18,2.98-2.03l.05-.06h0s-.29-.38-.29-.38v.47s.29-.08.29-.08l-.29-.38v.47s0-.54,0-.54l-.26.47.26.06v-.54l-.26.47.15-.26-.19.23.05.03.15-.26-.19.23h0c.07.05.32.52.52,1.18.76,2.37,1.38,7.23,1.78,11.41.2,2.09.35,4.03.45,5.45.1,1.41.15,2.3.15,2.3.03.5.42.9.91.94.5.04.95-.29,1.06-.77,0-.04,2.97-12.86,2.97-25.62,0-6.81-.82-13.62-3.54-18.56-1.07-1.93-2.96-3.42-5.35-4.64-4.19-2.13-10.04-3.46-16.53-4.37-9.71-1.36-20.83-1.75-29.59-2.1-4.38-.18-8.17-.34-10.86-.61-1.34-.13-2.42-.3-3.1-.48-.34-.09-.59-.19-.69-.25l-.05-.03-.02.03.03-.03h0s-.02.03-.02.03l.03-.03-.34.35.46-.12-.13-.24-.34.35.46-.12-.03-.26c-.02-.6.47-1.81,1.43-3.15,2.84-4.09,9.45-9.59,13.88-11.68.62-.3,2.14-.68,4.19-.98,6.19-.93,17.42-1.51,28.93-1.5,7.37,0,14.87.23,21.26.75,6.38.51,11.69,1.32,14.51,2.39,2.84,1.07,5.2,3.18,7.21,5.95,3.01,4.14,5.16,9.69,6.88,14.85.86,2.58,1.62,5.06,2.34,7.24.72,2.18,1.4,4.03,2.15,5.42,1.9,3.47,4.67,4.92,6.66,6.65,1.01.86,1.84,1.77,2.46,3.05.61,1.28,1.01,2.96,1.01,5.39,0,.6-.02,1.24-.08,1.93-.09,1.29-.8,3.32-2.06,5.78-4.37,8.64-15.03,22.53-25.54,35.3-10.52,12.78-20.92,24.48-24.87,28.93-1.4,1.62-2.4,4.47-3.33,8.37-2.73,11.67-4.16,32.67-4.16,52.27,0,11.86.53,23.18,1.63,31.59.55,4.21,1.25,7.68,2.12,10.19.44,1.25.92,2.27,1.52,3.04.3.39.64.72,1.03.96.39.25.87.4,1.35.4l.46-.04c.68-.13,1.2-.55,1.63-1.05.8-.96,1.44-2.38,2.07-4.27,2.19-6.6,4.04-19.08,5.38-34,1.33-14.92,2.13-32.24,2.13-48.35,0-14.48-.64-27.98-2.13-37.93-.75-4.98-1.7-9.06-2.94-11.99-.62-1.47-1.31-2.65-2.15-3.53-.83-.87-1.88-1.44-3.04-1.44h-.29c-2.37.2-4.52,1.62-6.46,3.83-3.4,3.89-6.38,10.39-9.08,18.67-8.05,24.81-13.24,65.62-14.05,97.47-.05,2.1-.08,4.17-.08,6.22,0,15.76,1.57,29.77,4.48,39.94,1.46,5.08,3.24,9.21,5.4,12.13,2.14,2.92,4.77,4.71,7.79,4.71,2.63,0,5.32-1.34,8.06-3.95,2.75-2.62,5.6-6.55,8.59-11.99,4.78-8.7,7.98-21.72,10.04-36.83,2.05-15.11,2.92-32.29,2.92-49.21,0-19.93-1.21-39.5-3.16-54.88-.97-7.69-2.13-14.34-3.42-19.49-.65-2.57-1.32-4.77-2.04-6.55-.72-1.78-1.46-3.14-2.33-4.08-1.79-1.88-4.86-3.54-8.94-5.12-12.21-4.69-33.49-8.27-54.02-8.28-9.61,0-19.05.79-27.31,2.65-8.26,1.86-15.35,4.78-20.26,9.15-4.97,4.45-9.08,12.16-12.59,21.64-10.48,28.42-15.26,72.81-15.27,91.16,0,2.46.09,4.45.26,5.92.09.74.2,1.34.36,1.83.08.25.17.48.3.7.14.22.32.46.67.63.34.15.67.21,1.09.28,1.24.18,3.26.24,5.97.24,13.67,0,44.28-1.75,60.6-1.75,2.7,0,5.02.05,6.77.16.88.05,1.61.13,2.18.21.56.08.97.19,1.1.25.71.32,1.1.69,1.36,1.1.25.41.37.9.37,1.48.01,1.28-.64,2.93-1.34,4.21-.35.64-.7,1.19-.96,1.57-.13.19-.24.35-.31.45l-.11.15.79.61-.74-.67c-.04.06-40.49,45.08-52.94,91.66-3.25,12.16-4.46,22.7-4.46,31.64,0,12.63,2.43,22.09,4.95,28.48,1.26,3.2,2.55,5.63,3.58,7.31.51.84.96,1.5,1.3,1.97.35.48.57.75.74.92h0s.65-.65.65-.65h-.91c0,.24.13.52.26.64l.65-.64h-.91s.85,0,.85,0l-.69-.51c-.05.07-.15.23-.16.51h.85l-.69-.51.39.28-.31-.38-.08.09.39.28-.31-.38s-.27.17-.65.33c-1.38.59-4.38,1.49-7.95,2.22-3.58.73-7.76,1.31-11.58,1.31-3.81,0-7.27-.6-9.36-1.99-.38-.25-.82-.75-1.24-1.5-.74-1.32-1.39-3.38-1.92-5.91-1.58-7.63-2.04-19.54-2.04-30.4,0-6.84.18-13.28.36-18,.09-2.36.18-4.29.24-5.64.07-1.34.11-2.09.11-2.09.02-.27-.08-.54-.27-.74-.19-.2-.45-.31-.72-.32,0,0-81.04-.79-125.34-.79-11.09,0-19.88.05-24.53.17-11.86.3-19.13,5.68-24.04,11.16-2.46,2.74-4.36,5.5-6,7.66-.82,1.08-1.57,2.01-2.28,2.71-.7.7-1.35,1.15-1.9,1.34-1.4.49-2.86.71-4.26.71-2.16,0-4.18-.52-5.59-1.3-.7-.39-1.25-.83-1.59-1.26-.34-.44-.49-.83-.49-1.2h-.12.12s0,0,0,0h-.12.12s.07-.28.24-.64c.65-1.38,2.54-4.11,5.28-7.32,4.13-4.84,10.22-10.89,17.23-15.97,7-5.09,14.92-9.19,22.62-10.22,3.71-.5,10.54-.85,19.28-1.06,8.74-.21,19.39-.3,30.85-.3,22.92,0,49.04.34,69.43.68,10.19.17,18.96.34,25.17.47,6.21.13,9.87.21,9.88.21.44.01.84-.27.97-.69l5.24-16.34c.1-.31.04-.63-.14-.89-.19-.26-.49-.41-.81-.41,0,0-124.85,0-135.96,0-5.42.02-12.33,2.86-18.72,5.63-3.19,1.39-6.23,2.77-8.82,3.8-2.58,1.03-4.75,1.68-5.95,1.66-.44,0-.71-.08-.83-.16-.25-.18-.31-.26-.33-.69-.02-.66.5-2,1.62-3.52,3.31-4.64,11.39-11.23,20.7-14.98.79-.32,2.17-.67,3.99-.98,6.85-1.19,19.97-2.06,35.71-2.68,23.63-.94,53.23-1.34,77.01-1.53,11.89-.1,22.32-.14,29.82-.17,3.75-.02,6.77-.03,8.87-.05,1.05,0,1.87-.02,2.45-.03.29,0,.51-.01.68-.02h.22s.1-.02.1-.02l.23-.05c.37-.15.41-.25.52-.34.18-.18.33-.38.53-.66.73-1.02,1.94-2.98,3.39-5.48,2.17-3.74,4.83-8.65,6.96-13.12,1.07-2.24,2-4.36,2.67-6.2.67-1.84,1.1-3.35,1.11-4.56v-.24c-.02-.32-.16-.63-.32-.84-.32-.41-.71-.61-1.14-.8-.76-.32-1.75-.54-3.01-.73-3.77-.57-9.95-.78-17.53-.78-27.04,0-71.65,2.82-82.03,3.46-8,.51-14.69,6.03-19.88,11.32-2.59,2.65-4.81,5.27-6.59,7.21-.89.97-1.67,1.77-2.29,2.31-.62.55-1.13.77-1.16.74h-.34c-.44.02-.71-.08-.8-.16-.08-.08-.18-.14-.19-.63,0-.48.17-1.29.65-2.44,1.45-3.46,5.6-9.77,14.48-20.41,2.13-2.57,6.05-5.01,11.29-7.19,9.16-3.83,22.28-6.9,36.76-9.31,21.73-3.63,46.54-5.81,65.9-7.09,9.68-.64,18.01-1.05,23.91-1.3,2.95-.13,5.3-.21,6.9-.26,1.61-.05,2.47-.08,2.47-.08l-.03-1-.73-.68c-.06.06-21.09,22.65-41.18,67.17-14.29,31.66-15.8,60.5-15.8,77.34,0,4.52.11,8.17.11,10.76,0,1.37-.03,2.44-.12,3.14l.42.05-.3-.32-.12.27.42.05-.3-.32-.03.02c-.09.06-.39.19-.82.29-1.33.32-3.89.49-7.33.49-19.32,0-66.8-5.05-109.37-10.1-21.29-2.53-41.36-5.05-56.11-6.95-7.38-.95-13.42-1.74-17.62-2.29-4.2-.55-6.55-.87-6.56-.87h-.33s-.46.1-1.34.26c-6.13,1.13-32.44,5.64-59.24,5.64-12.49,0-25.1-.98-35.78-3.72-18.46-4.73-34.78-14.67-46.93-23.87-6.07-4.6-11.11-9.01-14.85-12.48-3.75-3.48-6.18-5.99-7.16-6.88-.28-.24-.54-.38-.95-.61-1.54-.82-4.88-2.27-9.65-4.24-16.66-6.9-50.46-20.05-80.33-32.06-14.93-6.01-28.88-11.73-39.2-16.24-5.16-2.25-9.41-4.21-12.4-5.73-1.5-.76-2.68-1.42-3.49-1.93-.4-.26-.71-.48-.9-.65l-.19-.18-.02-.02-.3.19.33-.13-.03-.06-.3.19.33-.13c-.11-.28-.19-.76-.19-1.39,0-1.79.63-4.66,1.78-7.88,1.71-4.85,4.54-10.56,7.85-15.18,1.65-2.31,3.43-4.35,5.22-5.88,1.79-1.53,3.59-2.53,5.26-2.86.17-.03.4-.06.68-.06,1.48-.01,4.16.64,7.57,1.86,12,4.26,33.39,15.19,54.43,26.35,21.05,11.17,41.76,22.58,52.61,27.87,6.26,3.05,10.43,5.89,13.27,8.52,4.24,3.95,5.52,7.34,6.39,10.57.43,1.62.74,3.2,1.26,4.77.51,1.56,1.25,3.12,2.51,4.56,4.18,4.78,9.13,7.06,12.83,7.08,1,0,1.92-.17,2.72-.56.8-.38,1.46-1.01,1.83-1.83.36-.8.52-1.74.52-2.82,0-2.41-.78-5.61-2.42-9.86-1.64-4.24-4.15-9.51-7.69-15.96-1.27-2.27-4.21-4.77-8.47-7.74-14.87-10.3-45.94-25.39-73.55-38.76-13.8-6.68-26.73-12.92-36.28-17.89-4.78-2.48-8.72-4.65-11.48-6.38-1.38-.86-2.47-1.62-3.2-2.22-.37-.3-.64-.57-.81-.77l-.18-.24-.03-.06h0s0,0,0,0h0s0,0,0,0h0c-.09-.35-.13-.71-.13-1.09,0-1.52.72-3.37,1.97-5.24,1.86-2.82,4.81-5.69,7.61-7.89,1.4-1.1,2.75-2.04,3.9-2.74,1.14-.7,2.11-1.14,2.57-1.25h.12c.39-.02,1.39.2,2.74.66,4.79,1.6,14.32,6.01,27.55,12.25,13.23,6.25,30.2,14.35,50.01,23.41,14.55,6.65,23,12.25,27.75,16.84,4.75,4.6,5.8,8.06,5.81,10.68,0,1.35-.29,2.51-.6,3.54-.3,1.04-.66,1.91-.68,2.88,0,.32.05.68.21,1.01.82,1.77,2.68,3.87,5.06,5.65,2.38,1.76,5.26,3.18,8.19,3.19.71,0,1.42-.09,2.11-.28,1.75-.48,3.24-1.57,4.2-3.24.96-1.68,1.44-3.88,1.44-6.68,0-4.55-1.25-10.75-4.03-19.1-.91-2.66-3.35-5.33-6.89-8.23-6.19-5.05-15.85-10.65-26.91-16.34-16.59-8.53-36.34-17.22-52.08-24.18-7.87-3.48-14.74-6.53-19.71-8.9-2.48-1.18-4.48-2.2-5.88-3.01-.7-.4-1.24-.75-1.59-1.02l-.38-.32-.06-.07-.22.16.25-.09-.03-.06-.22.16.25-.09c-.08-.22-.12-.45-.12-.71-.01-.86.53-2.07,1.56-3.35,1.52-1.91,4.01-3.93,6.46-5.5,2.44-1.58,4.91-2.73,6.18-2.99v-.08s0,.08,0,.08h0s-.02-.08-.02-.08v.08s.1,0,.1,0c.22,0,.75.07,1.43.24,2.6.63,7.62,2.46,13.8,5.01,9.29,3.82,21.29,9.25,32.28,14.74,10.99,5.48,20.99,11.03,26.19,14.99,7.03,5.34,13.47,12.1,18.88,17.55,2.71,2.73,5.17,5.13,7.36,6.88,2.2,1.74,4.1,2.91,6.02,2.94.63,0,1.27-.15,1.83-.48.72-.45,1.08-1.14,1.39-1.95.45-1.23.72-2.87.9-4.89.18-2.01.25-4.38.25-6.99,0-17.16-3.29-44.79-3.29-44.81l-.03-.16s-.06-.23-.18-.68c-.83-3.16-4.16-17.11-4.16-35.13,0-10.3,1.09-21.92,4.35-33.63,3.1-11.13,8.36-19.23,14.78-24.55,6.42-5.32,14.01-7.88,21.87-7.88,8.96,0,18.28,3.34,26.51,9.82,7.6,6,9.96,11.94,9.98,17.28,0,5.27-2.39,10.07-4.84,13.54-1.22,1.73-2.45,3.13-3.36,4.09-.46.48-.84.85-1.1,1.1l-.3.28-.1.09.65.76.96-.28c-.03-.09-.84-2.91-3.54-6.25-2.69-3.34-7.28-7.18-14.73-9.24-1.24-.34-2.5-.51-3.75-.51-3.6,0-7.13,1.39-10.37,3.8-4.85,3.63-9.09,9.59-12.14,17.02-3.05,7.44-4.91,16.37-4.91,25.96,0,12.69,5.56,22.11,12.63,28.28,7.08,6.18,15.62,9.18,21.89,9.19,1.35,0,2.61-.14,3.73-.44,2.1-.56,4-1.87,5.77-3.47,2.66-2.4,5.04-5.5,7.1-7.96,1.03-1.23,1.97-2.3,2.78-3.02.8-.74,1.48-1.04,1.7-1.01l.36.17c.26.24.65.95.96,2.21.31,1.26.56,3.04.73,5.4.02.34.04.69.04,1.04,0,5.08-2.58,10.6-6.6,15.98-6.01,8.08-15.13,15.8-22.74,21.47-3.8,2.83-7.23,5.16-9.7,6.77-1.24.81-2.23,1.44-2.92,1.86-.69.43-1.06.65-1.06.65l.51.86.97-.23s-2.18-9.33-9.9-30.33c-1.06-2.87-3.41-5.81-6.68-8.88-5.72-5.36-14.29-11.09-23.97-16.7-29.01-16.84-67.93-32.64-67.95-32.65l-.38.93,1-.02s0-.11,0-.34c0-2.71.27-21.41,7.03-40,3.24-8.93,10.15-20.09,22.11-29,11.97-8.91,29.01-15.61,52.66-15.61,5.58,0,11.54.37,17.87,1.18,27.21,3.48,41.22,14.18,48.55,24.75,7.33,10.58,7.95,21.15,7.95,24.38,0,.33,0,.58-.01.75v.24c-.03.28.07.56.26.76.2.2.47.32.75.31,0,0,5.4-.15,11.27-.42,2.93-.14,5.99-.3,8.54-.49,2.57-.19,4.59-.39,5.68-.66.33-.09.7-.23,1.21-.44,1.86-.79,5.39-2.53,9.77-4.71,6.57-3.27,15.04-7.53,22.41-10.96,3.69-1.72,7.1-3.23,9.85-4.3,1.37-.54,2.58-.96,3.56-1.25.98-.29,1.75-.43,2.12-.42l.2.02.11-.38-.28.25.17.13.11-.38-.28.25.14-.13-.17.08.03.04.14-.13-.17.08.02.09.02.28c0,.52-.17,1.44-.52,2.57-1.22,3.97-4.37,10.49-7.21,15.94-1.42,2.73-2.76,5.21-3.74,7-.99,1.79-1.61,2.9-1.61,2.9l.87.49.03-1s-13.09-.43-28.23-.43c-13.63,0-28.89.34-37.92,1.67-3.84.56-6.86,2.75-9.12,5.78-3.4,4.55-5.26,11.01-6.34,17.52-1.07,6.51-1.31,13.06-1.31,17.78,0,4.12.19,6.83.19,6.84.02.35.23.66.54.82.07.04,7.88,4.08,21.58,6.26,3.53.56,6.59,1.09,8.6,2,1.01.45,1.75.98,2.22,1.6.47.62.73,1.34.73,2.37.01,1.89-1,4.84-3.54,9.02-2.53,4.19-6.53,9.63-12.33,16.68-12.23,14.86-27.26,36.84-39.42,56.25-6.08,9.71-11.43,18.76-15.35,25.97-1.96,3.6-3.56,6.75-4.72,9.28-1.16,2.55-1.88,4.45-2.07,5.79-.14.98-.21,1.98-.21,2.99-.01,4.3,1.47,8.86,5.86,13.67,4.38,4.83,11.62,9.98,23.26,15.81,19.95,9.97,44.76,12.85,58.83,12.86,4.42,0,7.75-.28,9.68-.75,1.1-.28,2.35-.9,3.8-1.77,5.03-3.03,12.31-9.18,18.39-14.59,6.08-5.41,10.92-10.08,10.93-10.09l.05-.05s1.79-2,4.62-5.12c4.24-4.67,10.81-11.85,17.15-18.51,6.33-6.66,12.48-12.84,15.73-15.41,4.18-3.33,9.43-3.95,13.98-4.49,2.28-.27,4.37-.51,6.12-1.16.87-.33,1.67-.77,2.32-1.4.65-.63,1.13-1.46,1.36-2.44.29-1.29,1.51-3.03,3.23-4.77,2.58-2.62,6.22-5.3,9.19-7.3,1.49-1,2.82-1.83,3.77-2.42.48-.29.86-.52,1.12-.67.26-.16.4-.23.4-.24l.4-.43.02-.04c.49-.95,9.49-18.22,35.38-24.4,10.38-2.48,32.42-4.77,56.15-6.42,23.74-1.65,49.22-2.67,66.64-2.67,5.03,0,9.39.09,12.83.26,3.43.18,5.98.46,7.23.8,4.29,1.14,6.83,2.22,8.22,3.81.71.8,1.19,1.75,1.51,3.06.32,1.31.47,2.96.47,5.05,0,3.87-.49,9.21-1.07,16.63-.13,1.68-.2,3.29-.2,4.83,0,10.16,2.73,17.49,5.9,23.66,3.18,6.18,6.73,11.22,8.52,16.9.08.24.13.59.13,1.03.01,1.81-.91,4.99-2.61,8.97-5.95,13.98-21.16,38.11-36.05,59.02-7.45,10.46-14.82,20.12-20.92,27.34-3.05,3.6-5.78,6.6-8.03,8.75-1.12,1.08-2.12,1.95-2.97,2.58-.84.63-1.54,1.01-1.94,1.12-.39.13-1.63.24-3.37.23-7.61,0-25.56-1.63-48.09-4.08-33.81-3.68-78.03-9.2-113.8-13.8-17.88-2.3-33.65-4.37-44.95-5.86-5.65-.75-10.18-1.35-13.3-1.77-3.12-.42-4.82-.65-4.83-.65l-.41.03s-.33.1-.98.27c-4.61,1.21-25.1,6.11-55.18,6.11-13.84,0-29.7-1.04-46.98-3.94-30.01-5.06-47.67-17.19-57.86-28.02-5.09-5.42-8.32-10.51-10.27-14.24-.97-1.87-1.63-3.39-2.04-4.44-.2-.53-.35-.93-.44-1.2l-.1-.31-.03-.09c-.08-.29-.3-.53-.58-.65,0,0-2.43-1.01-6.69-2.77-14.91-6.18-52.18-21.65-85.83-35.78-16.82-7.06-32.74-13.79-44.5-18.86-5.88-2.53-10.72-4.65-14.11-6.17-1.69-.76-3.02-1.38-3.93-1.83-.45-.22-.8-.4-1.02-.53l-.21-.13h0s-.47.6-.47.6l.67-.34c-.16-.28-.2-.25-.21-.27l-.47.61.67-.34-.03-.07c-.13-.38-.32-1.68-.31-3.64,0-7.16,2.18-23.75,13.61-49.39,3.48-7.83,10.7-16.17,19.83-24.18,13.68-12.03,31.61-23.37,47.5-31.68,7.94-4.15,15.38-7.55,21.51-9.91,6.11-2.36,10.98-3.65,13.52-3.63.7,0,1.2.1,1.43.22,4.49,2.17,23.42,10.86,44.31,22.29,20.88,11.42,43.74,25.6,55.9,38.54,6.23,6.62,9.6,14.87,11.41,23.01,1.81,8.14,2.04,16.14,2.04,22.19,0,2.08-.03,3.93-.03,5.48,0,1.57.03,2.83.15,3.78.07.48.14.88.33,1.28.09.2.22.4.44.59.21.19.55.33.87.32.38,0,.66-.14.89-.29.39-.27.7-.61,1.05-1.08,1.03-1.38,2.42-3.92,4.51-8.03,3.63-7.2,10.57-17.05,19.16-27.93,12.9-16.33,29.55-35.03,44.56-51.03,15-16,28.39-29.31,34.69-34.8,8.64-7.55,17.13-20.16,23.64-31.43,3.25-5.63,6-10.92,7.99-15.06,1-2.07,1.81-3.85,2.4-5.26.6-1.41.97-2.4,1.12-3.04.08-.38.12-.82.16-1.44.13-2.29.1-6.74.14-12.29.06-8.32.26-19.06,1.31-28.27.52-4.6,1.26-8.83,2.27-12.14,1-3.32,2.33-5.68,3.73-6.61,4.76-3.28,14.9-7.76,27.09-11.54,12.19-3.8,26.47-6.94,39.61-7.7.7-.04,1.37-.06,2.01-.06,5.91,0,9.35,1.64,11.39,3.93,2.04,2.29,2.76,5.42,2.76,8.64,0,3.07-.66,6.16-1.32,8.48-.33,1.16-.66,2.12-.91,2.79-.12.33-.23.6-.3.77l-.11.26c-.19.45-.04.97.38,1.24.41.26.95.19,1.28-.17,0,0,1.28-1.42,3.4-3.68,3.17-3.4,8.21-8.69,13.54-13.9,5.33-5.21,10.96-10.35,15.27-13.41,2.99-2.12,5.73-2.77,8.33-2.77,2.39,0,4.66.58,6.78,1.18,2.13.6,4.08,1.25,5.96,1.26.91,0,1.82-.17,2.65-.61.83-.45,1.56-1.16,2.14-2.12.66-1.09,1.08-2.6,1.48-4.54,1.36-6.74,2.15-18.72,5.23-31.22,3.07-12.5,8.4-25.42,18.67-33.97,5.81-4.84,11.21-6.71,16.09-6.72,7.43,0,13.89,4.41,18.67,10.16,4.77,5.73,7.78,12.77,8.31,17.48.78,6.7,2.34,14.29,6,21.28,3.66,6.98,9.47,13.35,18.63,17.44,8.79,3.94,15,9.39,19.01,13.86,2.01,2.23,3.46,4.22,4.41,5.64.47.71.82,1.28,1.05,1.67.11.19.2.34.25.44l.08.14c.14.26.38.45.67.51,0,0,4.31.94,9.61,1.89,5.3.94,11.55,1.89,15.6,1.89.58,0,1.12-.02,1.61-.06,3.26-.31,6.53.07,9.9-.94,3.38-1.01,6.64-3.52,9.7-9.13,2.5-4.55,3.21-8.56,3.21-12.16,0-4.52-1.06-8.37-1.05-12.05,0-.69.04-1.37.12-2.04.21-1.69.94-3.03,2.12-4.3,1.77-1.9,4.57-3.52,7.66-5.33,3.09-1.82,6.47-3.85,9.35-6.74,2.44-2.44,3.9-5.63,4.76-8.98.86-3.36,1.13-6.89,1.13-10.1,0-4.05-.43-7.58-.67-9.5-.09-.75-.47-1.42-1-1.93-.79-.78-1.89-1.29-3.22-1.64-1.32-.35-2.88-.53-4.61-.53-6.81,0-16.35,2.78-23.4,10-4.1,4.24-6.31,11.36-7.61,19.13-1.29,7.77-1.6,16.21-1.6,23.03,0,6.62.3,11.76.3,13.1.01.78-.43,2.21-1.18,3.81-1.12,2.42-2.89,5.31-4.52,7.88-1.63,2.58-3.11,4.79-3.75,6.06-.14.28-.23.6-.23.93,0,.42.14.82.35,1.13.37.56.9.93,1.52,1.26,1.86.95,4.82,1.47,8.12,1.48,3.72,0,7.84-.69,11.06-2.56,2.07-1.21,3.58-3.13,4.74-5.3,1.73-3.26,2.71-7.16,3.48-10.51.38-1.68.71-3.22,1.03-4.45.31-1.23.67-2.18.93-2.53.08-.15.73-.68,1.78-1.15,3.17-1.5,9.87-3.21,18.29-3.2,8.59,0,18.99,1.75,29.51,7.14,7.27,3.72,11.66,10.73,14.25,18.8,2.58,8.06,3.31,17.12,3.31,24.68,0,4.72-.28,8.86-.56,11.82-.14,1.48-.28,2.66-.39,3.47-.11.81-.17,1.24-.17,1.24-.05.29.04.58.23.81.19.22.47.35.76.35h61.66c.55,0,1-.45,1-1s-.45-1-1-1h0Z"/>
      <g>
        <path class="cls-1" d="m214.71,239.26C267.93,100.5,402.4,2,559.88,2c102.05,0,194.43,41.36,261.31,108.24,66.88,66.88,108.24,159.26,108.24,261.31,0,102.05-41.36,194.43-108.24,261.31-66.88,66.88-159.26,108.24-261.31,108.24-85.49,0-164.19-29.03-226.8-77.76-.44-.34-1.06-.26-1.4.17-.34.44-.26,1.06.17,1.4,62.95,49,142.08,78.18,228.03,78.18,205.2,0,371.54-166.35,371.54-371.54C931.42,166.35,765.07,0,559.88,0c-158.33,0-293.53,99.04-347.03,238.54-.2.52.06,1.09.58,1.29.52.2,1.09-.06,1.29-.58h0Z"/>
        <path class="cls-1" d="m245.32,251.56c48.34-126.64,170.94-216.6,314.56-216.59,92.95,0,177.08,37.67,238,98.58,60.91,60.91,98.58,145.05,98.58,238,0,92.95-37.67,177.08-98.58,238-60.91,60.91-145.05,98.58-238,98.58-60.92,0-118.06-16.19-167.35-44.49-.48-.27-1.09-.11-1.36.37-.27.48-.11,1.09.37,1.36,49.59,28.47,107.07,44.76,168.35,44.76,186.99,0,338.57-151.58,338.57-338.58,0-186.99-151.58-338.57-338.57-338.57-144.47,0-267.8,90.49-316.43,217.88-.2.52.06,1.09.58,1.29.52.2,1.09-.06,1.29-.58h0Z"/>
        <path class="cls-1" d="m265.96,261.86c44.47-119.13,159.29-203.96,293.93-203.96,86.61,0,165.02,35.1,221.78,91.86,56.76,56.76,91.86,135.16,91.86,221.78,0,86.61-35.1,165.02-91.86,221.78-56.76,56.76-135.16,91.86-221.78,91.86-44.96,0-87.7-9.46-126.35-26.49-.51-.22-1.1,0-1.32.51-.22.51,0,1.09.51,1.32,38.9,17.14,81.92,26.66,127.15,26.66,174.32,0,315.64-141.32,315.64-315.64,0-174.32-141.32-315.64-315.64-315.64-135.49,0-251.05,85.37-295.8,205.26-.19.52.07,1.09.59,1.29.52.19,1.09-.07,1.29-.59h0Z"/>
      </g>
    </g>
  </g>
</svg>