<?xml version="1.0" encoding="UTF-8"?>
<svg id="Capa_2" data-name="Capa 2" xmlns="http://www.w3.org/2000/svg" viewBox="0 0 100 40.19">
  <defs>
    <style>
      .cls-1, .cls-2 {
        stroke-width: 0px;
      }

      .cls-2 {
        fill: #25b4b9;
      }
    </style>
  </defs>
  <g id="Capa_1-2" data-name="Capa 1">
    <g>
      <polygon class="cls-1" points="14.97 40.19 100 40.19 100 0 25.21 0 14.97 40.19"/>
      <polygon class="cls-1" points="17.84 0 7.61 40.19 12.6 40.19 22.83 0 17.84 0"/>
      <polygon class="cls-1" points="10.23 0 0 40.19 4.99 40.19 15.22 0 10.23 0"/>
      <g>
        <path class="cls-2" d="m75.4,18.93h-27.13c-2.01,0-3.93.79-5.36,2.19l-8.43,8.28h9.62l2.93-2.88c.71-.7,1.67-1.09,2.67-1.09h19.2l6.5-6.5Z"/>
        <path class="cls-2" d="m47.58,17.77h28.98l7.12-7.12h-36.57c-4.15,0-8.13,1.63-11.08,4.53l-14.47,14.22h11.06l9.61-9.44c1.43-1.41,3.36-2.19,5.36-2.19Z"/>
        <polygon class="cls-2" points="89.91 17.7 96.96 10.65 96.96 10.65 85.39 10.65 78.27 17.77 89.84 17.77 89.91 17.7"/>
        <polygon class="cls-2" points="77.11 18.93 77.11 18.93 70.61 25.43 66.63 29.4 78.2 29.4 78.2 29.4 88.68 18.93 77.11 18.93"/>
      </g>
    </g>
  </g>
</svg>