<?xml version="1.0" encoding="UTF-8"?>
<svg id="Capa_2" data-name="Capa 2" xmlns="http://www.w3.org/2000/svg" viewBox="0 0 100 121.65">
  <defs>
    <style>
      .cls-1, .cls-2 {
        stroke-width: 0px;
      }

      .cls-2 {
        fill: #25b4b9;
      }
    </style>
  </defs>
  <g id="Capa_1-2" data-name="Capa 1">
    <g>
      <path class="cls-1" d="m9.08,117.11c0,2.51-2.03,4.54-4.54,4.54h0c-2.51,0-4.54-2.03-4.54-4.54V5.13C0,2.62,2.03.59,4.54.59h0c2.51,0,4.54,2.03,4.54,4.54v111.98Z"/>
      <g>
        <g>
          <g>
            <g>
              <path class="cls-1" d="m27.26,36.09c-6.06-.24-12.12-2.69-18.18-8.8V9.11c6.06,6.11,12.12,8.55,18.18,8.8v18.18Z"/>
              <path class="cls-2" d="m45.45,31.4c-6.06,2.69-12.12,4.64-18.18,4.4v-18.18c6.06.24,12.12-1.71,18.18-4.4v18.18Z"/>
            </g>
            <g>
              <path class="cls-1" d="m63.63,22.6c-6.06,2.69-12.12,6.11-18.18,8.8V13.22c6.06-2.69,12.12-6.11,18.18-8.8v18.18Z"/>
              <path class="cls-2" d="m81.82,18.21c-6.06-.24-12.12,1.71-18.18,4.4V4.42C69.69,1.73,75.75-.22,81.82.02v18.18Z"/>
            </g>
            <path class="cls-1" d="m100,27c-6.06-6.11-12.12-8.55-18.18-8.8V.02c6.06.24,12.12,2.69,18.18,8.8v18.18Z"/>
          </g>
          <g>
            <g>
              <path class="cls-2" d="m27.26,53.98c-6.06-.24-12.12-2.69-18.18-8.8v-18.18c6.06,6.11,12.12,8.55,18.18,8.8v18.18Z"/>
              <path class="cls-1" d="m45.45,49.88c-6.06,2.69-12.12,4.64-18.18,4.4v-18.18c6.06.24,12.12-1.71,18.18-4.4v18.18Z"/>
            </g>
            <g>
              <path class="cls-2" d="m63.63,40.79c-6.06,2.69-12.12,6.11-18.18,8.8v-18.18c6.06-2.69,12.12-6.11,18.18-8.8v18.18Z"/>
              <path class="cls-1" d="m81.82,36.39c-6.06-.24-12.12,1.71-18.18,4.4v-18.18c6.06-2.69,12.12-4.64,18.18-4.4v18.18Z"/>
            </g>
            <path class="cls-2" d="m100,45.19c-6.06-6.11-12.12-8.55-18.18-8.8v-18.18c6.06.24,12.12,2.69,18.18,8.8v18.18Z"/>
          </g>
        </g>
        <g>
          <g>
            <g>
              <path class="cls-1" d="m27.26,72.46c-6.06-.24-12.12-2.69-18.18-8.8v-18.18c6.06,6.11,12.12,8.55,18.18,8.8v18.18Z"/>
              <path class="cls-2" d="m45.45,67.77c-6.06,2.69-12.12,4.64-18.18,4.4v-18.18c6.06.25,12.12-1.71,18.18-4.4v18.18Z"/>
            </g>
            <g>
              <path class="cls-1" d="m63.63,59.27c-6.06,2.69-12.12,6.11-18.18,8.8v-18.18c6.06-2.69,12.12-6.11,18.18-8.8v18.18Z"/>
              <path class="cls-2" d="m81.82,54.57c-6.06-.25-12.12,1.71-18.18,4.4v-18.18c6.06-2.69,12.12-4.64,18.18-4.4v18.18Z"/>
            </g>
            <path class="cls-1" d="m100,63.37c-6.06-6.11-12.12-8.55-18.18-8.8v-18.18c6.06.24,12.12,2.69,18.18,8.8v18.18Z"/>
          </g>
          <g>
            <g>
              <path class="cls-2" d="m27.26,90.35c-6.06-.25-12.12-2.69-18.18-8.8v-18.18c6.06,6.11,12.12,8.55,18.18,8.8v18.18Z"/>
              <path class="cls-1" d="m45.45,85.95c-6.06,2.69-12.12,4.64-18.18,4.4v-18.18c6.06.24,12.12-1.71,18.18-4.4v18.18Z"/>
            </g>
            <g>
              <path class="cls-2" d="m63.63,77.16c-6.06,2.69-12.12,6.11-18.18,8.8v-18.18c6.06-2.69,12.12-6.11,18.18-8.8v18.18Z"/>
              <path class="cls-1" d="m81.82,72.76c-6.06-.25-12.12,1.71-18.18,4.4v-18.18c6.06-2.69,12.12-4.64,18.18-4.4v18.18Z"/>
            </g>
            <path class="cls-2" d="m100,81.56c-6.06-6.11-12.12-8.55-18.18-8.8v-18.18c6.06.24,12.12,2.69,18.18,8.8v18.18Z"/>
          </g>
        </g>
      </g>
    </g>
  </g>
</svg>