<?xml version="1.0" encoding="UTF-8"?>
<svg id="Capa_2" data-name="Capa 2" xmlns="http://www.w3.org/2000/svg" viewBox="0 0 150 182.48">
  <defs>
    <style>
      .cls-1, .cls-2, .cls-3 {
        stroke-width: 0px;
      }

      .cls-2 {
        fill: #f0f2f2;
      }

      .cls-3 {
        fill: #ea0000;
      }
    </style>
  </defs>
  <g id="OBJECTS">
    <g>
      <path class="cls-3" d="m13.62,175.67c0,3.76-3.05,6.81-6.81,6.81h0c-3.76,0-6.81-3.05-6.81-6.81V7.7C0,3.94,3.05.89,6.81.89h0c3.76,0,6.81,3.05,6.81,6.81v167.97Z"/>
      <g>
        <g>
          <g>
            <g>
              <path class="cls-1" d="m40.89,54.14c-9.09-.37-18.18-4.03-27.28-13.2V13.67c9.09,9.16,18.18,12.83,27.28,13.2v27.28Z"/>
              <path class="cls-2" d="m68.17,47.1c-9.09,4.03-18.18,6.97-27.28,6.6v-27.28c9.09.37,18.18-2.57,27.28-6.6v27.28Z"/>
            </g>
            <g>
              <path class="cls-1" d="m95.45,33.91c-9.09,4.03-18.18,9.16-27.28,13.2v-27.28c9.09-4.03,18.18-9.17,27.28-13.2v27.28Z"/>
              <path class="cls-2" d="m122.72,27.31c-9.09-.37-18.19,2.57-27.28,6.6V6.63C104.54,2.6,113.63-.34,122.72.03v27.28Z"/>
            </g>
            <path class="cls-1" d="m150,40.5c-9.09-9.16-18.18-12.83-27.28-13.2V.03c9.09.37,18.18,4.03,27.28,13.2v27.28Z"/>
          </g>
          <g>
            <g>
              <path class="cls-2" d="m40.89,80.98c-9.09-.37-18.18-4.03-27.28-13.2v-27.28c9.09,9.16,18.18,12.83,27.28,13.2v27.28Z"/>
              <path class="cls-1" d="m68.17,74.82c-9.09,4.03-18.18,6.97-27.28,6.6v-27.28c9.09.37,18.18-2.57,27.28-6.6v27.28Z"/>
            </g>
            <g>
              <path class="cls-2" d="m95.45,61.18c-9.09,4.03-18.18,9.17-27.28,13.2v-27.28c9.09-4.03,18.18-9.16,27.28-13.2v27.28Z"/>
              <path class="cls-1" d="m122.72,54.58c-9.09-.37-18.19,2.57-27.28,6.6v-27.28c9.09-4.03,18.18-6.96,27.28-6.6v27.27Z"/>
            </g>
            <path class="cls-2" d="m150,67.78c-9.09-9.16-18.18-12.83-27.28-13.2v-27.27c9.09.37,18.18,4.03,27.28,13.2v27.28Z"/>
          </g>
        </g>
        <g>
          <g>
            <g>
              <path class="cls-1" d="m40.89,108.69c-9.09-.37-18.18-4.03-27.28-13.2v-27.28c9.09,9.16,18.18,12.83,27.28,13.2v27.28Z"/>
              <path class="cls-2" d="m68.17,101.65c-9.09,4.03-18.18,6.97-27.28,6.6v-27.28c9.09.37,18.18-2.57,27.28-6.6v27.28Z"/>
            </g>
            <g>
              <path class="cls-1" d="m95.45,88.9c-9.09,4.03-18.18,9.16-27.28,13.2v-27.28c9.09-4.03,18.18-9.16,27.28-13.2v27.28Z"/>
              <path class="cls-2" d="m122.72,81.86c-9.09-.37-18.19,2.57-27.28,6.6v-27.28c9.09-4.03,18.18-6.97,27.28-6.6v27.28Z"/>
            </g>
            <path class="cls-1" d="m150,95.06c-9.09-9.16-18.18-12.83-27.28-13.2v-27.28c9.09.37,18.18,4.03,27.28,13.2v27.28Z"/>
          </g>
          <g>
            <g>
              <path class="cls-2" d="m40.89,135.53c-9.09-.37-18.18-4.03-27.28-13.2v-27.28c9.09,9.16,18.18,12.83,27.28,13.2v27.28Z"/>
              <path class="cls-1" d="m68.17,128.93c-9.09,4.03-18.18,6.97-27.28,6.6v-27.28c9.09.37,18.18-2.57,27.28-6.6v27.28Z"/>
            </g>
            <g>
              <path class="cls-2" d="m95.45,115.73c-9.09,4.03-18.18,9.16-27.28,13.2v-27.28c9.09-4.03,18.18-9.16,27.28-13.2v27.28Z"/>
              <path class="cls-1" d="m122.72,109.14c-9.09-.37-18.19,2.57-27.28,6.6v-27.28c9.09-4.03,18.18-6.97,27.28-6.6v27.28Z"/>
            </g>
            <path class="cls-2" d="m150,122.33c-9.09-9.17-18.18-12.83-27.28-13.2v-27.28c9.09.37,18.18,4.03,27.28,13.2v27.28Z"/>
          </g>
        </g>
      </g>
    </g>
  </g>
</svg>