<?xml version="1.0" encoding="UTF-8"?>
<svg id="Capa_2" data-name="Capa 2" xmlns="http://www.w3.org/2000/svg" viewBox="0 0 600 4.45">
  <defs>
    <style>
      .cls-1 {
        stroke-width: 0px;
      }
    </style>
  </defs>
  <g id="Capa_1-2" data-name="Capa 1">
    <g>
      <g>
        <rect class="cls-1" x="152.8" width="14.27" height="4.45"/>
        <rect class="cls-1" x="178.27" width="14.27" height="4.45"/>
        <rect class="cls-1" x="203.73" width="14.27" height="4.45"/>
        <rect class="cls-1" x="229.2" width="14.27" height="4.45"/>
        <rect class="cls-1" x="254.67" width="14.27" height="4.45"/>
        <rect class="cls-1" x="280.13" width="14.27" height="4.45"/>
        <rect class="cls-1" x="305.6" width="14.27" height="4.45"/>
        <rect class="cls-1" x="331.06" width="14.27" height="4.45"/>
        <rect class="cls-1" x="356.53" width="14.27" height="4.45"/>
        <rect class="cls-1" x="382" width="14.27" height="4.45"/>
        <rect class="cls-1" x="407.46" width="14.27" height="4.45"/>
        <rect class="cls-1" x="432.93" width="14.27" height="4.45"/>
        <rect class="cls-1" x="458.4" width="14.27" height="4.45"/>
        <rect class="cls-1" x="483.86" width="14.27" height="4.45"/>
        <rect class="cls-1" x="509.33" width="14.27" height="4.45"/>
        <rect class="cls-1" x="534.8" width="14.27" height="4.45"/>
        <rect class="cls-1" x="560.26" width="14.27" height="4.45"/>
        <rect class="cls-1" x="585.73" width="14.27" height="4.45"/>
      </g>
      <g>
        <rect class="cls-1" x="25.47" width="14.27" height="4.45"/>
        <rect class="cls-1" x="50.93" width="14.27" height="4.45"/>
        <rect class="cls-1" width="14.27" height="4.45"/>
        <rect class="cls-1" x="76.4" width="14.27" height="4.45"/>
        <rect class="cls-1" x="101.87" width="14.27" height="4.45"/>
        <rect class="cls-1" x="127.33" width="14.27" height="4.45"/>
        <rect class="cls-1" x="152.8" width="14.27" height="4.45"/>
      </g>
    </g>
  </g>
</svg>