<?xml version="1.0" encoding="UTF-8"?>
<svg id="Capa_2" data-name="Capa 2" xmlns="http://www.w3.org/2000/svg" viewBox="0 0 1200 16.9">
  <defs>
    <style>
      .cls-1 {
        fill: #ff0006;
        stroke-width: 0px;
      }
    </style>
  </defs>
  <g id="Layer_1" data-name="Layer 1">
    <g>
      <g>
        <rect class="cls-1" x="270.25" y="0" width="16.9" height="16.9" transform="translate(557.39 16.9) rotate(-180)"/>
        <rect class="cls-1" x="236.47" y="0" width="16.9" height="16.9" transform="translate(489.83 16.9) rotate(-180)"/>
        <rect class="cls-1" x="202.69" y="0" width="16.9" height="16.9" transform="translate(422.27 16.9) rotate(-180)"/>
        <rect class="cls-1" x="168.91" y="0" width="16.9" height="16.9" transform="translate(354.71 16.9) rotate(-180)"/>
        <rect class="cls-1" x="135.12" y="0" width="16.9" height="16.9" transform="translate(287.15 16.9) rotate(-180)"/>
        <rect class="cls-1" x="101.34" y="0" width="16.9" height="16.9" transform="translate(219.58 16.9) rotate(-180)"/>
        <rect class="cls-1" x="67.56" y="0" width="16.9" height="16.9" transform="translate(152.02 16.9) rotate(-180)"/>
        <rect class="cls-1" x="33.78" y="0" width="16.9" height="16.9" transform="translate(84.46 16.9) rotate(-180)"/>
        <rect class="cls-1" x="0" y="0" width="16.9" height="16.9" transform="translate(16.9 16.9) rotate(-180)"/>
        <rect class="cls-1" x="574.66" y="0" width="16.9" height="16.9" transform="translate(1166.21 16.9) rotate(-180)"/>
        <rect class="cls-1" x="540.88" y="0" width="16.9" height="16.9" transform="translate(1098.65 16.9) rotate(-180)"/>
        <rect class="cls-1" x="507.1" y="0" width="16.9" height="16.9" transform="translate(1031.09 16.9) rotate(-180)"/>
        <rect class="cls-1" x="473.31" y="0" width="16.9" height="16.9" transform="translate(963.53 16.9) rotate(-180)"/>
        <rect class="cls-1" x="439.53" y="0" width="16.9" height="16.9" transform="translate(895.96 16.9) rotate(-180)"/>
        <rect class="cls-1" x="405.75" y="0" width="16.9" height="16.9" transform="translate(828.4 16.9) rotate(-180)"/>
        <rect class="cls-1" x="371.97" y="0" width="16.9" height="16.9" transform="translate(760.84 16.9) rotate(-180)"/>
        <rect class="cls-1" x="338.19" y="0" width="16.9" height="16.9" transform="translate(693.28 16.9) rotate(-180)"/>
        <rect class="cls-1" x="304.41" y="0" width="16.9" height="16.9" transform="translate(625.72 16.9) rotate(-180)"/>
      </g>
      <g>
        <rect class="cls-1" x="878.69" y="0" width="16.9" height="16.9" transform="translate(1774.28 16.9) rotate(-180)"/>
        <rect class="cls-1" x="844.91" y="0" width="16.9" height="16.9" transform="translate(1706.72 16.9) rotate(-180)"/>
        <rect class="cls-1" x="811.13" y="0" width="16.9" height="16.9" transform="translate(1639.16 16.9) rotate(-180)"/>
        <rect class="cls-1" x="777.35" y="0" width="16.9" height="16.9" transform="translate(1571.6 16.9) rotate(-180)"/>
        <rect class="cls-1" x="743.57" y="0" width="16.9" height="16.9" transform="translate(1504.04 16.9) rotate(-180)"/>
        <rect class="cls-1" x="709.79" y="0" width="16.9" height="16.9" transform="translate(1436.47 16.9) rotate(-180)"/>
        <rect class="cls-1" x="676.01" y="0" width="16.9" height="16.9" transform="translate(1368.91 16.9) rotate(-180)"/>
        <rect class="cls-1" x="642.23" y="0" width="16.9" height="16.9" transform="translate(1301.35 16.9) rotate(-180)"/>
        <rect class="cls-1" x="608.45" y="0" width="16.9" height="16.9" transform="translate(1233.79 16.9) rotate(-180)"/>
        <rect class="cls-1" x="1183.1" y="0" width="16.9" height="16.9" transform="translate(2383.1 16.9) rotate(-180)"/>
        <rect class="cls-1" x="1149.32" y="0" width="16.9" height="16.9" transform="translate(2315.54 16.9) rotate(-180)"/>
        <rect class="cls-1" x="1115.54" y="0" width="16.9" height="16.9" transform="translate(2247.98 16.9) rotate(-180)"/>
        <rect class="cls-1" x="1081.76" y="0" width="16.9" height="16.9" transform="translate(2180.42 16.9) rotate(-180)"/>
        <rect class="cls-1" x="1047.98" y="0" width="16.9" height="16.9" transform="translate(2112.85 16.9) rotate(-180)"/>
        <rect class="cls-1" x="1014.2" y="0" width="16.9" height="16.9" transform="translate(2045.29 16.9) rotate(-180)"/>
        <rect class="cls-1" x="980.42" y="0" width="16.9" height="16.9" transform="translate(1977.73 16.9) rotate(-180)"/>
        <rect class="cls-1" x="946.64" y="0" width="16.9" height="16.9" transform="translate(1910.17 16.9) rotate(-180)"/>
        <rect class="cls-1" x="912.85" y="0" width="16.9" height="16.9" transform="translate(1842.61 16.9) rotate(-180)"/>
      </g>
    </g>
  </g>
</svg>