<?xml version="1.0" encoding="UTF-8"?>
<svg id="Capa_2" data-name="Capa 2" xmlns="http://www.w3.org/2000/svg" viewBox="0 0 256.7 66.52">
  <defs>
    <style>
      .cls-1 {
        fill: #eac300;
      }
    </style>
  </defs>
  <g id="Capa_1-2" data-name="Capa 1">
    <g>
      <path d="m13.57,0h229.57c7.49,0,13.57,6.08,13.57,13.57v52.96H0V13.57C0,6.08,6.08,0,13.57,0Z"/>
      <g>
        <g>
          <path class="cls-1" d="m206.08,34.72c-.03.49-.06.78-.06,1.06,0,2.59,0,5.17,0,7.76,0,1.09-.14,1.22-1.21,1.23-.48,0-.96,0-1.43,0-1.31,0-1.38-.07-1.38-1.35,0-2.69,0-5.38,0-8.06,0-2.19,0-4.37,0-6.56,0-.95.2-1.17,1.14-1.16,2.74.03,2.13-.4,3.77,2.02,1.67,2.47,3.33,4.96,4.99,7.43.11.16.25.29.51.6.04-.46.09-.74.09-1.02,0-2.61,0-5.22,0-7.84,0-1.07.14-1.2,1.23-1.2.55,0,1.11,0,1.66,0,.88,0,1.14.27,1.15,1.17,0,1.61,0,3.21,0,4.82,0,3.29,0,6.58,0,9.87,0,1.08-.18,1.27-1.27,1.26-2.77-.02-2.04.35-3.63-1.98-1.7-2.48-3.37-4.99-5.06-7.48-.1-.15-.24-.28-.5-.59"/>
          <path class="cls-1" d="m179.55,37.48c.02-.29.06-.58.06-.87,0-2.56,0-5.13,0-7.69,0-1.15.15-1.29,1.31-1.29.53,0,1.06,0,1.58,0,.89,0,1.15.26,1.15,1.17,0,2.24,0,4.47,0,6.71,0,2.66,0,5.33,0,7.99,0,1.04-.2,1.26-1.21,1.25-2.83-.03-2.08.37-3.67-1.93-1.72-2.5-3.4-5.03-5.1-7.55-.09-.14-.21-.26-.46-.58-.04.45-.08.7-.08.95,0,2.64,0,5.28,0,7.92,0,1.04-.16,1.19-1.17,1.19-.65,0-1.31,0-1.96,0-.58,0-.89-.27-.89-.87,0-5.13,0-10.26,0-15.38,0-.58.28-.9.87-.89,3.02.07,2.32-.49,4.01,2.01,1.64,2.43,3.28,4.87,4.92,7.31.14.2.29.39.44.59.07-.02.14-.03.21-.05"/>
          <path class="cls-1" d="m168.15,36.26c.04,5.16-3.63,8.86-8.69,8.9-5.02.05-8.74-3.83-8.73-8.97,0-5.05,3.75-8.86,8.68-8.85,5.1,0,8.74,3.73,8.73,8.92m-13.29.08c-.08,1.13.31,2.24,1.05,3.19,1.1,1.43,2.62,1.89,4.35,1.62,1.71-.26,2.81-1.29,3.45-2.89,1.03-2.59-.13-5.47-2.01-6.46-3.3-1.73-6.83.55-6.84,4.53"/>
          <path class="cls-1" d="m222.16,37.95v2.95c.25.01.49.04.73.04,1.53,0,3.07,0,4.6,0,1,0,1.26.26,1.26,1.23,0,.58,0,1.16,0,1.73,0,.56-.32.85-.84.86-3.02.01-6.03,0-9.05,0-.48,0-.74-.26-.79-.73-.02-.22-.02-.45-.02-.68,0-4.67,0-9.35,0-14.02,0-1.7.01-1.71,1.73-1.71,2.54,0,5.08,0,7.61,0,.84,0,1.06.22,1.08,1.06.01.58.01,1.16,0,1.73-.02.77-.27,1.02-1.06,1.03-1.46.01-2.92,0-4.37,0h-.88v2.85c.39.02.8.05,1.22.05,1.11,0,2.21,0,3.32,0,.68,0,1.03.29,1.01,1-.02.5,0,1.01,0,1.51-.02.81-.26,1.05-1.1,1.06-1.45,0-2.91,0-4.45,0"/>
          <path class="cls-1" d="m189.25,40.93c1.81,0,3.49,0,5.17,0,.98,0,1.2.22,1.2,1.19,0,.6,0,1.21,0,1.81,0,.55-.28.83-.84.83-2.91,0-5.83,0-8.74,0-.57,0-.83-.29-.88-.82-.02-.25-.03-.5-.03-.75,0-4.7,0-9.39,0-14.09,0-1.36.13-1.48,1.52-1.48.5,0,1,0,1.51,0,.78.01,1.09.34,1.09,1.18,0,3.16,0,6.33,0,9.49v2.63"/>
          <path class="cls-1" d="m200.44,36.27c0,2.46,0,4.92,0,7.38,0,.96-.14,1.1-1.09,1.11-.65,0-1.31-.01-1.96,0-.66.02-.98-.29-.97-.95,0-.68,0-1.36,0-2.03,0-4.29,0-8.59,0-12.89,0-1.08.19-1.27,1.26-1.27.58,0,1.15,0,1.73,0,.82,0,1.01.19,1.02,1.03,0,2.54,0,5.07,0,7.61"/>
          <path class="cls-1" d="m141.67,35.74c.18.09.33.19.48.25,2.13.78,3.09,2.37,2.88,4.62-.24,2.64-2.36,3.94-4.46,4.1-2.07.16-4.17.05-6.25.07-.51,0-.64-.24-.64-.7,0-5.25,0-10.5,0-15.75,0-.51.17-.71.7-.71,1.76.03,3.52-.08,5.27.03,2.99.2,4.99,2.32,4.35,5.37-.23,1.11-.96,1.85-1.93,2.37-.11.06-.22.12-.32.19-.02.01-.02.04-.08.16m-3.81,7.88v-.02c.83,0,1.66.04,2.49,0,2.12-.13,3.51-1.46,3.56-3.44.04-1.81-.94-3.33-3.14-3.53-1.82-.17-3.65-.14-5.48-.15-.16,0-.47.36-.47.55-.03,2.01-.01,4.02-.02,6.03,0,.42.17.58.58.57.83-.02,1.66,0,2.49,0m-3.07-11.59c0,.88.01,1.76,0,2.63-.01.46.11.7.63.69,1.33-.03,2.66.04,3.98-.03,1.03-.05,2.04-.29,2.78-1.12.91-1.02,1.05-2.22.56-3.43-.53-1.33-1.73-1.87-3.06-1.96-1.42-.1-2.86-.02-4.29-.04-.45,0-.62.19-.61.63.02.88,0,1.76,0,2.63"/>
          <path class="cls-1" d="m119.05,33.61c0-1.73,0-3.47,0-5.2,0-.4,0-.76.55-.78.62-.02.6.38.6.8,0,3.24-.02,6.48.01,9.72.02,1.46.22,2.9,1.18,4.11,1.1,1.4,3.28,2.05,5.12,1.5,1.94-.58,3.31-2.07,3.37-3.97.12-3.66.11-7.33.19-10.99,0-.42-.34-1.14.51-1.16.9-.02.57.73.57,1.17.02,3.22.03,6.43,0,9.65-.01,1.97-.46,3.8-2.01,5.16-1.86,1.63-4.05,1.82-6.29,1.05-2.01-.69-3.26-2.23-3.52-4.32-.28-2.23-.29-4.5-.42-6.75.04,0,.08,0,.12,0"/>
          <path class="cls-1" d="m100.35,27.22c2.31.1,4.27.91,5.91,2.5.25.24.76.5.29.97-.4.41-.72.22-1.08-.12-4.11-3.88-10.62-2.2-12.31,3.19-1.22,3.88.58,8.08,4.25,9.58,2.82,1.15,5.45.7,7.8-1.27.15-.13.28-.36.45-.39.3-.06.62,0,.93.01-.04.26,0,.61-.14.76-1.42,1.49-3.18,2.39-5.22,2.57-4.2.38-7.64-1.86-9.1-5.8-1.71-4.63.82-10.01,5.49-11.53.87-.28,1.82-.32,2.73-.48"/>
          <path class="cls-1" d="m108.5,27.71c.94-.13.99-.08.99.83,0,4.67,0,9.34,0,14.01,0,1.07,0,1.07,1.07,1.07,2.08,0,4.17.01,6.25,0,.45,0,.72.08.71.6,0,.5-.29.56-.69.56-2.61,0-5.22-.01-7.83,0-.47,0-.64-.19-.63-.62.01-.73.03-1.45.04-2.18,0-4.47,0-8.94,0-13.4,0-.29.05-.59.08-.86"/>
        </g>
        <g>
          <path class="cls-1" d="m83.75,31.94c.21.01.37.01.53.03.76.06,1.2.52,1.2,1.29,0,2.41-.02,4.81.01,7.22.01.99-.52,1.4-1.43,1.41-1.15,0-2.29.03-3.44,0-.48-.01-.6.16-.59.61.03,1.16-.05,2.33.02,3.49.14,2.12-1.54,3.85-3.81,3.86-.26,0-.52,0-.78,0-14.38,0-28.76,0-43.14,0-.63,0-1.26-.04-1.89-.06-1.61-.07-3.22-1.67-3.21-3.39.04-6.25.02-12.5,0-18.76,0-2.02,1.59-3.51,3.57-3.58,1.77-.07,3.55-.02,5.33-.02,13.35,0,26.69,0,40.04,0,1.88,0,3.44,1.15,3.79,2.83.09.42.07.87.07,1.3,0,1.08.02,2.17,0,3.25-.01.46.15.6.58.56.27-.03.55-.03.82,0,.45.05.55-.17.55-.56,0-3.33,0-6.66,0-9.98,0-.39-.15-.6-.51-.78-.95-.47-1.39-1.27-1.3-2.33.08-1.01.66-1.67,1.57-2.02,1.34-.51,2.73-.07,3.4,1.03.72,1.18.27,2.74-.98,3.34-.29.14-.47.27-.47.63.01,3.43,0,6.85,0,10.28,0,.11.02.22.03.38m-30.13,15.92h22.05c1.72,0,2.2-.49,2.2-2.22,0-5.94,0-11.89,0-17.83,0-1.11-.6-1.74-1.71-1.8-.21-.01-.42,0-.63,0-13.23,0-26.46,0-39.69,0-1.52,0-3.04-.01-4.56,0-1.23.01-1.87.59-1.87,1.67,0,6.19,0,12.37,0,18.56,0,.24.04.49.14.7.34.77,1.01.92,1.77.92h22.29"/>
          <path class="cls-1" d="m53.69,27.37h21.08c.11,0,.23,0,.34,0,1.07.01,1.31.25,1.31,1.31,0,5.19,0,10.37,0,15.56,0,.42,0,.84,0,1.26,0,.62-.31.96-.92,1.03-.18.02-.35.01-.53.01h-42.65c-.11,0-.23,0-.34,0-.78-.03-1.12-.36-1.13-1.14,0-.68,0-1.36,0-2.04,0-4.88,0-9.76,0-14.64,0-.26-.01-.55.1-.75.12-.22.36-.43.6-.54.22-.1.51-.07.76-.07,7.12,0,14.25,0,21.37,0h0Zm-8.21,9.61c0-2.5,0-5.01,0-7.51,0-.39-.12-.54-.52-.54-3.94.01-7.88.01-11.82,0-.41,0-.57.12-.57.55.01,4.96.01,9.92,0,14.88,0,.43.13.59.58.59,3.91-.02,7.82-.02,11.73,0,.46,0,.61-.13.61-.6-.02-2.46-.01-4.91-.01-7.37m29.17,7.88v-.56c0-4.93,0-9.85.01-14.78,0-.48-.15-.6-.61-.6-3.88.01-7.75.02-11.63,0-.47,0-.63.12-.63.62.02,4.89.01,9.79.01,14.68,0,.68,0,.69.69.69,3.83,0,7.66,0,11.48,0,.21,0,.41-.03.67-.05m-27.39-7.92c0,2.47,0,4.94,0,7.41,0,.43.1.6.56.59,3.89-.02,7.78-.01,11.68,0,.4,0,.56-.1.56-.54-.02-4.97-.02-9.95,0-14.92,0-.44-.16-.54-.56-.54-3.89.01-7.78.01-11.68,0-.41,0-.56.1-.55.54.02,2.49.01,4.97.01,7.46"/>
          <path class="cls-1" d="m39.07,33.84c-1.66.02-3.12.58-4.35,1.69-.06.05-.12.11-.18.16-.28.25-.59.3-.86.02-.29-.3-.22-.62.06-.9.82-.8,1.76-1.43,2.86-1.76,2.81-.85,5.38-.39,7.63,1.57.08.07.17.15.24.23.23.26.28.55.05.83-.26.3-.57.26-.86.04-.48-.35-.92-.76-1.43-1.06-1.01-.6-1.97-.82-3.14-.83"/>
          <path class="cls-1" d="m39.05,34.8c1.46.02,2.71.48,3.76,1.46.34.31.4.73.18.98-.24.26-.61.22-.99-.1-1.82-1.56-4.07-1.55-5.87.02-.36.32-.74.35-.98.05-.28-.35-.14-.65.16-.93,1.06-.99,2.32-1.47,3.74-1.48"/>
          <path class="cls-1" d="m41.1,39.01c-.23-.13-.39-.19-.53-.29-1-.78-1.98-.79-2.98,0-.31.24-.63.31-.9.02-.26-.29-.19-.62.09-.9,1.21-1.2,3.42-1.2,4.58.02.15.16.24.46.2.67-.03.17-.29.31-.47.48"/>
          <path class="cls-1" d="m40.12,40.3c0,.6-.44,1.04-1.03,1.04-.58,0-1.06-.45-1.07-1.02-.01-.58.48-1.08,1.07-1.07.58,0,1.03.47,1.03,1.05"/>
          <path class="cls-1" d="m68.41,32.59c1.97.08,3.67.73,5.12,2.03.07.06.14.13.21.2.27.29.33.61.06.9-.27.28-.57.2-.87-.03-.44-.35-.87-.73-1.35-1.01-2.46-1.41-5.54-1.03-7.61.91-.36.34-.71.39-.97.13-.27-.26-.23-.62.13-.97.9-.87,1.95-1.49,3.15-1.8.7-.18,1.42-.25,2.13-.37"/>
          <path class="cls-1" d="m68.38,35.99c-1.14,0-2.1.42-2.93,1.18-.25.23-.56.36-.82.13-.15-.14-.21-.44-.22-.67,0-.12.16-.27.27-.38,2.02-1.94,5.45-1.93,7.48.01.37.35.42.69.15.96-.27.28-.58.25-.98-.1-.89-.78-1.84-1.14-2.95-1.14"/>
          <path class="cls-1" d="m68.39,36.91c.86.03,1.62.3,2.26.87.33.3.39.66.16.93-.23.27-.59.26-.94-.02-.96-.77-1.97-.77-2.94,0-.35.28-.71.28-.94.01-.24-.28-.18-.61.17-.93.64-.57,1.4-.83,2.23-.87"/>
          <path class="cls-1" d="m68.39,41.34c-.59,0-1.03-.45-1.03-1.05,0-.59.45-1.04,1.03-1.05.6,0,1.06.46,1.05,1.07,0,.58-.46,1.03-1.06,1.02"/>
          <path class="cls-1" d="m53.85,32.59c2.01.07,3.73.76,5.2,2.1.19.17.34.44.37.69.02.14-.2.43-.35.46-.22.04-.53-.01-.7-.15-.69-.6-1.42-1.13-2.28-1.42-2.43-.83-4.63-.4-6.59,1.27-.13.11-.28.31-.41.31-.24,0-.59-.06-.7-.22-.1-.16-.06-.56.08-.71.88-.96,1.98-1.6,3.24-1.94.69-.18,1.42-.25,2.13-.37"/>
          <path class="cls-1" d="m58.03,36.83c-.17.2-.29.46-.45.49-.23.04-.53-.03-.74-.15-.45-.25-.83-.63-1.29-.82-1.7-.72-3.24-.4-4.62.8-.37.32-.73.35-.98.07-.26-.29-.2-.62.17-.96,2.08-1.93,5.39-1.94,7.44-.02.17.16.29.36.48.61"/>
          <path class="cls-1" d="m54.07,36.92c.65.02,1.41.31,2.05.87.32.28.38.7.13.93-.29.27-.59.25-.9,0-.97-.8-1.99-.81-2.97,0-.31.25-.61.29-.9.02-.26-.24-.19-.62.13-.93.56-.53,1.47-.89,2.48-.88"/>
          <path class="cls-1" d="m52.82,40.32c0-.6.42-1.05,1.01-1.07.59-.01,1.09.47,1.09,1.05,0,.57-.47,1.03-1.05,1.04-.6,0-1.04-.42-1.05-1.03"/>
        </g>
      </g>
    </g>
  </g>
</svg>