<?xml version="1.0" encoding="UTF-8"?>
<svg id="Capa_2" data-name="Capa 2" xmlns="http://www.w3.org/2000/svg" viewBox="0 0 388.91 432">
  <defs>
    <style>
      .cls-1 {
        fill: #fff;
      }

      .cls-2 {
        fill: #ed1c24;
      }
    </style>
  </defs>
  <g id="Capa_1-2" data-name="Capa 1">
    <g>
      <polygon class="cls-2" points="388.91 346.34 194.45 432 0 346.34 0 0 388.91 0 388.91 346.34"/>
      <g>
        <path class="cls-1" d="m76.96,70.98h-29.53v-23.91h86.34v23.91h-29.53v74.53h-27.28v-74.53Z"/>
        <path class="cls-1" d="m138.13,96.57v-.28c0-28.27,22.78-51.19,53.16-51.19s52.88,22.64,52.88,50.91v.28c0,28.27-22.78,51.19-53.16,51.19s-52.88-22.64-52.88-50.91Zm78.19,0v-.28c0-14.2-10.27-26.58-25.31-26.58s-24.89,12.09-24.89,26.3v.28c0,14.2,10.27,26.58,25.17,26.58s25.03-12.09,25.03-26.3Z"/>
        <path class="cls-1" d="m258.36,47.07h42.19c24.89,0,40.92,12.8,40.92,34.59v.28c0,23.2-17.86,35.44-42.33,35.44h-13.5v28.12h-27.28V47.07Zm40.22,48.94c9.7,0,15.61-5.06,15.61-12.8v-.28c0-8.44-5.91-12.94-15.75-12.94h-12.8v26.02h12.94Z"/>
      </g>
      <g>
        <path class="cls-1" d="m102.55,222.42l-27.35,6.26-8.58-34.77,47.52-13.44h32.68v163.41h-44.27v-121.45Z"/>
        <path class="cls-1" d="m172.09,263.22v-.46c0-45.89,29.2-84.37,75.33-84.37s74.87,38.01,74.87,83.91v.46c0,45.89-28.97,84.37-75.33,84.37s-74.87-38.01-74.87-83.91Zm105,0v-.46c0-25.73-12.28-44.5-30.13-44.5s-29.67,18.08-29.67,44.04v.46c0,25.96,12.05,44.5,30.13,44.5s29.67-18.31,29.67-44.04Z"/>
      </g>
    </g>
  </g>
</svg>